<svg width="18" height="15" viewBox="0 0 18 15" fill="none" xmlns="http://www.w3.org/2000/svg">
<path d="M16.4163 13.5117H15.7913V1.01172C15.7913 0.845958 15.7255 0.686987 15.6083 0.569777C15.4911 0.452567 15.3321 0.386719 15.1663 0.386719H10.7913C10.6256 0.386719 10.4666 0.452567 10.3494 0.569777C10.2322 0.686987 10.1663 0.845958 10.1663 1.01172V4.13672H6.41632C6.25056 4.13672 6.09159 4.20257 5.97438 4.31978C5.85717 4.43699 5.79132 4.59596 5.79132 4.76172V7.88672H2.66632C2.50056 7.88672 2.34159 7.95257 2.22438 8.06978C2.10717 8.18699 2.04132 8.34596 2.04132 8.51172V13.5117H1.41632C1.25056 13.5117 1.09159 13.5776 0.974379 13.6948C0.857169 13.812 0.791321 13.971 0.791321 14.1367C0.791321 14.3025 0.857169 14.4615 0.974379 14.5787C1.09159 14.6959 1.25056 14.7617 1.41632 14.7617H16.4163C16.5821 14.7617 16.7411 14.6959 16.8583 14.5787C16.9755 14.4615 17.0413 14.3025 17.0413 14.1367C17.0413 13.971 16.9755 13.812 16.8583 13.6948C16.7411 13.5776 16.5821 13.5117 16.4163 13.5117ZM11.4163 1.63672H14.5413V13.5117H11.4163V1.63672ZM7.04132 5.38672H10.1663V13.5117H7.04132V5.38672ZM3.29132 9.13672H5.79132V13.5117H3.29132V9.13672Z" fill="white"/>
</svg>
