<svg width="16" height="16" viewBox="0 0 16 16" fill="none" xmlns="http://www.w3.org/2000/svg">
<path d="M12.8198 6.4375C12.8198 6.60326 12.7539 6.76223 12.6367 6.87944C12.5195 6.99665 12.3606 7.0625 12.1948 7.0625H7.19479C7.02903 7.0625 6.87006 6.99665 6.75285 6.87944C6.63564 6.76223 6.56979 6.60326 6.56979 6.4375C6.56979 6.27174 6.63564 6.11277 6.75285 5.99556C6.87006 5.87835 7.02903 5.8125 7.19479 5.8125H12.1948C12.3606 5.8125 12.5195 5.87835 12.6367 5.99556C12.7539 6.11277 12.8198 6.27174 12.8198 6.4375ZM12.1948 8.3125H7.19479C7.02903 8.3125 6.87006 8.37835 6.75285 8.49556C6.63564 8.61277 6.56979 8.77174 6.56979 8.9375C6.56979 9.10326 6.63564 9.26223 6.75285 9.37944C6.87006 9.49665 7.02903 9.5625 7.19479 9.5625H12.1948C12.3606 9.5625 12.5195 9.49665 12.6367 9.37944C12.7539 9.26223 12.8198 9.10326 12.8198 8.9375C12.8198 8.77174 12.7539 8.61277 12.6367 8.49556C12.5195 8.37835 12.3606 8.3125 12.1948 8.3125ZM15.9448 1.4375V13.9375C15.9448 14.269 15.8131 14.587 15.5787 14.8214C15.3443 15.0558 15.0263 15.1875 14.6948 15.1875H2.19479C1.86327 15.1875 1.54533 15.0558 1.31091 14.8214C1.07649 14.587 0.944794 14.269 0.944794 13.9375V1.4375C0.944794 1.10598 1.07649 0.788037 1.31091 0.553616C1.54533 0.319196 1.86327 0.1875 2.19479 0.1875H14.6948C15.0263 0.1875 15.3443 0.319196 15.5787 0.553616C15.8131 0.788037 15.9448 1.10598 15.9448 1.4375ZM2.19479 13.9375H4.06979V1.4375H2.19479V13.9375ZM14.6948 13.9375V1.4375H5.31979V13.9375H14.6948Z" fill="white"/>
</svg>
