<svg width="18" height="18" viewBox="0 0 18 18" fill="none" xmlns="http://www.w3.org/2000/svg">
<path d="M15.0983 10.25H11.8692C11.4411 10.2495 11.0304 10.4188 10.727 10.7208C10.4236 11.0228 10.2524 11.4327 10.2508 11.8608V15.09C10.2506 15.3025 10.2923 15.5131 10.3736 15.7095C10.4548 15.906 10.574 16.0845 10.7243 16.2348C10.8747 16.3851 11.0532 16.5043 11.2496 16.5856C11.446 16.6668 11.6566 16.7085 11.8692 16.7083H15.0983C15.5262 16.7065 15.936 16.5352 16.2378 16.2318C16.5396 15.9285 16.7088 15.5179 16.7083 15.09V11.8608C16.7086 11.6493 16.6671 11.4398 16.5862 11.2444C16.5054 11.049 16.3868 10.8714 16.2373 10.7219C16.0877 10.5723 15.9101 10.4537 15.7147 10.3729C15.5193 10.2921 15.3098 10.2506 15.0983 10.2508M6.13083 10.25H2.90167C2.47383 10.2524 2.06434 10.424 1.76266 10.7274C1.46099 11.0308 1.29166 11.4413 1.29166 11.8691V15.0983C1.29145 15.3098 1.33294 15.5192 1.41377 15.7147C1.4946 15.9101 1.61319 16.0877 1.76273 16.2372C1.91228 16.3868 2.08985 16.5054 2.28529 16.5862C2.48072 16.667 2.69018 16.7085 2.90167 16.7083H6.13083C6.55873 16.7087 6.96936 16.5395 7.27271 16.2377C7.57607 15.9359 7.7474 15.5262 7.74916 15.0983V11.8691C7.74938 11.6565 7.70768 11.446 7.62642 11.2496C7.54517 11.0531 7.42598 10.8746 7.27566 10.7243C7.12534 10.574 6.94685 10.4548 6.7504 10.3735C6.55396 10.2923 6.34342 10.2506 6.13083 10.2508M6.13083 1.29163H2.90167C2.69018 1.29141 2.48072 1.3329 2.28529 1.41373C2.08985 1.49457 1.91228 1.61315 1.76273 1.7627C1.61319 1.91224 1.4946 2.08981 1.41377 2.28525C1.33294 2.48068 1.29145 2.69014 1.29166 2.90163V6.13079C1.29122 6.5587 1.46044 6.96932 1.76223 7.27268C2.06402 7.57603 2.47377 7.74736 2.90167 7.74913H6.13083C6.34342 7.74935 6.55396 7.70764 6.7504 7.62639C6.94685 7.54513 7.12534 7.42594 7.27566 7.27562C7.42598 7.1253 7.54517 6.94681 7.62642 6.75036C7.70768 6.55392 7.74938 6.34338 7.74916 6.13079V2.90163C7.7474 2.47373 7.57607 2.06398 7.27271 1.76219C6.96936 1.4604 6.55873 1.29118 6.13083 1.29163ZM15.0983 1.29163H11.8692C11.4413 1.29118 11.0306 1.4604 10.7273 1.76219C10.4239 2.06398 10.2526 2.47373 10.2508 2.90163V6.13079C10.2511 6.55993 10.4216 6.97144 10.7251 7.27488C11.0285 7.57833 11.44 7.74891 11.8692 7.74913H15.0983C15.5262 7.74736 15.936 7.57603 16.2378 7.27268C16.5396 6.96932 16.7088 6.5587 16.7083 6.13079V2.90163C16.7086 2.69014 16.6671 2.48068 16.5862 2.28525C16.5054 2.08981 16.3868 1.91224 16.2373 1.7627C16.0877 1.61315 15.9101 1.49457 15.7147 1.41373C15.5193 1.3329 15.3098 1.29141 15.0983 1.29163Z" stroke="white" stroke-width="1.5" stroke-linecap="round" stroke-linejoin="round"/>
</svg>
