<svg width="17" height="17" viewBox="0 0 17 17" fill="none" xmlns="http://www.w3.org/2000/svg">
<path d="M8.57178 0.523438C6.96481 0.523438 5.39392 0.99996 4.05777 1.89275C2.72162 2.78553 1.68022 4.05448 1.06526 5.53913C0.450298 7.02378 0.289396 8.65745 0.602901 10.2335C0.916406 11.8096 1.69024 13.2574 2.82654 14.3937C3.96284 15.53 5.41058 16.3038 6.98667 16.6173C8.56277 16.9308 10.1964 16.7699 11.6811 16.155C13.1657 15.54 14.4347 14.4986 15.3275 13.1624C16.2203 11.8263 16.6968 10.2554 16.6968 8.64844C16.6945 6.49425 15.8378 4.42895 14.3145 2.90571C12.7913 1.38247 10.726 0.525712 8.57178 0.523438ZM8.57178 15.5234C7.21203 15.5234 5.88282 15.1202 4.75224 14.3648C3.62165 13.6094 2.74046 12.5356 2.22011 11.2794C1.69976 10.0231 1.56361 8.64081 1.82888 7.30719C2.09416 5.97357 2.74894 4.74856 3.71042 3.78708C4.67191 2.82559 5.89692 2.17081 7.23054 1.90554C8.56415 1.64027 9.94649 1.77641 11.2027 2.29677C12.459 2.81712 13.5327 3.6983 14.2881 4.82889C15.0436 5.95948 15.4468 7.28869 15.4468 8.64844C15.4447 10.4712 14.7197 12.2186 13.4309 13.5075C12.142 14.7964 10.3945 15.5214 8.57178 15.5234ZM7.94678 9.27344V4.89844C7.94678 4.73268 8.01263 4.57371 8.12984 4.4565C8.24705 4.33929 8.40602 4.27344 8.57178 4.27344C8.73754 4.27344 8.89651 4.33929 9.01372 4.4565C9.13093 4.57371 9.19678 4.73268 9.19678 4.89844V9.27344C9.19678 9.4392 9.13093 9.59817 9.01372 9.71538C8.89651 9.83259 8.73754 9.89844 8.57178 9.89844C8.40602 9.89844 8.24705 9.83259 8.12984 9.71538C8.01263 9.59817 7.94678 9.4392 7.94678 9.27344ZM9.50928 12.0859C9.50928 12.2714 9.4543 12.4526 9.35128 12.6068C9.24827 12.761 9.10185 12.8811 8.93055 12.9521C8.75924 13.023 8.57074 13.0416 8.38888 13.0054C8.20703 12.9692 8.03998 12.88 7.90887 12.7488C7.77776 12.6177 7.68847 12.4507 7.65229 12.2688C7.61612 12.087 7.63469 11.8985 7.70564 11.7272C7.7766 11.5559 7.89676 11.4094 8.05093 11.3064C8.20511 11.2034 8.38636 11.1484 8.57178 11.1484C8.82042 11.1484 9.05888 11.2472 9.23469 11.423C9.41051 11.5988 9.50928 11.8373 9.50928 12.0859Z" fill="white"/>
</svg>
