<svg width="20" height="15" viewBox="0 0 20 15" fill="none" xmlns="http://www.w3.org/2000/svg">
<path d="M8.50426 5.86562C8.4783 5.78776 8.46793 5.70553 8.47374 5.62366C8.47956 5.54178 8.50145 5.46185 8.53816 5.38843C8.57487 5.31501 8.62568 5.24955 8.68769 5.19577C8.7497 5.14199 8.8217 5.10095 8.89957 5.075L9.83707 4.7625C9.93103 4.73118 10.0311 4.72263 10.129 4.73757C10.2269 4.75251 10.3198 4.7905 10.4002 4.84841C10.4805 4.90632 10.546 4.98249 10.5911 5.07065C10.6362 5.15881 10.6597 5.25643 10.6597 5.35547V8.48047C10.6597 8.64623 10.5939 8.8052 10.4767 8.92241C10.3595 9.03962 10.2005 9.10547 10.0347 9.10547C9.86897 9.10547 9.71 9.03962 9.59279 8.92241C9.47558 8.8052 9.40973 8.64623 9.40973 8.48047V6.22266L9.29489 6.26094C9.21702 6.2869 9.1348 6.29727 9.05292 6.29145C8.97104 6.28564 8.89111 6.26375 8.81769 6.22704C8.74428 6.19033 8.67881 6.13952 8.62503 6.07751C8.57125 6.0155 8.53021 5.9435 8.50426 5.86562ZM19.0972 14.1055C19.0972 14.2712 19.0314 14.4302 18.9142 14.5474C18.797 14.6646 18.638 14.7305 18.4722 14.7305H0.972229C0.806469 14.7305 0.647497 14.6646 0.530287 14.5474C0.413077 14.4302 0.347229 14.2712 0.347229 14.1055C0.347229 13.9397 0.413077 13.7807 0.530287 13.6635C0.647497 13.5463 0.806469 13.4805 0.972229 13.4805H1.59723V5.98047C1.59723 5.64895 1.72892 5.33101 1.96335 5.09659C2.19777 4.86216 2.51571 4.73047 2.84723 4.73047H5.97223V2.23047C5.97223 1.89895 6.10393 1.58101 6.33835 1.34659C6.57277 1.11216 6.89071 0.980469 7.22223 0.980469H12.2222C12.5538 0.980469 12.8717 1.11216 13.1061 1.34659C13.3405 1.58101 13.4722 1.89895 13.4722 2.23047V7.85547H16.5972C16.9287 7.85547 17.2467 7.98716 17.4811 8.22159C17.7155 8.45601 17.8472 8.77395 17.8472 9.10547V13.4805H18.4722C18.638 13.4805 18.797 13.5463 18.9142 13.6635C19.0314 13.7807 19.0972 13.9397 19.0972 14.1055ZM13.4722 9.10547V13.4805H16.5972V9.10547H13.4722ZM7.22223 13.4805H12.2222V2.23047H7.22223V13.4805ZM2.84723 13.4805H5.97223V5.98047H2.84723V13.4805Z" fill="white"/>
</svg>
