<svg width="16" height="16" viewBox="0 0 16 16" fill="none" xmlns="http://www.w3.org/2000/svg">
<path d="M7.16357 15.1836C7.16357 15.3494 7.09773 15.5083 6.98052 15.6255C6.86331 15.7427 6.70433 15.8086 6.53857 15.8086H1.53857C1.37281 15.8086 1.21384 15.7427 1.09663 15.6255C0.979422 15.5083 0.913574 15.3494 0.913574 15.1836V1.43359C0.913574 1.26783 0.979422 1.10886 1.09663 0.991652C1.21384 0.874442 1.37281 0.808594 1.53857 0.808594H6.53857C6.70433 0.808594 6.86331 0.874442 6.98052 0.991652C7.09773 1.10886 7.16357 1.26783 7.16357 1.43359C7.16357 1.59935 7.09773 1.75833 6.98052 1.87554C6.86331 1.99275 6.70433 2.05859 6.53857 2.05859H2.16357V14.5586H6.53857C6.70433 14.5586 6.86331 14.6244 6.98052 14.7417C7.09773 14.8589 7.16357 15.0178 7.16357 15.1836ZM15.7308 7.86641L12.6058 4.74141C12.4885 4.62413 12.3294 4.55825 12.1636 4.55825C11.9977 4.55825 11.8387 4.62413 11.7214 4.74141C11.6041 4.85868 11.5382 5.01774 11.5382 5.18359C11.5382 5.34945 11.6041 5.50851 11.7214 5.62578L13.78 7.68359H6.53857C6.37281 7.68359 6.21384 7.74944 6.09663 7.86665C5.97942 7.98386 5.91357 8.14283 5.91357 8.30859C5.91357 8.47435 5.97942 8.63333 6.09663 8.75054C6.21384 8.86775 6.37281 8.93359 6.53857 8.93359H13.78L11.7214 10.9914C11.6041 11.1087 11.5382 11.2677 11.5382 11.4336C11.5382 11.5994 11.6041 11.7585 11.7214 11.8758C11.8387 11.9931 11.9977 12.0589 12.1636 12.0589C12.3294 12.0589 12.4885 11.9931 12.6058 11.8758L15.7308 8.75078C15.7889 8.69274 15.835 8.62381 15.8664 8.54793C15.8979 8.47206 15.9141 8.39073 15.9141 8.30859C15.9141 8.22646 15.8979 8.14513 15.8664 8.06926C15.835 7.99338 15.7889 7.92445 15.7308 7.86641Z" fill="#FF0000"/>
</svg>
