<svg width="16" height="17" viewBox="0 0 16 17" fill="none" xmlns="http://www.w3.org/2000/svg">
<path d="M15.6583 12.3859C15.2247 11.6391 14.5801 9.52578 14.5801 6.76562C14.5801 5.10802 13.9217 3.51831 12.7496 2.34621C11.5775 1.17411 9.98774 0.515625 8.33014 0.515625C6.67254 0.515625 5.08282 1.17411 3.91072 2.34621C2.73862 3.51831 2.08014 5.10802 2.08014 6.76562C2.08014 9.52656 1.43483 11.6391 1.00123 12.3859C0.890507 12.5758 0.831807 12.7915 0.831053 13.0113C0.830298 13.2311 0.887516 13.4473 0.996936 13.6379C1.10636 13.8285 1.26411 13.9869 1.45428 14.0971C1.64446 14.2073 1.86034 14.2655 2.08014 14.2656H5.26842C5.41262 14.9712 5.7961 15.6053 6.35399 16.0608C6.91189 16.5162 7.60996 16.7649 8.33014 16.7649C9.05031 16.7649 9.74839 16.5162 10.3063 16.0608C10.8642 15.6053 11.2477 14.9712 11.3919 14.2656H14.5801C14.7999 14.2653 15.0157 14.2071 15.2057 14.0968C15.3958 13.9866 15.5534 13.8282 15.6628 13.6375C15.7721 13.4469 15.8292 13.2309 15.8284 13.0111C15.8277 12.7914 15.769 12.5758 15.6583 12.3859ZM8.33014 15.5156C7.9425 15.5155 7.56442 15.3952 7.24795 15.1714C6.93148 14.9475 6.69217 14.6311 6.56295 14.2656H10.0973C9.96811 14.6311 9.7288 14.9475 9.41233 15.1714C9.09586 15.3952 8.71778 15.5155 8.33014 15.5156ZM2.08014 13.0156C2.6817 11.9812 3.33014 9.58438 3.33014 6.76562C3.33014 5.43954 3.85692 4.16777 4.79461 3.23009C5.73229 2.29241 7.00406 1.76562 8.33014 1.76562C9.65622 1.76562 10.928 2.29241 11.8657 3.23009C12.8034 4.16777 13.3301 5.43954 13.3301 6.76562C13.3301 9.58203 13.977 11.9789 14.5801 13.0156H2.08014Z" fill="white"/>
</svg>
