<svg width="21" height="21" viewBox="0 0 21 21" fill="none" xmlns="http://www.w3.org/2000/svg">
<path d="M17.0813 3.33789H3.3313C2.99978 3.33789 2.68184 3.46959 2.44742 3.70401C2.21299 3.93843 2.0813 4.25637 2.0813 4.58789V15.8379C2.0813 16.1694 2.21299 16.4874 2.44742 16.7218C2.68184 16.9562 2.99978 17.0879 3.3313 17.0879H17.0813C17.4128 17.0879 17.7308 16.9562 17.9652 16.7218C18.1996 16.4874 18.3313 16.1694 18.3313 15.8379V4.58789C18.3313 4.25637 18.1996 3.93843 17.9652 3.70401C17.7308 3.46959 17.4128 3.33789 17.0813 3.33789ZM17.0813 15.8379H3.3313V4.58789H17.0813V15.8379ZM13.9563 7.08789C13.9563 8.08245 13.5612 9.03628 12.858 9.73954C12.1547 10.4428 11.2009 10.8379 10.2063 10.8379C9.21174 10.8379 8.25791 10.4428 7.55465 9.73954C6.85139 9.03628 6.4563 8.08245 6.4563 7.08789C6.4563 6.92213 6.52215 6.76316 6.63936 6.64595C6.75657 6.52874 6.91554 6.46289 7.0813 6.46289C7.24706 6.46289 7.40603 6.52874 7.52324 6.64595C7.64045 6.76316 7.7063 6.92213 7.7063 7.08789C7.7063 7.75093 7.96969 8.38682 8.43853 8.85566C8.90737 9.3245 9.54326 9.58789 10.2063 9.58789C10.8693 9.58789 11.5052 9.3245 11.9741 8.85566C12.4429 8.38682 12.7063 7.75093 12.7063 7.08789C12.7063 6.92213 12.7721 6.76316 12.8894 6.64595C13.0066 6.52874 13.1655 6.46289 13.3313 6.46289C13.4971 6.46289 13.656 6.52874 13.7732 6.64595C13.8905 6.76316 13.9563 6.92213 13.9563 7.08789Z" fill="white"/>
</svg>
