<svg width="17" height="15" viewBox="0 0 17 15" fill="none" xmlns="http://www.w3.org/2000/svg">
<path d="M16.3314 13.4629C16.3314 13.6287 16.2655 13.7876 16.1483 13.9048C16.0311 14.022 15.8721 14.0879 15.7064 14.0879H0.70636C0.5406 14.0879 0.381628 14.022 0.264418 13.9048C0.147208 13.7876 0.0813599 13.6287 0.0813599 13.4629V0.962891C0.0813599 0.79713 0.147208 0.638159 0.264418 0.520949C0.381628 0.403739 0.5406 0.337891 0.70636 0.337891C0.87212 0.337891 1.03109 0.403739 1.1483 0.520949C1.26551 0.638159 1.33136 0.79713 1.33136 0.962891V9.4543L5.26417 5.5207C5.32222 5.46259 5.39115 5.41649 5.46702 5.38504C5.5429 5.35359 5.62423 5.3374 5.70636 5.3374C5.78849 5.3374 5.86982 5.35359 5.9457 5.38504C6.02157 5.41649 6.0905 5.46259 6.14855 5.5207L8.20636 7.5793L12.3228 3.46289H10.7064C10.5406 3.46289 10.3816 3.39704 10.2644 3.27983C10.1472 3.16262 10.0814 3.00365 10.0814 2.83789C10.0814 2.67213 10.1472 2.51316 10.2644 2.39595C10.3816 2.27874 10.5406 2.21289 10.7064 2.21289H13.8314C13.9971 2.21289 14.1561 2.27874 14.2733 2.39595C14.3905 2.51316 14.4564 2.67213 14.4564 2.83789V5.96289C14.4564 6.12865 14.3905 6.28762 14.2733 6.40483C14.1561 6.52204 13.9971 6.58789 13.8314 6.58789C13.6656 6.58789 13.5066 6.52204 13.3894 6.40483C13.2722 6.28762 13.2064 6.12865 13.2064 5.96289V4.34648L8.64855 8.90508C8.5905 8.96319 8.52157 9.00929 8.4457 9.04074C8.36982 9.07219 8.28849 9.08838 8.20636 9.08838C8.12423 9.08838 8.0429 9.07219 7.96702 9.04074C7.89115 9.00929 7.82222 8.96319 7.76417 8.90508L5.70636 6.84648L1.33136 11.2215V12.8379H15.7064C15.8721 12.8379 16.0311 12.9037 16.1483 13.0209C16.2655 13.1382 16.3314 13.2971 16.3314 13.4629Z" fill="white"/>
</svg>
