<svg width="18" height="17" viewBox="0 0 18 17" fill="none" xmlns="http://www.w3.org/2000/svg">
<path d="M17.7974 6.38739C17.7192 6.14718 17.5718 5.93546 17.3735 5.77892C17.1753 5.62238 16.9351 5.52801 16.6833 5.5077L12.0739 5.13583L10.2943 0.831923C10.198 0.597405 10.0342 0.396804 9.82366 0.255624C9.61311 0.114444 9.36534 0.0390625 9.11184 0.0390625C8.85834 0.0390625 8.61057 0.114444 8.40002 0.255624C8.18947 0.396804 8.02566 0.597405 7.92942 0.831923L6.15129 5.13505L1.53957 5.5077C1.28737 5.52903 1.04707 5.62432 0.848773 5.78162C0.65048 5.93891 0.503016 6.15123 0.424856 6.39197C0.346696 6.6327 0.341317 6.89115 0.409391 7.13493C0.477466 7.37871 0.615967 7.59698 0.807543 7.76239L4.32317 10.796L3.25207 15.3319C3.19217 15.5784 3.20684 15.837 3.29421 16.0751C3.38159 16.3132 3.53773 16.5199 3.74282 16.6691C3.94791 16.8183 4.1927 16.9031 4.44612 16.9129C4.69953 16.9227 4.95014 16.857 5.16614 16.7241L9.11145 14.296L13.0591 16.7241C13.2752 16.8554 13.5253 16.9199 13.7779 16.9094C14.0305 16.8988 14.2744 16.8138 14.4788 16.6649C14.6832 16.5161 14.839 16.3101 14.9265 16.0729C15.0141 15.8357 15.0295 15.5779 14.9708 15.3319L13.8958 10.7952L17.4114 7.76161C17.6046 7.59647 17.7443 7.37773 17.813 7.13309C17.8818 6.88846 17.8763 6.62893 17.7974 6.38739ZM16.5989 6.81474L12.7943 10.096C12.7075 10.1708 12.643 10.268 12.6077 10.3769C12.5724 10.4859 12.5678 10.6025 12.5943 10.714L13.7568 15.6202C13.7598 15.627 13.7601 15.6346 13.7576 15.6416C13.7551 15.6486 13.7501 15.6543 13.7435 15.6577C13.7294 15.6686 13.7255 15.6663 13.7138 15.6577L9.43879 13.0288C9.34034 12.9683 9.22703 12.9362 9.11145 12.9362C8.99587 12.9362 8.88256 12.9683 8.78411 13.0288L4.50911 15.6593C4.49739 15.6663 4.49426 15.6686 4.47942 15.6593C4.47282 15.6559 4.46777 15.6501 4.4653 15.6432C4.46283 15.6362 4.46313 15.6285 4.46614 15.6218L5.62864 10.7155C5.65513 10.6041 5.65049 10.4875 5.61522 10.3785C5.57995 10.2695 5.5154 10.1723 5.42864 10.0975L1.62395 6.8163C1.61457 6.80849 1.60598 6.80145 1.61379 6.77724C1.62161 6.75302 1.62786 6.75614 1.63957 6.75458L6.63332 6.35145C6.74786 6.34163 6.85747 6.30041 6.9501 6.23232C7.04272 6.16423 7.11477 6.07191 7.15832 5.96552L9.08176 1.30849C9.08801 1.2952 9.09036 1.28895 9.10911 1.28895C9.12786 1.28895 9.1302 1.2952 9.13645 1.30849L11.0646 5.96552C11.1085 6.07195 11.181 6.16417 11.2741 6.23199C11.3672 6.29982 11.4771 6.34062 11.5919 6.34989L16.5857 6.75302C16.5974 6.75302 16.6044 6.75302 16.6115 6.77567C16.6185 6.79833 16.6114 6.80692 16.5989 6.81474Z" fill="white"/>
</svg>
