<svg width="20" height="15" viewBox="0 0 20 15" fill="none" xmlns="http://www.w3.org/2000/svg">
<path d="M19.2365 8.53839C19.1708 8.58763 19.0961 8.62346 19.0166 8.64383C18.9371 8.6642 18.8543 8.66871 18.7731 8.65711C18.6918 8.6455 18.6136 8.618 18.543 8.57618C18.4724 8.53437 18.4107 8.47905 18.3615 8.41339C17.9847 7.90703 17.4944 7.49619 16.9299 7.21395C16.3654 6.9317 15.7426 6.78594 15.1114 6.78839C14.9885 6.78838 14.8684 6.75213 14.766 6.68418C14.6636 6.61623 14.5834 6.51959 14.5357 6.40636C14.5032 6.32946 14.4865 6.24685 14.4865 6.16339C14.4865 6.07993 14.5032 5.99731 14.5357 5.92042C14.5834 5.80718 14.6636 5.71055 14.766 5.6426C14.8684 5.57465 14.9885 5.5384 15.1114 5.53839C15.4621 5.53836 15.8058 5.43998 16.1033 5.25444C16.4009 5.06889 16.6405 4.80361 16.7949 4.48873C16.9492 4.17385 17.0122 3.822 16.9766 3.47312C16.941 3.12425 16.8083 2.79235 16.5936 2.51512C16.3788 2.2379 16.0906 2.02645 15.7617 1.90481C15.4328 1.78316 15.0763 1.7562 14.7329 1.82697C14.3894 1.89774 14.0727 2.06342 13.8187 2.30518C13.5646 2.54694 13.3835 2.85509 13.2958 3.19464C13.2753 3.27415 13.2393 3.34884 13.1899 3.41445C13.1406 3.48005 13.0787 3.53529 13.008 3.577C12.9373 3.61872 12.859 3.64609 12.7777 3.65756C12.6964 3.66903 12.6136 3.66438 12.5341 3.64386C12.4546 3.62334 12.3799 3.58736 12.3143 3.53797C12.2487 3.48859 12.1935 3.42677 12.1517 3.35603C12.11 3.2853 12.0827 3.20705 12.0712 3.12573C12.0597 3.04442 12.0644 2.96165 12.0849 2.88214C12.2066 2.41129 12.4365 1.97534 12.7563 1.60898C13.0761 1.24261 13.477 0.955945 13.9271 0.771787C14.3772 0.587629 14.8641 0.511062 15.349 0.548178C15.8339 0.585294 16.3034 0.735069 16.7203 0.985585C17.1371 1.2361 17.4897 1.58044 17.75 1.99121C18.0104 2.40199 18.1712 2.86785 18.2198 3.35173C18.2684 3.83561 18.2034 4.32416 18.03 4.7785C17.8566 5.23285 17.5795 5.64044 17.2208 5.96886C18.0707 6.33682 18.8095 6.92074 19.3638 7.66261C19.413 7.72844 19.4488 7.80333 19.4691 7.88301C19.4893 7.96268 19.4937 8.04557 19.4818 8.12692C19.47 8.20827 19.4422 8.28649 19.4001 8.3571C19.358 8.4277 19.3024 8.48931 19.2365 8.53839ZM15.0271 13.3509C15.0723 13.422 15.1027 13.5016 15.1163 13.5847C15.13 13.6679 15.1267 13.753 15.1067 13.8349C15.0866 13.9168 15.0502 13.9937 14.9996 14.0612C14.9491 14.1286 14.8854 14.1851 14.8124 14.2273C14.7394 14.2695 14.6587 14.2965 14.575 14.3066C14.4913 14.3168 14.4064 14.3099 14.3255 14.2864C14.2445 14.2629 14.1692 14.2233 14.1039 14.17C14.0387 14.1166 13.9849 14.0506 13.9458 13.9759C13.5521 13.3092 12.9914 12.7567 12.319 12.3729C11.6466 11.9891 10.8857 11.7872 10.1115 11.7872C9.33721 11.7872 8.57634 11.9891 7.90393 12.3729C7.23152 12.7567 6.67079 13.3092 6.27708 13.9759C6.238 14.0506 6.18423 14.1166 6.11898 14.17C6.05373 14.2233 5.97837 14.2629 5.89741 14.2864C5.81646 14.3099 5.73159 14.3168 5.64791 14.3066C5.56423 14.2965 5.48347 14.2695 5.41049 14.2273C5.33752 14.1851 5.27383 14.1286 5.22325 14.0612C5.17268 13.9937 5.13627 13.9168 5.11622 13.8349C5.09616 13.753 5.09288 13.6679 5.10656 13.5847C5.12024 13.5016 5.1506 13.422 5.19583 13.3509C5.80176 12.3098 6.72566 11.4905 7.83176 11.0134C7.20936 10.5369 6.75194 9.87726 6.52379 9.12732C6.29565 8.37737 6.30825 7.57479 6.55982 6.83238C6.8114 6.08996 7.2893 5.44505 7.92635 4.98829C8.5634 4.53153 9.32757 4.28588 10.1115 4.28588C10.8953 4.28588 11.6595 4.53153 12.2966 4.98829C12.9336 5.44505 13.4115 6.08996 13.6631 6.83238C13.9147 7.57479 13.9273 8.37737 13.6991 9.12732C13.471 9.87726 13.0135 10.5369 12.3911 11.0134C13.4972 11.4905 14.4211 12.3098 15.0271 13.3509ZM10.1115 10.5384C10.6059 10.5384 11.0893 10.3918 11.5004 10.1171C11.9115 9.84236 12.2319 9.45191 12.4211 8.9951C12.6104 8.53828 12.6599 8.03561 12.5634 7.55066C12.467 7.06571 12.2288 6.62025 11.8792 6.27062C11.5296 5.92099 11.0841 5.68289 10.5992 5.58642C10.1142 5.48996 9.61156 5.53947 9.15474 5.72869C8.69793 5.91791 8.30748 6.23834 8.03278 6.64946C7.75807 7.06059 7.61145 7.54394 7.61145 8.03839C7.61145 8.70143 7.87484 9.33731 8.34368 9.80616C8.81252 10.275 9.44841 10.5384 10.1115 10.5384ZM5.73645 6.16339C5.73645 5.99763 5.6706 5.83866 5.55339 5.72145C5.43618 5.60424 5.27721 5.53839 5.11145 5.53839C4.76077 5.53836 4.41712 5.43998 4.11955 5.25444C3.82198 5.06889 3.5824 4.80361 3.42804 4.48873C3.27367 4.17385 3.21071 3.822 3.24629 3.47312C3.28188 3.12425 3.41459 2.79235 3.62935 2.51512C3.84411 2.2379 4.13231 2.02645 4.46122 1.90481C4.79012 1.78316 5.14655 1.7562 5.49002 1.82697C5.83348 1.89774 6.15022 2.06342 6.40424 2.30518C6.65827 2.54694 6.83941 2.85509 6.92708 3.19464C6.96852 3.35522 7.07205 3.49276 7.2149 3.577C7.35775 3.66125 7.52821 3.6853 7.68879 3.64386C7.84937 3.60242 7.98692 3.49888 8.07116 3.35603C8.15541 3.21318 8.17945 3.04272 8.13801 2.88214C8.01633 2.41129 7.78643 1.97534 7.46662 1.60898C7.1468 1.24261 6.74589 0.955945 6.29579 0.771787C5.84569 0.587629 5.35882 0.511062 4.87392 0.548178C4.38902 0.585294 3.91947 0.735069 3.50264 0.985585C3.08581 1.2361 2.7332 1.58044 2.47287 1.99121C2.21254 2.40199 2.05167 2.86785 2.00307 3.35173C1.95446 3.83561 2.01946 4.32416 2.19289 4.7785C2.36632 5.23285 2.6434 5.64044 3.00208 5.96886C2.15308 6.33717 1.41513 6.92106 0.861451 7.66261C0.761891 7.79522 0.719087 7.96194 0.742456 8.12611C0.765825 8.29028 0.853452 8.43844 0.98606 8.538C1.11867 8.63756 1.2854 8.68036 1.44956 8.65699C1.61373 8.63362 1.76189 8.546 1.86145 8.41339C2.23816 7.90703 2.72849 7.49619 3.29298 7.21395C3.85747 6.9317 4.48034 6.78594 5.11145 6.78839C5.27721 6.78839 5.43618 6.72254 5.55339 6.60533C5.6706 6.48812 5.73645 6.32915 5.73645 6.16339Z" fill="white"/>
</svg>
