<svg width="19" height="18" viewBox="0 0 19 18" fill="none" xmlns="http://www.w3.org/2000/svg">
<path d="M9.67743 5.34927C8.93575 5.34927 8.21072 5.5692 7.59404 5.98126C6.97736 6.39331 6.49671 6.97898 6.21288 7.66421C5.92905 8.34943 5.85479 9.10343 5.99948 9.83086C6.14418 10.5583 6.50133 11.2265 7.02578 11.7509C7.55023 12.2754 8.21841 12.6325 8.94584 12.7772C9.67327 12.9219 10.4273 12.8476 11.1125 12.5638C11.7977 12.28 12.3834 11.7993 12.7954 11.1827C13.2075 10.566 13.4274 9.84095 13.4274 9.09927C13.4264 8.10502 13.031 7.1518 12.3279 6.44876C11.6249 5.74572 10.6717 5.3503 9.67743 5.34927ZM9.67743 11.5993C9.18298 11.5993 8.69963 11.4526 8.2885 11.1779C7.87738 10.9032 7.55695 10.5128 7.36773 10.056C7.17851 9.59916 7.129 9.0965 7.22547 8.61154C7.32193 8.12659 7.56003 7.68113 7.90966 7.3315C8.25929 6.98187 8.70475 6.74377 9.1897 6.64731C9.67466 6.55084 10.1773 6.60035 10.6341 6.78957C11.091 6.97879 11.4814 7.29922 11.7561 7.71034C12.0308 8.12147 12.1774 8.60482 12.1774 9.09927C12.1774 9.76231 11.914 10.3982 11.4452 10.867C10.9764 11.3359 10.3405 11.5993 9.67743 11.5993ZM18.2665 7.47505C18.2491 7.38704 18.2129 7.30381 18.1605 7.23101C18.1081 7.15821 18.0406 7.09756 17.9626 7.05317L15.6321 5.72505L15.6227 3.09849C15.6225 3.00803 15.6025 2.91871 15.5644 2.8367C15.5262 2.75469 15.4707 2.68195 15.4016 2.62349C14.5563 1.90841 13.5828 1.36041 12.5329 1.00864C12.4502 0.980659 12.3626 0.970303 12.2757 0.978242C12.1887 0.986181 12.1045 1.01224 12.0282 1.05474L9.67743 2.3688L7.3243 1.05239C7.24802 1.00966 7.16361 0.983401 7.07654 0.975327C6.98947 0.967252 6.90168 0.977538 6.81884 1.00552C5.76973 1.35986 4.79734 1.90994 3.95321 2.62661C3.88428 2.68499 3.82882 2.75761 3.79065 2.83947C3.75248 2.92134 3.73251 3.01051 3.73212 3.10083L3.7204 5.72974L1.38993 7.05786C1.31196 7.10225 1.24446 7.1629 1.19202 7.2357C1.13958 7.30849 1.10343 7.39173 1.08602 7.47974C0.872739 8.55152 0.872739 9.65483 1.08602 10.7266C1.10343 10.8146 1.13958 10.8979 1.19202 10.9707C1.24446 11.0434 1.31196 11.1041 1.38993 11.1485L3.7204 12.4766L3.72977 15.1032C3.73006 15.1936 3.74997 15.283 3.78814 15.365C3.82632 15.447 3.88184 15.5197 3.95087 15.5782C4.79623 16.2933 5.76974 16.8412 6.81962 17.193C6.90229 17.221 6.98992 17.2314 7.07684 17.2234C7.16377 17.2155 7.24806 17.1894 7.3243 17.1469L9.67743 15.8297L12.0306 17.1461C12.1237 17.198 12.2286 17.2249 12.3352 17.2243C12.4035 17.2242 12.4713 17.2132 12.536 17.1915C13.585 16.8376 14.5574 16.288 15.4016 15.5719C15.4706 15.5136 15.526 15.4409 15.5642 15.3591C15.6024 15.2772 15.6223 15.188 15.6227 15.0977L15.6345 12.4688L17.9649 11.1407C18.0429 11.0963 18.1104 11.0356 18.1628 10.9628C18.2153 10.89 18.2514 10.8068 18.2688 10.7188C18.4809 9.64787 18.4801 8.54567 18.2665 7.47505ZM17.0946 10.2024L14.8626 11.4719C14.7648 11.5275 14.6838 11.6085 14.6282 11.7063C14.5829 11.7844 14.5352 11.8672 14.4868 11.9454C14.4248 12.0439 14.3918 12.1579 14.3915 12.2743L14.3798 14.7938C13.7798 15.2649 13.1114 15.6417 12.3977 15.911L10.1462 14.6563C10.0527 14.6046 9.94754 14.5777 9.84071 14.5782H9.82587C9.73133 14.5782 9.63602 14.5782 9.54149 14.5782C9.42968 14.5754 9.31914 14.6023 9.22118 14.6563L6.96805 15.9141C6.25283 15.6469 5.5826 15.272 4.98055 14.8024L4.97196 12.2868C4.97157 12.1701 4.93856 12.0559 4.87665 11.9571C4.82821 11.879 4.78055 11.8008 4.73602 11.718C4.68081 11.6187 4.59984 11.5361 4.50165 11.479L2.26727 10.2063C2.15165 9.4749 2.15165 8.72988 2.26727 7.99849L4.4954 6.72661C4.59319 6.67101 4.67417 6.59003 4.72977 6.49224C4.77509 6.41411 4.82274 6.3313 4.87118 6.25318C4.93318 6.15465 4.96621 6.04068 4.96649 5.92427L4.97821 3.40474C5.57815 2.9336 6.24654 2.55686 6.96024 2.28755L9.20868 3.54224C9.30653 3.59648 9.41715 3.62346 9.52899 3.62036C9.62352 3.62036 9.71884 3.62036 9.81337 3.62036C9.92517 3.62316 10.0357 3.59619 10.1337 3.54224L12.3868 2.28443C13.102 2.55167 13.7723 2.92656 14.3743 3.39614L14.3829 5.91177C14.3833 6.02841 14.4163 6.14261 14.4782 6.24146C14.5266 6.31958 14.5743 6.39771 14.6188 6.48052C14.6741 6.57983 14.755 6.66241 14.8532 6.71958L17.0876 7.99224C17.2048 8.7242 17.2061 9.47003 17.0915 10.2024H17.0946Z" fill="white"/>
</svg>
