<svg width="15" height="15" viewBox="0 0 15 15" fill="none" xmlns="http://www.w3.org/2000/svg">
<path d="M5.5587 9.86059C6.08268 10.3817 6.49809 11.0015 6.78091 11.6842C7.06373 12.3669 7.20834 13.099 7.20636 13.8379C7.20636 14.0037 7.14051 14.1627 7.0233 14.2799C6.90609 14.3971 6.74712 14.4629 6.58136 14.4629C6.4156 14.4629 6.25663 14.3971 6.13942 14.2799C6.02221 14.1627 5.95636 14.0037 5.95636 13.8379C5.95636 12.6776 5.49542 11.5648 4.67495 10.7443C3.85448 9.92387 2.74168 9.46294 1.58136 9.46294C1.4156 9.46294 1.25663 9.39709 1.13942 9.27988C1.02221 9.16267 0.95636 9.0037 0.95636 8.83794C0.95636 8.67218 1.02221 8.51321 1.13942 8.396C1.25663 8.27879 1.4156 8.21294 1.58136 8.21294C2.32033 8.21096 3.05235 8.35557 3.73507 8.63839C4.41778 8.92121 5.03761 9.33662 5.5587 9.86059ZM1.58136 4.46294C1.4156 4.46294 1.25663 4.52879 1.13942 4.646C1.02221 4.76321 0.95636 4.92218 0.95636 5.08794C0.95636 5.2537 1.02221 5.41267 1.13942 5.52988C1.25663 5.64709 1.4156 5.71294 1.58136 5.71294C3.73624 5.71294 5.80287 6.56896 7.3266 8.09269C8.85034 9.61643 9.70636 11.6831 9.70636 13.8379C9.70636 14.0037 9.77221 14.1627 9.88942 14.2799C10.0066 14.3971 10.1656 14.4629 10.3314 14.4629C10.4971 14.4629 10.6561 14.3971 10.7733 14.2799C10.8905 14.1627 10.9564 14.0037 10.9564 13.8379C10.9564 11.3515 9.96864 8.96697 8.21049 7.20881C6.45233 5.45066 4.06776 4.46294 1.58136 4.46294ZM10.8618 4.55747C9.64596 3.33486 8.19967 2.36554 6.60668 1.70563C5.01369 1.04572 3.30563 0.708309 1.58136 0.712938C1.4156 0.712938 1.25663 0.778786 1.13942 0.895996C1.02221 1.01321 0.95636 1.17218 0.95636 1.33794C0.95636 1.5037 1.02221 1.66267 1.13942 1.77988C1.25663 1.89709 1.4156 1.96294 1.58136 1.96294C3.14144 1.95866 4.68687 2.26387 6.1282 2.86089C7.56953 3.45791 8.87812 4.33489 9.97824 5.44106C11.0844 6.54117 11.9614 7.84977 12.5584 9.2911C13.1554 10.7324 13.4606 12.2779 13.4564 13.8379C13.4564 14.0037 13.5222 14.1627 13.6394 14.2799C13.7566 14.3971 13.9156 14.4629 14.0814 14.4629C14.2471 14.4629 14.4061 14.3971 14.5233 14.2799C14.6405 14.1627 14.7064 14.0037 14.7064 13.8379C14.711 12.1137 14.3736 10.4056 13.7137 8.81262C13.0538 7.21962 12.0844 5.77334 10.8618 4.55747ZM1.89386 12.5879C1.70844 12.5879 1.52718 12.6429 1.37301 12.7459C1.21884 12.8489 1.09868 12.9954 1.02772 13.1667C0.956766 13.338 0.9382 13.5265 0.974374 13.7083C1.01055 13.8902 1.09984 14.0572 1.23095 14.1883C1.36206 14.3195 1.52911 14.4087 1.71096 14.4449C1.89282 14.4811 2.08132 14.4625 2.25263 14.3916C2.42393 14.3206 2.57035 14.2005 2.67336 14.0463C2.77638 13.8921 2.83136 13.7109 2.83136 13.5254C2.83136 13.2768 2.73259 13.0383 2.55677 12.8625C2.38096 12.6867 2.1425 12.5879 1.89386 12.5879Z" fill="white"/>
</svg>
