<svg width="18" height="18" viewBox="0 0 18 18" fill="none" xmlns="http://www.w3.org/2000/svg">
<path d="M16.8517 7.2457C16.5571 6.93789 16.2525 6.6207 16.1376 6.3418C16.0314 6.08633 16.0251 5.66289 16.0189 5.25273C16.0071 4.49023 15.9946 3.62617 15.3939 3.02539C14.7931 2.42461 13.929 2.41211 13.1665 2.40039C12.7564 2.39414 12.3329 2.38789 12.0775 2.28164C11.7993 2.1668 11.4814 1.86211 11.1735 1.56758C10.6345 1.04961 10.022 0.462891 9.20636 0.462891C8.39073 0.462891 7.77902 1.04961 7.23917 1.56758C6.93136 1.86211 6.61417 2.1668 6.33527 2.28164C6.08136 2.38789 5.65636 2.39414 5.2462 2.40039C4.4837 2.41211 3.61964 2.42461 3.01886 3.02539C2.41808 3.62617 2.40948 4.49023 2.39386 5.25273C2.38761 5.66289 2.38136 6.08633 2.27511 6.3418C2.16027 6.61992 1.85558 6.93789 1.56105 7.2457C1.04308 7.78477 0.45636 8.39727 0.45636 9.21289C0.45636 10.0285 1.04308 10.6402 1.56105 11.1801C1.85558 11.4879 2.16027 11.8051 2.27511 12.084C2.38136 12.3395 2.38761 12.7629 2.39386 13.173C2.40558 13.9355 2.41808 14.7996 3.01886 15.4004C3.61964 16.0012 4.4837 16.0137 5.2462 16.0254C5.65636 16.0316 6.0798 16.0379 6.33527 16.1441C6.61339 16.259 6.93136 16.5637 7.23917 16.8582C7.77823 17.3762 8.39073 17.9629 9.20636 17.9629C10.022 17.9629 10.6337 17.3762 11.1735 16.8582C11.4814 16.5637 11.7985 16.259 12.0775 16.1441C12.3329 16.0379 12.7564 16.0316 13.1665 16.0254C13.929 16.0137 14.7931 16.0012 15.3939 15.4004C15.9946 14.7996 16.0071 13.9355 16.0189 13.173C16.0251 12.7629 16.0314 12.3395 16.1376 12.084C16.2525 11.8059 16.5571 11.4879 16.8517 11.1801C17.3696 10.641 17.9564 10.0285 17.9564 9.21289C17.9564 8.39727 17.3696 7.78555 16.8517 7.2457ZM15.9493 10.3152C15.5751 10.7059 15.1876 11.1098 14.9821 11.6059C14.7853 12.0824 14.7767 12.627 14.7689 13.1543C14.761 13.7012 14.7525 14.2738 14.5095 14.516C14.2665 14.7582 13.6978 14.7676 13.1478 14.7754C12.6204 14.7832 12.0759 14.7918 11.5993 14.9887C11.1032 15.1941 10.6993 15.5816 10.3087 15.9559C9.91808 16.3301 9.51886 16.7129 9.20636 16.7129C8.89386 16.7129 8.49152 16.3285 8.10402 15.9559C7.71652 15.5832 7.30948 15.1941 6.81339 14.9887C6.33683 14.7918 5.7923 14.7832 5.26495 14.7754C4.71808 14.7676 4.14542 14.759 3.90323 14.516C3.66105 14.273 3.65167 13.7043 3.64386 13.1543C3.63605 12.627 3.62745 12.0824 3.43058 11.6059C3.22511 11.1098 2.83761 10.7059 2.46339 10.3152C2.08917 9.92461 1.70636 9.52539 1.70636 9.21289C1.70636 8.90039 2.09073 8.49805 2.46339 8.11055C2.83605 7.72305 3.22511 7.31602 3.43058 6.81992C3.62745 6.34336 3.63605 5.79883 3.64386 5.27148C3.65167 4.72461 3.66027 4.15195 3.90323 3.90977C4.1462 3.66758 4.71495 3.6582 5.26495 3.65039C5.7923 3.64258 6.33683 3.63398 6.81339 3.43711C7.30948 3.23164 7.71339 2.84414 8.10402 2.46992C8.49464 2.0957 8.89386 1.71289 9.20636 1.71289C9.51886 1.71289 9.9212 2.09727 10.3087 2.46992C10.6962 2.84258 11.1032 3.23164 11.5993 3.43711C12.0759 3.63398 12.6204 3.64258 13.1478 3.65039C13.6946 3.6582 14.2673 3.6668 14.5095 3.90977C14.7517 4.15273 14.761 4.72148 14.7689 5.27148C14.7767 5.79883 14.7853 6.34336 14.9821 6.81992C15.1876 7.31602 15.5751 7.71992 15.9493 8.11055C16.3235 8.50117 16.7064 8.90039 16.7064 9.21289C16.7064 9.52539 16.322 9.92773 15.9493 10.3152ZM12.7735 6.8957C12.8317 6.95375 12.8778 7.02268 12.9092 7.09855C12.9407 7.17443 12.9569 7.25576 12.9569 7.33789C12.9569 7.42003 12.9407 7.50135 12.9092 7.57723C12.8778 7.6531 12.8317 7.72203 12.7735 7.78008L8.39855 12.1551C8.3405 12.2132 8.27157 12.2593 8.1957 12.2907C8.11982 12.3222 8.03849 12.3384 7.95636 12.3384C7.87423 12.3384 7.7929 12.3222 7.71702 12.2907C7.64115 12.2593 7.57222 12.2132 7.51417 12.1551L5.63917 10.2801C5.5219 10.1628 5.45601 10.0037 5.45601 9.83789C5.45601 9.67204 5.5219 9.51298 5.63917 9.3957C5.75645 9.27843 5.91551 9.21254 6.08136 9.21254C6.24721 9.21254 6.40627 9.27843 6.52355 9.3957L7.95636 10.8293L11.8892 6.8957C11.9472 6.83759 12.0161 6.79149 12.092 6.76004C12.1679 6.72859 12.2492 6.7124 12.3314 6.7124C12.4135 6.7124 12.4948 6.72859 12.5707 6.76004C12.6466 6.79149 12.7155 6.83759 12.7735 6.8957Z" fill="white"/>
</svg>
