<svg width="16" height="16" viewBox="0 0 16 16" fill="none" xmlns="http://www.w3.org/2000/svg">
<path d="M14.4564 0.337891H1.95636C1.62484 0.337891 1.3069 0.469587 1.07248 0.704007C0.838056 0.938428 0.70636 1.25637 0.70636 1.58789V5.96289C0.70636 10.0816 2.70011 12.5777 4.37277 13.9465C6.17433 15.4199 7.96652 15.9199 8.04464 15.941C8.15206 15.9702 8.26534 15.9702 8.37277 15.941C8.45089 15.9199 10.2407 15.4199 12.0446 13.9465C13.7126 12.5777 15.7064 10.0816 15.7064 5.96289V1.58789C15.7064 1.25637 15.5747 0.938428 15.3402 0.704007C15.1058 0.469587 14.7879 0.337891 14.4564 0.337891ZM14.4564 5.96289C14.4564 8.85898 13.3892 11.2098 11.2845 12.9488C10.3683 13.7033 9.32632 14.2904 8.20636 14.6832C7.10105 14.2972 6.07194 13.7205 5.16574 12.9793C3.03605 11.2371 1.95636 8.87695 1.95636 5.96289V1.58789H14.4564V5.96289ZM4.63917 8.28008C4.5219 8.1628 4.45601 8.00374 4.45601 7.83789C4.45601 7.67204 4.5219 7.51298 4.63917 7.3957C4.75645 7.27843 4.91551 7.21254 5.08136 7.21254C5.24721 7.21254 5.40627 7.27843 5.52355 7.3957L6.95636 8.8293L10.8892 4.8957C10.9472 4.83763 11.0162 4.79157 11.092 4.76014C11.1679 4.72872 11.2492 4.71254 11.3314 4.71254C11.4135 4.71254 11.4948 4.72872 11.5707 4.76014C11.6465 4.79157 11.7155 4.83763 11.7735 4.8957C11.8316 4.95377 11.8777 5.02271 11.9091 5.09858C11.9405 5.17445 11.9567 5.25577 11.9567 5.33789C11.9567 5.42001 11.9405 5.50133 11.9091 5.5772C11.8777 5.65307 11.8316 5.72201 11.7735 5.78008L7.39855 10.1551C7.3405 10.2132 7.27157 10.2593 7.1957 10.2907C7.11982 10.3222 7.03849 10.3384 6.95636 10.3384C6.87423 10.3384 6.7929 10.3222 6.71702 10.2907C6.64115 10.2593 6.57222 10.2132 6.51417 10.1551L4.63917 8.28008Z" fill="white"/>
</svg>
