<svg width="17" height="19" viewBox="0 0 17 19" fill="none" xmlns="http://www.w3.org/2000/svg">
<path d="M14.3444 2.91875C13.5968 2.16358 12.7075 1.56329 11.7275 1.15227C10.7476 0.741248 9.69616 0.527558 8.6335 0.523438H8.57178C6.41689 0.523438 4.35027 1.37946 2.82653 2.90319C1.3028 4.42693 0.446777 6.49355 0.446777 8.64844V13.0234C0.446777 13.5207 0.644322 13.9976 0.995952 14.3493C1.34758 14.7009 1.8245 14.8984 2.32178 14.8984H3.57178C4.06906 14.8984 4.54597 14.7009 4.8976 14.3493C5.24923 13.9976 5.44678 13.5207 5.44678 13.0234V9.89844C5.44678 9.40116 5.24923 8.92424 4.8976 8.57261C4.54597 8.22098 4.06906 8.02344 3.57178 8.02344H1.7249C1.84544 6.72026 2.33493 5.47844 3.13602 4.44352C3.9371 3.4086 5.01659 2.62346 6.24795 2.18013C7.47931 1.7368 8.81153 1.65364 10.0885 1.9404C11.3654 2.22716 12.5341 2.87195 13.4577 3.79922C14.5865 4.93383 15.2809 6.42895 15.4194 8.02344H13.5718C13.0745 8.02344 12.5976 8.22098 12.246 8.57261C11.8943 8.92424 11.6968 9.40116 11.6968 9.89844V13.0234C11.6968 13.5207 11.8943 13.9976 12.246 14.3493C12.5976 14.7009 13.0745 14.8984 13.5718 14.8984H15.4468C15.4468 15.3957 15.2492 15.8726 14.8976 16.2243C14.546 16.5759 14.0691 16.7734 13.5718 16.7734H9.19678C9.03102 16.7734 8.87205 16.8393 8.75484 16.9565C8.63763 17.0737 8.57178 17.2327 8.57178 17.3984C8.57178 17.5642 8.63763 17.7232 8.75484 17.8404C8.87205 17.9576 9.03102 18.0234 9.19678 18.0234H13.5718C14.4006 18.0234 15.1954 17.6942 15.7815 17.1081C16.3675 16.5221 16.6968 15.7272 16.6968 14.8984V8.64844C16.7008 7.58561 16.4952 6.53241 16.0915 5.54921C15.6878 4.56601 15.0941 3.67211 14.3444 2.91875ZM3.57178 9.27344C3.73754 9.27344 3.89651 9.33928 4.01372 9.4565C4.13093 9.57371 4.19678 9.73268 4.19678 9.89844V13.0234C4.19678 13.1892 4.13093 13.3482 4.01372 13.4654C3.89651 13.5826 3.73754 13.6484 3.57178 13.6484H2.32178C2.15602 13.6484 1.99705 13.5826 1.87984 13.4654C1.76263 13.3482 1.69678 13.1892 1.69678 13.0234V9.27344H3.57178ZM13.5718 13.6484C13.406 13.6484 13.247 13.5826 13.1298 13.4654C13.0126 13.3482 12.9468 13.1892 12.9468 13.0234V9.89844C12.9468 9.73268 13.0126 9.57371 13.1298 9.4565C13.247 9.33928 13.406 9.27344 13.5718 9.27344H15.4468V13.6484H13.5718Z" fill="white"/>
</svg>
