<svg width="14" height="18" viewBox="0 0 14 18" fill="none" xmlns="http://www.w3.org/2000/svg">
<path d="M10.2064 8.96387C10.2064 9.12963 10.1405 9.2886 10.0233 9.40581C9.90609 9.52302 9.74712 9.58887 9.58136 9.58887H4.58136C4.4156 9.58887 4.25663 9.52302 4.13942 9.40581C4.02221 9.2886 3.95636 9.12963 3.95636 8.96387C3.95636 8.79811 4.02221 8.63914 4.13942 8.52193C4.25663 8.40472 4.4156 8.33887 4.58136 8.33887H9.58136C9.74712 8.33887 9.90609 8.40472 10.0233 8.52193C10.1405 8.63914 10.2064 8.79811 10.2064 8.96387ZM9.58136 10.8389H4.58136C4.4156 10.8389 4.25663 10.9047 4.13942 11.0219C4.02221 11.1391 3.95636 11.2981 3.95636 11.4639C3.95636 11.6296 4.02221 11.7886 4.13942 11.9058C4.25663 12.023 4.4156 12.0889 4.58136 12.0889H9.58136C9.74712 12.0889 9.90609 12.023 10.0233 11.9058C10.1405 11.7886 10.2064 11.6296 10.2064 11.4639C10.2064 11.2981 10.1405 11.1391 10.0233 11.0219C9.90609 10.9047 9.74712 10.8389 9.58136 10.8389ZM13.9564 2.08887V14.5889C13.9564 15.2519 13.693 15.8878 13.2241 16.3566C12.7553 16.8255 12.1194 17.0889 11.4564 17.0889H2.70636C2.04332 17.0889 1.40743 16.8255 0.938593 16.3566C0.469752 15.8878 0.20636 15.2519 0.20636 14.5889V2.08887C0.20636 1.92311 0.272208 1.76414 0.389418 1.64693C0.506628 1.52972 0.6656 1.46387 0.83136 1.46387H2.70636V0.838867C2.70636 0.673107 2.77221 0.514136 2.88942 0.396925C3.00663 0.279715 3.1656 0.213867 3.33136 0.213867C3.49712 0.213867 3.65609 0.279715 3.7733 0.396925C3.89051 0.514136 3.95636 0.673107 3.95636 0.838867V1.46387H6.45636V0.838867C6.45636 0.673107 6.52221 0.514136 6.63942 0.396925C6.75663 0.279715 6.9156 0.213867 7.08136 0.213867C7.24712 0.213867 7.40609 0.279715 7.5233 0.396925C7.64051 0.514136 7.70636 0.673107 7.70636 0.838867V1.46387H10.2064V0.838867C10.2064 0.673107 10.2722 0.514136 10.3894 0.396925C10.5066 0.279715 10.6656 0.213867 10.8314 0.213867C10.9971 0.213867 11.1561 0.279715 11.2733 0.396925C11.3905 0.514136 11.4564 0.673107 11.4564 0.838867V1.46387H13.3314C13.4971 1.46387 13.6561 1.52972 13.7733 1.64693C13.8905 1.76414 13.9564 1.92311 13.9564 2.08887ZM12.7064 2.71387H11.4564V3.33887C11.4564 3.50463 11.3905 3.6636 11.2733 3.78081C11.1561 3.89802 10.9971 3.96387 10.8314 3.96387C10.6656 3.96387 10.5066 3.89802 10.3894 3.78081C10.2722 3.6636 10.2064 3.50463 10.2064 3.33887V2.71387H7.70636V3.33887C7.70636 3.50463 7.64051 3.6636 7.5233 3.78081C7.40609 3.89802 7.24712 3.96387 7.08136 3.96387C6.9156 3.96387 6.75663 3.89802 6.63942 3.78081C6.52221 3.6636 6.45636 3.50463 6.45636 3.33887V2.71387H3.95636V3.33887C3.95636 3.50463 3.89051 3.6636 3.7733 3.78081C3.65609 3.89802 3.49712 3.96387 3.33136 3.96387C3.1656 3.96387 3.00663 3.89802 2.88942 3.78081C2.77221 3.6636 2.70636 3.50463 2.70636 3.33887V2.71387H1.45636V14.5889C1.45636 14.9204 1.58806 15.2383 1.82248 15.4728C2.0569 15.7072 2.37484 15.8389 2.70636 15.8389H11.4564C11.7879 15.8389 12.1058 15.7072 12.3402 15.4728C12.5747 15.2383 12.7064 14.9204 12.7064 14.5889V2.71387Z" fill="white"/>
</svg>
