<svg width="18" height="15" viewBox="0 0 18 15" fill="none" xmlns="http://www.w3.org/2000/svg">
<path d="M16.5 13.625H15.875V1.125C15.875 0.95924 15.8092 0.800269 15.6919 0.683058C15.5747 0.565848 15.4158 0.5 15.25 0.5H10.875C10.7092 0.5 10.5503 0.565848 10.4331 0.683058C10.3158 0.800269 10.25 0.95924 10.25 1.125V4.25H6.5C6.33424 4.25 6.17527 4.31585 6.05806 4.43306C5.94085 4.55027 5.875 4.70924 5.875 4.875V8H2.75C2.58424 8 2.42527 8.06585 2.30806 8.18306C2.19085 8.30027 2.125 8.45924 2.125 8.625V13.625H1.5C1.33424 13.625 1.17527 13.6908 1.05806 13.8081C0.940848 13.9253 0.875 14.0842 0.875 14.25C0.875 14.4158 0.940848 14.5747 1.05806 14.6919C1.17527 14.8092 1.33424 14.875 1.5 14.875H16.5C16.6658 14.875 16.8247 14.8092 16.9419 14.6919C17.0592 14.5747 17.125 14.4158 17.125 14.25C17.125 14.0842 17.0592 13.9253 16.9419 13.8081C16.8247 13.6908 16.6658 13.625 16.5 13.625ZM11.5 1.75H14.625V13.625H11.5V1.75ZM7.125 5.5H10.25V13.625H7.125V5.5ZM3.375 9.25H5.875V13.625H3.375V9.25Z" fill="black"/>
</svg>
