<svg width="30" height="30" viewBox="0 0 30 30" fill="none" xmlns="http://www.w3.org/2000/svg">
<path d="M23.3125 12.625C23.3125 12.9399 23.1874 13.242 22.9647 13.4647C22.742 13.6874 22.4399 13.8125 22.125 13.8125H12.625C12.3101 13.8125 12.008 13.6874 11.7853 13.4647C11.5626 13.242 11.4375 12.9399 11.4375 12.625C11.4375 12.3101 11.5626 12.008 11.7853 11.7853C12.008 11.5626 12.3101 11.4375 12.625 11.4375H22.125C22.4399 11.4375 22.742 11.5626 22.9647 11.7853C23.1874 12.008 23.3125 12.3101 23.3125 12.625ZM22.125 16.1875H12.625C12.3101 16.1875 12.008 16.3126 11.7853 16.5353C11.5626 16.758 11.4375 17.0601 11.4375 17.375C11.4375 17.6899 11.5626 17.992 11.7853 18.2147C12.008 18.4374 12.3101 18.5625 12.625 18.5625H22.125C22.4399 18.5625 22.742 18.4374 22.9647 18.2147C23.1874 17.992 23.3125 17.6899 23.3125 17.375C23.3125 17.0601 23.1874 16.758 22.9647 16.5353C22.742 16.3126 22.4399 16.1875 22.125 16.1875ZM29.25 3.125V26.875C29.25 27.5049 28.9998 28.109 28.5544 28.5544C28.109 28.9998 27.5049 29.25 26.875 29.25H3.125C2.49511 29.25 1.89102 28.9998 1.44562 28.5544C1.00022 28.109 0.75 27.5049 0.75 26.875V3.125C0.75 2.49511 1.00022 1.89102 1.44562 1.44562C1.89102 1.00022 2.49511 0.75 3.125 0.75H26.875C27.5049 0.75 28.109 1.00022 28.5544 1.44562C28.9998 1.89102 29.25 2.49511 29.25 3.125ZM3.125 26.875H6.6875V3.125H3.125V26.875ZM26.875 26.875V3.125H9.0625V26.875H26.875Z" fill="white"/>
</svg>
