<svg width="14" height="14" viewBox="0 0 14 14" fill="none" xmlns="http://www.w3.org/2000/svg">
<path d="M6.05127 7.67481V4.17481C6.05127 4.0422 6.10395 3.91502 6.19772 3.82126C6.29149 3.72749 6.41867 3.67481 6.55127 3.67481C6.68388 3.67481 6.81106 3.72749 6.90483 3.82126C6.9986 3.91502 7.05127 4.0422 7.05127 4.17481V7.67481C7.05127 7.80742 6.9986 7.9346 6.90483 8.02836C6.81106 8.12213 6.68388 8.17481 6.55127 8.17481C6.41867 8.17481 6.29149 8.12213 6.19772 8.02836C6.10395 7.9346 6.05127 7.80742 6.05127 7.67481ZM13.0513 4.89669V9.45293C13.0517 9.5843 13.026 9.71445 12.9757 9.8358C12.9254 9.95715 12.8514 10.0673 12.7581 10.1598L9.53627 13.3817C9.44375 13.4749 9.33361 13.5489 9.21226 13.5992C9.09091 13.6495 8.96077 13.6752 8.8294 13.6748H4.27315C4.14178 13.6752 4.01164 13.6495 3.89029 13.5992C3.76893 13.5489 3.6588 13.4749 3.56627 13.3817L0.3444 10.1598C0.251137 10.0673 0.177196 9.95715 0.126874 9.8358C0.0765527 9.71445 0.0508549 9.5843 0.0512746 9.45293V4.89669C0.0508549 4.76532 0.0765527 4.63517 0.126874 4.51382C0.177196 4.39247 0.251137 4.28233 0.3444 4.18981L3.56627 0.967935C3.6588 0.874672 3.76893 0.800731 3.89029 0.750409C4.01164 0.700088 4.14178 0.67439 4.27315 0.67481H8.8294C8.96077 0.67439 9.09091 0.700088 9.21226 0.750409C9.33361 0.800731 9.44375 0.874672 9.53627 0.967935L12.7581 4.18981C12.8514 4.28233 12.9254 4.39247 12.9757 4.51382C13.026 4.63517 13.0517 4.76532 13.0513 4.89669ZM12.0513 4.89669L8.8294 1.67481H4.27315L1.05127 4.89669V9.45293L4.27315 12.6748H8.8294L12.0513 9.45293V4.89669ZM6.55127 9.17481C6.40294 9.17481 6.25793 9.2188 6.1346 9.30121C6.01126 9.38362 5.91513 9.50075 5.85837 9.6378C5.8016 9.77484 5.78675 9.92564 5.81569 10.0711C5.84462 10.2166 5.91606 10.3503 6.02094 10.4551C6.12583 10.56 6.25947 10.6315 6.40496 10.6604C6.55044 10.6893 6.70124 10.6745 6.83829 10.6177C6.97533 10.561 7.09247 10.4648 7.17488 10.3415C7.25729 10.2182 7.30127 10.0731 7.30127 9.92481C7.30127 9.7259 7.22226 9.53513 7.0816 9.39448C6.94095 9.25383 6.75019 9.17481 6.55127 9.17481Z" fill="#FF0000"/>
</svg>
