<svg width="35" height="35" viewBox="0 0 35 35" fill="none" xmlns="http://www.w3.org/2000/svg">
<rect x="0.15" y="0.15" width="34.7" height="34.7" rx="6.85" stroke="#E2E2E2" stroke-width="0.3"/>
<path d="M23.8628 20.9963C23.5159 20.3988 23.0003 18.7081 23.0003 16.5C23.0003 15.1739 22.4735 13.9021 21.5358 12.9645C20.5981 12.0268 19.3263 11.5 18.0003 11.5C16.6742 11.5 15.4024 12.0268 14.4647 12.9645C13.527 13.9021 13.0003 15.1739 13.0003 16.5C13.0003 18.7087 12.484 20.3988 12.1371 20.9963C12.0485 21.1482 12.0016 21.3207 12.001 21.4966C12.0004 21.6724 12.0462 21.8453 12.1337 21.9978C12.2212 22.1503 12.3474 22.277 12.4996 22.3652C12.6517 22.4534 12.8244 22.4999 13.0003 22.5H15.5509C15.6662 23.0645 15.973 23.5718 16.4193 23.9361C16.8657 24.3004 17.4241 24.4994 18.0003 24.4994C18.5764 24.4994 19.1349 24.3004 19.5812 23.9361C20.0275 23.5718 20.3343 23.0645 20.4496 22.5H23.0003C23.176 22.4998 23.3487 22.4532 23.5007 22.365C23.6528 22.2768 23.7789 22.15 23.8663 21.9975C23.9538 21.845 23.9995 21.6722 23.9989 21.4964C23.9983 21.3206 23.9513 21.1481 23.8628 20.9963ZM18.0003 23.5C17.6901 23.4999 17.3877 23.4037 17.1345 23.2246C16.8813 23.0455 16.6899 22.7924 16.5865 22.5H19.414C19.3106 22.7924 19.1192 23.0455 18.866 23.2246C18.6128 23.4037 18.3104 23.4999 18.0003 23.5ZM13.0003 21.5C13.4815 20.6725 14.0003 18.755 14.0003 16.5C14.0003 15.4391 14.4217 14.4217 15.1718 13.6716C15.922 12.9214 16.9394 12.5 18.0003 12.5C19.0611 12.5 20.0785 12.9214 20.8287 13.6716C21.5788 14.4217 22.0003 15.4391 22.0003 16.5C22.0003 18.7531 22.5178 20.6706 23.0003 21.5H13.0003Z" fill="white"/>
</svg>
