<svg width="14" height="13" viewBox="0 0 14 13" fill="none" xmlns="http://www.w3.org/2000/svg">
<path d="M13.7999 10.7557L8.33431 1.26379C8.19773 1.03124 8.00275 0.838428 7.76869 0.704454C7.53463 0.57048 7.26963 0.5 6.99994 0.5C6.73025 0.5 6.46524 0.57048 6.23118 0.704454C5.99713 0.838428 5.80214 1.03124 5.66556 1.26379L0.199938 10.7557C0.068523 10.9806 -0.000732422 11.2364 -0.000732422 11.4969C-0.000732422 11.7574 0.068523 12.0132 0.199938 12.2382C0.33477 12.4721 0.529419 12.666 0.763914 12.7999C0.998408 12.9338 1.2643 13.0028 1.53431 13H12.4656C12.7354 13.0026 13.001 12.9334 13.2353 12.7996C13.4695 12.6657 13.664 12.4719 13.7987 12.2382C13.9303 12.0134 13.9998 11.7576 14 11.4971C14.0002 11.2366 13.9312 10.9807 13.7999 10.7557ZM12.9331 11.7375C12.8854 11.8188 12.817 11.886 12.7349 11.9321C12.6527 11.9782 12.5598 12.0017 12.4656 12H1.53431C1.44011 12.0017 1.34717 11.9782 1.26502 11.9321C1.18287 11.886 1.11446 11.8188 1.06681 11.7375C1.02365 11.6645 1.00089 11.5812 1.00089 11.4963C1.00089 11.4114 1.02365 11.3281 1.06681 11.255L6.53244 1.76317C6.58105 1.68227 6.64976 1.61534 6.7319 1.56887C6.81405 1.5224 6.90681 1.49797 7.00119 1.49797C7.09556 1.49797 7.18833 1.5224 7.27047 1.56887C7.35261 1.61534 7.42133 1.68227 7.46994 1.76317L12.9356 11.255C12.9783 11.3283 13.0007 11.4118 13.0002 11.4966C12.9998 11.5815 12.9766 11.6647 12.9331 11.7375ZM6.49994 8.00004V5.50004C6.49994 5.36743 6.55262 5.24026 6.64638 5.14649C6.74015 5.05272 6.86733 5.00004 6.99994 5.00004C7.13255 5.00004 7.25972 5.05272 7.35349 5.14649C7.44726 5.24026 7.49994 5.36743 7.49994 5.50004V8.00004C7.49994 8.13265 7.44726 8.25983 7.35349 8.35359C7.25972 8.44736 7.13255 8.50004 6.99994 8.50004C6.86733 8.50004 6.74015 8.44736 6.64638 8.35359C6.55262 8.25983 6.49994 8.13265 6.49994 8.00004ZM7.74994 10.25C7.74994 10.3984 7.70595 10.5434 7.62354 10.6667C7.54113 10.7901 7.42399 10.8862 7.28695 10.943C7.14991 10.9997 6.99911 11.0146 6.85362 10.9856C6.70813 10.9567 6.5745 10.8853 6.46961 10.7804C6.36472 10.6755 6.29329 10.5418 6.26435 10.3964C6.23541 10.2509 6.25026 10.1001 6.30703 9.96303C6.36379 9.82598 6.45992 9.70885 6.58326 9.62644C6.7066 9.54403 6.8516 9.50004 6.99994 9.50004C7.19885 9.50004 7.38962 9.57906 7.53027 9.71971C7.67092 9.86036 7.74994 10.0511 7.74994 10.25Z" fill="black"/>
</svg>
