<svg width="25" height="25" viewBox="0 0 25 25" fill="none" xmlns="http://www.w3.org/2000/svg">
<path d="M14.9067 2.38218C14.9385 2.26321 14.9934 2.15166 15.0684 2.05393C15.1433 1.9562 15.2368 1.87419 15.3434 1.8126C15.4501 1.751 15.5678 1.71102 15.6899 1.69494C15.8121 1.67887 15.9361 1.68701 16.0551 1.7189C17.7931 2.17236 19.3787 3.08091 20.6488 4.35098C21.9189 5.62105 22.8274 7.20672 23.2809 8.94468C23.3128 9.06364 23.3209 9.18772 23.3048 9.30983C23.2888 9.43194 23.2488 9.54968 23.1872 9.65633C23.1256 9.76298 23.0436 9.85645 22.9458 9.9314C22.8481 10.0063 22.7366 10.0613 22.6176 10.0931C22.5384 10.1139 22.4569 10.1246 22.375 10.1248C22.1684 10.1248 21.9676 10.0565 21.8038 9.93063C21.64 9.80476 21.5223 9.62829 21.4692 9.42867C21.0993 8.00991 20.3578 6.71544 19.3211 5.6787C18.2843 4.64195 16.9899 3.90045 15.5711 3.53062C15.452 3.49892 15.3404 3.44406 15.2425 3.36917C15.1446 3.29428 15.0625 3.20082 15.0008 3.09416C14.9391 2.9875 14.899 2.86971 14.8828 2.74754C14.8667 2.62538 14.8748 2.50122 14.9067 2.38218ZM14.6336 7.28062C16.2496 7.71187 17.2879 8.75015 17.7192 10.3662C17.7723 10.5658 17.89 10.7423 18.0538 10.8681C18.2176 10.994 18.4184 11.0623 18.625 11.0623C18.7069 11.0621 18.7884 11.0514 18.8676 11.0306C18.9866 10.9988 19.0981 10.9438 19.1958 10.8689C19.2936 10.794 19.3756 10.7005 19.4372 10.5938C19.4988 10.4872 19.5388 10.3694 19.5548 10.2473C19.5709 10.1252 19.5628 10.0011 19.5309 9.88218C18.9309 7.63687 17.3629 6.0689 15.1176 5.4689C14.8773 5.40472 14.6214 5.43861 14.4062 5.56311C14.1909 5.68761 14.0339 5.89252 13.9697 6.13277C13.9056 6.37302 13.9394 6.62892 14.0639 6.84419C14.1884 7.05945 14.3934 7.21644 14.6336 7.28062ZM24.2359 18.4545C24.027 20.0424 23.2472 21.4999 22.0421 22.5549C20.837 23.6099 19.2891 24.1901 17.6875 24.1873C8.38282 24.1873 0.812511 16.617 0.812511 7.31226C0.80964 5.71065 1.38988 4.16276 2.44485 2.95769C3.49983 1.75262 4.9574 0.972779 6.54532 0.763825C6.94687 0.714795 7.35351 0.796945 7.70453 0.998011C8.05555 1.19908 8.33213 1.50828 8.49298 1.87945L10.968 7.40484V7.4189C11.0911 7.70303 11.142 8.01323 11.116 8.32181C11.09 8.63038 10.9881 8.92772 10.8192 9.18726C10.7981 9.2189 10.7758 9.2482 10.7524 9.2775L8.31251 12.1697C9.19024 13.9533 11.0559 15.8025 12.8629 16.6826L15.7152 14.2556C15.7433 14.2321 15.7726 14.2102 15.8031 14.19C16.0625 14.017 16.3608 13.9115 16.6712 13.8828C16.9816 13.8542 17.2943 13.9034 17.5809 14.0259L17.5961 14.033L23.1168 16.5068C23.4886 16.6671 23.7986 16.9434 24.0003 17.2945C24.202 17.6456 24.2847 18.0525 24.2359 18.4545ZM22.375 18.2201C22.375 18.2201 22.3668 18.2201 22.3621 18.2201L16.8543 15.7533L14.0008 18.1802C13.9731 18.2037 13.9442 18.2256 13.9141 18.2459C13.6443 18.4259 13.3324 18.5328 13.0089 18.5562C12.6853 18.5796 12.3613 18.5187 12.0684 18.3794C9.87345 17.3189 7.68556 15.1474 6.62384 12.9759C6.48325 12.6851 6.42016 12.363 6.44069 12.0406C6.46122 11.7183 6.56468 11.4067 6.74103 11.1361C6.7609 11.1043 6.78324 11.0741 6.80782 11.0459L9.25001 8.15015L6.78907 2.64234C6.78861 2.63767 6.78861 2.63295 6.78907 2.62828C5.65265 2.77652 4.60924 3.33394 3.85424 4.19615C3.09924 5.05836 2.68444 6.16622 2.68751 7.31226C2.69185 11.2892 4.2736 15.102 7.0857 17.9141C9.89781 20.7262 13.7106 22.3079 17.6875 22.3123C18.8329 22.3162 19.9404 21.9028 20.8031 21.1495C21.6658 20.3961 22.2246 19.3543 22.375 18.2189V18.2201Z" fill="black"/>
</svg>
