<svg width="35" height="30" viewBox="0 0 35 30" fill="none" xmlns="http://www.w3.org/2000/svg">
<path d="M30.3125 3.96875H25.873L23.69 0.695156C23.5731 0.519868 23.4147 0.37613 23.2289 0.276677C23.0432 0.177224 22.8357 0.125127 22.625 0.125H12.375C12.1643 0.125127 11.9568 0.177224 11.7711 0.276677C11.5853 0.37613 11.4269 0.519868 11.31 0.695156L9.12543 3.96875H4.6875C3.66807 3.96875 2.6904 4.37372 1.96956 5.09456C1.24872 5.8154 0.84375 6.79307 0.84375 7.8125V25.75C0.84375 26.7694 1.24872 27.7471 1.96956 28.4679C2.6904 29.1888 3.66807 29.5938 4.6875 29.5938H30.3125C31.3319 29.5938 32.3096 29.1888 33.0304 28.4679C33.7513 27.7471 34.1562 26.7694 34.1562 25.75V7.8125C34.1562 6.79307 33.7513 5.8154 33.0304 5.09456C32.3096 4.37372 31.3319 3.96875 30.3125 3.96875ZM31.5938 25.75C31.5938 26.0898 31.4588 26.4157 31.2185 26.656C30.9782 26.8963 30.6523 27.0312 30.3125 27.0312H4.6875C4.34769 27.0312 4.0218 26.8963 3.78152 26.656C3.54124 26.4157 3.40625 26.0898 3.40625 25.75V7.8125C3.40625 7.47269 3.54124 7.1468 3.78152 6.90652C4.0218 6.66624 4.34769 6.53125 4.6875 6.53125H9.8125C10.0235 6.53139 10.2313 6.47942 10.4173 6.37995C10.6034 6.28049 10.762 6.13661 10.8791 5.96109L13.0605 2.6875H21.9379L24.1209 5.96109C24.238 6.13661 24.3966 6.28049 24.5827 6.37995C24.7687 6.47942 24.9765 6.53139 25.1875 6.53125H30.3125C30.6523 6.53125 30.9782 6.66624 31.2185 6.90652C31.4588 7.1468 31.5938 7.47269 31.5938 7.8125V25.75ZM17.5 9.09375C16.1063 9.09375 14.7438 9.50704 13.585 10.2814C12.4261 11.0557 11.5229 12.1563 10.9895 13.4439C10.4562 14.7316 10.3166 16.1484 10.5885 17.5154C10.8604 18.8824 11.5316 20.138 12.5171 21.1235C13.5026 22.109 14.7583 22.7802 16.1252 23.0521C17.4922 23.324 18.9091 23.1845 20.1967 22.6511C21.4844 22.1177 22.5849 21.2145 23.3593 20.0557C24.1336 18.8968 24.5469 17.5344 24.5469 16.1406C24.5448 14.2723 23.8016 12.4812 22.4806 11.1601C21.1595 9.83899 19.3683 9.09587 17.5 9.09375ZM17.5 20.625C16.6131 20.625 15.7461 20.362 15.0086 19.8692C14.2712 19.3765 13.6964 18.6761 13.357 17.8567C13.0176 17.0373 12.9288 16.1357 13.1018 15.2658C13.2748 14.3959 13.7019 13.5968 14.3291 12.9697C14.9562 12.3425 15.7553 11.9154 16.6251 11.7424C17.495 11.5694 18.3967 11.6582 19.2161 11.9976C20.0355 12.337 20.7359 12.9118 21.2286 13.6492C21.7214 14.3867 21.9844 15.2537 21.9844 16.1406C21.9844 17.33 21.5119 18.4706 20.6709 19.3116C19.83 20.1525 18.6893 20.625 17.5 20.625Z" fill="black" fill-opacity="0.5"/>
</svg>
