<svg width="10" height="10" viewBox="0 0 10 10" fill="none" xmlns="http://www.w3.org/2000/svg">
<path d="M9.36367 2.89609L8.36211 6.50078C8.30704 6.69769 8.18926 6.87127 8.02664 6.9952C7.86401 7.11913 7.6654 7.18664 7.46094 7.1875H3.6C3.39493 7.18741 3.19553 7.12025 3.03219 6.99626C2.86885 6.87228 2.75054 6.69827 2.69531 6.50078L1.325 1.5625H0.625C0.54212 1.5625 0.462634 1.52958 0.404029 1.47097C0.345424 1.41237 0.3125 1.33288 0.3125 1.25C0.3125 1.16712 0.345424 1.08763 0.404029 1.02903C0.462634 0.970424 0.54212 0.9375 0.625 0.9375H1.5625C1.63082 0.937487 1.69726 0.959864 1.75166 1.00121C1.80605 1.04255 1.8454 1.10058 1.86367 1.16641L2.23398 2.5H9.0625C9.11068 2.49999 9.1582 2.51112 9.20137 2.53252C9.24453 2.55392 9.28216 2.58501 9.31132 2.62336C9.34048 2.6617 9.36038 2.70628 9.36946 2.75359C9.37854 2.8009 9.37656 2.84967 9.36367 2.89609ZM3.4375 7.8125C3.31389 7.8125 3.19305 7.84916 3.09027 7.91783C2.98749 7.98651 2.90738 8.08412 2.86008 8.19832C2.81277 8.31253 2.80039 8.43819 2.82451 8.55943C2.84862 8.68067 2.90815 8.79203 2.99556 8.87944C3.08297 8.96685 3.19433 9.02637 3.31557 9.05049C3.43681 9.07461 3.56247 9.06223 3.67668 9.01493C3.79088 8.96762 3.88849 8.88751 3.95717 8.78473C4.02584 8.68195 4.0625 8.56111 4.0625 8.4375C4.0625 8.27174 3.99665 8.11277 3.87944 7.99556C3.76223 7.87835 3.60326 7.8125 3.4375 7.8125ZM7.5 7.8125C7.37639 7.8125 7.25555 7.84916 7.15277 7.91783C7.04999 7.98651 6.96988 8.08412 6.92257 8.19832C6.87527 8.31253 6.86289 8.43819 6.88701 8.55943C6.91112 8.68067 6.97065 8.79203 7.05806 8.87944C7.14547 8.96685 7.25683 9.02637 7.37807 9.05049C7.49931 9.07461 7.62497 9.06223 7.73918 9.01493C7.85338 8.96762 7.95099 8.88751 8.01967 8.78473C8.08834 8.68195 8.125 8.56111 8.125 8.4375C8.125 8.27174 8.05915 8.11277 7.94194 7.99556C7.82473 7.87835 7.66576 7.8125 7.5 7.8125Z" fill="white"/>
</svg>
