<svg width="38" height="38" viewBox="0 0 38 38" fill="none" xmlns="http://www.w3.org/2000/svg">
<path d="M34.4375 30.875C34.4375 31.1899 34.3124 31.492 34.0897 31.7147C33.867 31.9374 33.5649 32.0625 33.25 32.0625H4.75C4.43506 32.0625 4.13301 31.9374 3.91031 31.7147C3.68761 31.492 3.5625 31.1899 3.5625 30.875V7.125C3.5625 6.81006 3.68761 6.50801 3.91031 6.28531C4.13301 6.06261 4.43506 5.9375 4.75 5.9375C5.06494 5.9375 5.36699 6.06261 5.58969 6.28531C5.81239 6.50801 5.9375 6.81006 5.9375 7.125V23.2587L13.4098 15.7848C13.5201 15.6744 13.6511 15.5868 13.7953 15.5271C13.9394 15.4673 14.0939 15.4366 14.25 15.4366C14.4061 15.4366 14.5606 15.4673 14.7047 15.5271C14.8489 15.5868 14.9799 15.6744 15.0902 15.7848L19 19.6962L26.8212 11.875H23.75C23.4351 11.875 23.133 11.7499 22.9103 11.5272C22.6876 11.3045 22.5625 11.0024 22.5625 10.6875C22.5625 10.3726 22.6876 10.0705 22.9103 9.84781C23.133 9.62511 23.4351 9.5 23.75 9.5H29.6875C30.0024 9.5 30.3045 9.62511 30.5272 9.84781C30.7499 10.0705 30.875 10.3726 30.875 10.6875V16.625C30.875 16.9399 30.7499 17.242 30.5272 17.4647C30.3045 17.6874 30.0024 17.8125 29.6875 17.8125C29.3726 17.8125 29.0705 17.6874 28.8478 17.4647C28.6251 17.242 28.5 16.9399 28.5 16.625V13.5538L19.8402 22.2152C19.7299 22.3256 19.5989 22.4132 19.4547 22.4729C19.3106 22.5327 19.1561 22.5634 19 22.5634C18.8439 22.5634 18.6894 22.5327 18.5453 22.4729C18.4011 22.4132 18.2701 22.3256 18.1598 22.2152L14.25 18.3038L5.9375 26.6163V29.6875H33.25C33.5649 29.6875 33.867 29.8126 34.0897 30.0353C34.3124 30.258 34.4375 30.5601 34.4375 30.875Z" fill="white"/>
</svg>
