<svg width="38" height="38" viewBox="0 0 38 38" fill="none" xmlns="http://www.w3.org/2000/svg">
<path d="M19 3.5625C16.3348 3.56192 13.7148 4.25138 11.395 5.56378C9.07531 6.87617 7.13488 8.7668 5.76261 11.0516C4.39034 13.3364 3.63299 15.9376 3.56428 18.602C3.49556 21.2663 4.11782 23.9031 5.37048 26.2556L3.68572 31.3099C3.54616 31.7284 3.52591 32.1775 3.62723 32.6068C3.72855 33.0361 3.94743 33.4287 4.25935 33.7407C4.57128 34.0526 4.9639 34.2715 5.39323 34.3728C5.82256 34.4741 6.27162 34.4538 6.69009 34.3143L11.7444 32.6295C13.8147 33.7307 16.1088 34.3458 18.4523 34.428C20.7959 34.5102 23.1274 34.0575 25.2698 33.1041C27.4123 32.1508 29.3094 30.7219 30.8171 28.9258C32.3249 27.1298 33.4037 25.0139 33.9716 22.7387C34.5395 20.4636 34.5817 18.0889 34.0948 15.795C33.608 13.5011 32.6049 11.3482 31.1618 9.49988C29.7187 7.6515 27.8735 6.15618 25.7662 5.12741C23.659 4.09864 21.345 3.56346 19 3.5625ZM19 32.0625C16.7037 32.0641 14.4476 31.4593 12.4599 30.3095C12.3143 30.2251 12.1525 30.1725 11.9852 30.1554C11.8178 30.1383 11.6487 30.1569 11.4891 30.21L5.93751 32.0625L7.78853 26.5109C7.84189 26.3514 7.86074 26.1824 7.84385 26.015C7.82696 25.8477 7.77471 25.6858 7.69056 25.5402C6.25067 23.0507 5.67256 20.1557 6.04592 17.3042C6.41927 14.4527 7.72321 11.8041 9.75546 9.76925C11.7877 7.73444 14.4347 6.42715 17.2857 6.0502C20.1367 5.67325 23.0325 6.2477 25.5237 7.68444C28.015 9.12118 29.9625 11.3399 31.0641 13.9964C32.1657 16.6529 32.3598 19.5987 31.6164 22.3768C30.8729 25.1549 29.2335 27.61 26.9523 29.3613C24.6712 31.1125 21.8759 32.062 19 32.0625Z" fill="white"/>
</svg>
