<svg width="26" height="26" viewBox="0 0 26 26" fill="none" xmlns="http://www.w3.org/2000/svg">
<path d="M13.0007 0.8125C10.8966 0.812041 8.82815 1.35635 6.99678 2.39246C5.16542 3.42856 3.6335 4.92115 2.55013 6.72496C1.46676 8.52877 0.86885 10.5823 0.814599 12.6858C0.760349 14.7892 1.2516 16.8709 2.24055 18.7281L0.910473 22.7184C0.800298 23.0487 0.78431 23.4033 0.864298 23.7422C0.944287 24.0811 1.11709 24.3911 1.36335 24.6374C1.6096 24.8836 1.91957 25.0564 2.25851 25.1364C2.59746 25.2164 2.95198 25.2004 3.28235 25.0902L7.27258 23.7602C8.90708 24.6295 10.7181 25.1151 12.5683 25.18C14.4185 25.2449 16.2591 24.8875 17.9506 24.1348C19.642 23.3822 21.1397 22.2541 22.33 20.8362C23.5204 19.4183 24.372 17.7478 24.8204 15.9516C25.2687 14.1554 25.302 12.2807 24.9177 10.4697C24.5333 8.65876 23.7414 6.95914 22.6021 5.4999C21.4629 4.04066 20.0061 2.86014 18.3425 2.04795C16.6788 1.23577 14.852 0.81326 13.0007 0.8125ZM13.0007 23.3125C11.1878 23.3137 9.40668 22.8363 7.83743 21.9285C7.72253 21.8619 7.59479 21.8204 7.46266 21.8069C7.33053 21.7934 7.19704 21.8081 7.07102 21.85L2.68821 23.3125L4.14954 18.9297C4.19166 18.8038 4.20655 18.6703 4.19321 18.5382C4.17988 18.406 4.13863 18.2783 4.07219 18.1633C2.93544 16.1979 2.47904 13.9124 2.77379 11.6612C3.06854 9.41001 4.09797 7.319 5.70237 5.71257C7.30678 4.10613 9.39648 3.07407 11.6473 2.77647C13.8981 2.47888 16.1842 2.93239 18.151 4.06666C20.1178 5.20093 21.6553 6.95255 22.525 9.04979C23.3946 11.147 23.5479 13.4727 22.961 15.6659C22.3741 17.8591 21.0798 19.7974 19.2788 21.1799C17.4779 22.5625 15.2711 23.3121 13.0007 23.3125Z" fill="black"/>
</svg>
