<svg width="24" height="24" viewBox="0 0 24 24" fill="none" xmlns="http://www.w3.org/2000/svg">
<path d="M12 12.885L16.0575 16.9425C16.1742 17.0592 16.3175 17.1217 16.4875 17.13C16.6575 17.1383 16.8092 17.0758 16.9425 16.9425C17.0758 16.8092 17.1425 16.6617 17.1425 16.5C17.1425 16.3383 17.0758 16.1908 16.9425 16.0575L12.885 12L16.9425 7.9425C17.0592 7.82583 17.1217 7.6825 17.13 7.5125C17.1383 7.3425 17.0758 7.19083 16.9425 7.0575C16.8092 6.92417 16.6617 6.8575 16.5 6.8575C16.3383 6.8575 16.1908 6.92417 16.0575 7.0575L12 11.115L7.9425 7.0575C7.82583 6.94083 7.6825 6.87833 7.5125 6.87C7.3425 6.86167 7.19083 6.92417 7.0575 7.0575C6.92417 7.19083 6.8575 7.33833 6.8575 7.5C6.8575 7.66167 6.92417 7.80917 7.0575 7.9425L11.115 12L7.0575 16.0575C6.94083 16.1742 6.87833 16.3179 6.87 16.4887C6.86167 16.6579 6.92417 16.8092 7.0575 16.9425C7.19083 17.0758 7.33833 17.1425 7.5 17.1425C7.66167 17.1425 7.80917 17.0758 7.9425 16.9425L12 12.885ZM12.0037 23.25C10.4479 23.25 8.98542 22.955 7.61625 22.365C6.24708 21.7742 5.05583 20.9725 4.0425 19.96C3.02917 18.9475 2.22708 17.7575 1.63625 16.39C1.04542 15.0225 0.75 13.5604 0.75 12.0037C0.75 10.4471 1.04542 8.98458 1.63625 7.61625C2.22625 6.24708 3.02667 5.05583 4.0375 4.0425C5.04833 3.02917 6.23875 2.22708 7.60875 1.63625C8.97875 1.04542 10.4412 0.75 11.9963 0.75C13.5512 0.75 15.0138 1.04542 16.3837 1.63625C17.7529 2.22625 18.9442 3.02708 19.9575 4.03875C20.9708 5.05042 21.7729 6.24083 22.3638 7.61C22.9546 8.97917 23.25 10.4412 23.25 11.9963C23.25 13.5512 22.955 15.0138 22.365 16.3837C21.775 17.7537 20.9733 18.945 19.96 19.9575C18.9467 20.97 17.7567 21.7721 16.39 22.3638C15.0233 22.9554 13.5613 23.2508 12.0037 23.25ZM12 22C14.7917 22 17.1562 21.0312 19.0938 19.0938C21.0312 17.1562 22 14.7917 22 12C22 9.20833 21.0312 6.84375 19.0938 4.90625C17.1562 2.96875 14.7917 2 12 2C9.20833 2 6.84375 2.96875 4.90625 4.90625C2.96875 6.84375 2 9.20833 2 12C2 14.7917 2.96875 17.1562 4.90625 19.0938C6.84375 21.0312 9.20833 22 12 22Z" fill="black"/>
</svg>
