<svg width="32" height="32" viewBox="0 0 32 32" fill="none" xmlns="http://www.w3.org/2000/svg">
<path d="M16 0.5625C13.3348 0.561919 10.7148 1.25138 8.39504 2.56378C6.07531 3.87617 4.13488 5.7668 2.76261 8.05162C1.39034 10.3364 0.632993 12.9376 0.564276 15.602C0.495559 18.2663 1.11782 20.9031 2.37048 23.2556L0.685716 28.3099C0.546162 28.7284 0.525909 29.1775 0.627228 29.6068C0.728547 30.0361 0.947434 30.4287 1.25935 30.7407C1.57128 31.0526 1.9639 31.2715 2.39323 31.3728C2.82256 31.4741 3.27162 31.4538 3.69009 31.3143L8.74439 29.6295C10.8147 30.7307 13.1088 31.3458 15.4523 31.428C17.7959 31.5102 20.1274 31.0575 22.2698 30.1041C24.4123 29.1508 26.3094 27.7219 27.8171 25.9258C29.3249 24.1298 30.4037 22.0139 30.9716 19.7387C31.5395 17.4636 31.5817 15.0889 31.0948 12.795C30.608 10.5011 29.6049 8.34825 28.1618 6.49988C26.7187 4.6515 24.8735 3.15618 22.7662 2.12741C20.659 1.09864 18.345 0.563462 16 0.5625ZM16 29.0625C13.7037 29.0641 11.4476 28.4593 9.45986 27.3095C9.31432 27.2251 9.15251 27.1725 8.98515 27.1554C8.81779 27.1383 8.6487 27.1569 8.48908 27.21L2.93751 29.0625L4.78853 23.5109C4.84189 23.3514 4.86074 23.1824 4.84385 23.015C4.82696 22.8477 4.77471 22.6858 4.69056 22.5402C3.25067 20.0507 2.67256 17.1557 3.04592 14.3042C3.41927 11.4527 4.72321 8.80407 6.75546 6.76925C8.78771 4.73444 11.4347 3.42715 14.2857 3.0502C17.1367 2.67325 20.0325 3.2477 22.5237 4.68444C25.015 6.12118 26.9625 8.33989 28.0641 10.9964C29.1657 13.6529 29.3598 16.5987 28.6164 19.3768C27.8729 22.1549 26.2335 24.61 23.9523 26.3613C21.6712 28.1125 18.8759 29.062 16 29.0625Z" fill="white"/>
</svg>
