<svg width="26" height="26" viewBox="0 0 26 26" fill="none" xmlns="http://www.w3.org/2000/svg">
<path d="M12.9988 0.8125C10.8946 0.812041 8.8262 1.35635 6.99483 2.39246C5.16347 3.42856 3.63154 4.92115 2.54817 6.72496C1.4648 8.52877 0.866896 10.5823 0.812646 12.6858C0.758396 14.7892 1.24965 16.8709 2.2386 18.7281L0.90852 22.7184C0.798345 23.0487 0.782356 23.4033 0.862345 23.7422C0.942334 24.0811 1.11514 24.3911 1.36139 24.6374C1.60765 24.8836 1.91762 25.0564 2.25656 25.1364C2.5955 25.2164 2.95003 25.2004 3.28039 25.0902L7.27063 23.7602C8.90512 24.6295 10.7162 25.1151 12.5664 25.18C14.4165 25.2449 16.2572 24.8875 17.9486 24.1348C19.64 23.3822 21.1377 22.2541 22.3281 20.8362C23.5184 19.4183 24.3701 17.7478 24.8184 15.9516C25.2668 14.1554 25.3001 12.2807 24.9157 10.4697C24.5314 8.65876 23.7395 6.95914 22.6002 5.4999C21.4609 4.04066 20.0042 2.86014 18.3405 2.04795C16.6769 1.23577 14.8501 0.81326 12.9988 0.8125ZM12.9988 23.3125C11.1858 23.3137 9.40473 22.8363 7.83547 21.9285C7.72058 21.8619 7.59283 21.8204 7.46071 21.8069C7.32858 21.7934 7.19509 21.8081 7.06907 21.85L2.68625 23.3125L4.14758 18.9297C4.18971 18.8038 4.20459 18.6703 4.19126 18.5382C4.17793 18.406 4.13668 18.2783 4.07024 18.1633C2.93349 16.1979 2.47708 13.9124 2.77183 11.6612C3.06659 9.41001 4.09601 7.319 5.70042 5.71257C7.30483 4.10613 9.39453 3.07407 11.6453 2.77647C13.8962 2.47888 16.1823 2.93239 18.1491 4.06666C20.1158 5.20093 21.6533 6.95255 22.523 9.04979C23.3927 11.147 23.5459 13.4727 22.959 15.6659C22.3721 17.8591 21.0778 19.7974 19.2769 21.1799C17.476 22.5625 15.2692 23.3121 12.9988 23.3125Z" fill="black"/>
</svg>
