<svg width="34" height="30" viewBox="0 0 34 30" fill="none" xmlns="http://www.w3.org/2000/svg">
<path d="M22.3438 8.875C23.1658 8.875 23.9693 8.63124 24.6528 8.17455C25.3363 7.71785 25.869 7.06874 26.1836 6.30928C26.4982 5.54982 26.5805 4.71414 26.4201 3.90791C26.2598 3.10167 25.8639 2.3611 25.2827 1.77984C24.7014 1.19858 23.9608 0.802733 23.1546 0.642363C22.3484 0.481993 21.5127 0.564301 20.7532 0.878878C19.9938 1.19345 19.3447 1.72617 18.888 2.40966C18.4313 3.09316 18.1875 3.89672 18.1875 4.71875C18.1875 5.82106 18.6254 6.87822 19.4048 7.65766C20.1843 8.43711 21.2414 8.875 22.3438 8.875ZM22.3438 2.9375C22.6961 2.9375 23.0404 3.04197 23.3334 3.2377C23.6263 3.43342 23.8546 3.71162 23.9894 4.0371C24.1242 4.36258 24.1595 4.72073 24.0908 5.06626C24.022 5.41179 23.8524 5.72917 23.6033 5.97829C23.3542 6.2274 23.0368 6.39705 22.6913 6.46578C22.3457 6.53451 21.9876 6.49923 21.6621 6.36441C21.3366 6.22959 21.0584 6.00129 20.8627 5.70836C20.667 5.41544 20.5625 5.07105 20.5625 4.71875C20.5625 4.24634 20.7502 3.79327 21.0842 3.45922C21.4183 3.12517 21.8713 2.9375 22.3438 2.9375ZM27.6875 17.1875C26.5132 17.1875 25.3652 17.5357 24.3888 18.1882C23.4124 18.8406 22.6514 19.7679 22.202 20.8528C21.7526 21.9378 21.635 23.1316 21.8641 24.2834C22.0932 25.4351 22.6587 26.4931 23.4891 27.3234C24.3194 28.1538 25.3774 28.7193 26.5292 28.9484C27.6809 29.1775 28.8748 29.0599 29.9597 28.6105C31.0446 28.1611 31.9719 27.4001 32.6244 26.4237C33.2768 25.4473 33.625 24.2993 33.625 23.125C33.625 21.5503 32.9994 20.0401 31.8859 18.9266C30.7725 17.8131 29.2622 17.1875 27.6875 17.1875ZM27.6875 26.6875C26.9829 26.6875 26.2941 26.4786 25.7083 26.0871C25.1224 25.6957 24.6658 25.1393 24.3962 24.4883C24.1265 23.8374 24.056 23.121 24.1935 22.43C24.3309 21.7389 24.6702 21.1042 25.1684 20.6059C25.6667 20.1077 26.3014 19.7684 26.9925 19.631C27.6835 19.4935 28.3999 19.564 29.0508 19.8337C29.7018 20.1033 30.2582 20.5599 30.6496 21.1458C31.0411 21.7316 31.25 22.4204 31.25 23.125C31.25 24.0698 30.8747 24.976 30.2066 25.6441C29.5385 26.3122 28.6323 26.6875 27.6875 26.6875ZM6.3125 17.1875C5.13818 17.1875 3.99022 17.5357 3.0138 18.1882C2.03739 18.8406 1.27636 19.7679 0.826968 20.8528C0.377573 21.9378 0.25999 23.1316 0.48909 24.2834C0.71819 25.4351 1.28368 26.4931 2.11406 27.3234C2.94443 28.1538 4.00239 28.7193 5.15415 28.9484C6.30592 29.1775 7.49975 29.0599 8.58469 28.6105C9.66962 28.1611 10.5969 27.4001 11.2494 26.4237C11.9018 25.4473 12.25 24.2993 12.25 23.125C12.25 22.3453 12.0964 21.5732 11.798 20.8528C11.4997 20.1324 11.0623 19.4779 10.5109 18.9266C9.9596 18.3752 9.30506 17.9379 8.58469 17.6395C7.86431 17.3411 7.09223 17.1875 6.3125 17.1875ZM6.3125 26.6875C5.60791 26.6875 4.91913 26.4786 4.33328 26.0871C3.74743 25.6957 3.29082 25.1393 3.02118 24.4883C2.75154 23.8374 2.681 23.121 2.81846 22.43C2.95591 21.7389 3.29521 21.1042 3.79343 20.6059C4.29166 20.1077 4.92644 19.7684 5.61749 19.631C6.30855 19.4935 7.02485 19.564 7.67581 19.8337C8.32677 20.1033 8.88316 20.5599 9.27461 21.1458C9.66607 21.7316 9.875 22.4204 9.875 23.125C9.875 24.0698 9.49967 24.976 8.83157 25.6441C8.16347 26.3122 7.25734 26.6875 6.3125 26.6875ZM26.5 14.8125H20.5625C20.4065 14.8126 20.252 14.782 20.1079 14.7224C19.9637 14.6628 19.8327 14.5754 19.7223 14.4652L15.8125 10.5538L12.7413 13.625L17.8402 18.7223C17.9504 18.8327 18.0378 18.9637 18.0974 19.1079C18.157 19.252 18.1876 19.4065 18.1875 19.5625V26.6875C18.1875 27.0024 18.0624 27.3045 17.8397 27.5272C17.617 27.7499 17.3149 27.875 17 27.875C16.6851 27.875 16.383 27.7499 16.1603 27.5272C15.9376 27.3045 15.8125 27.0024 15.8125 26.6875V20.0538L10.2223 14.4652C10.1119 14.3549 10.0243 14.2239 9.96459 14.0797C9.90483 13.9356 9.87407 13.7811 9.87407 13.625C9.87407 13.4689 9.90483 13.3144 9.96459 13.1703C10.0243 13.0261 10.1119 12.8951 10.2223 12.7848L14.9723 8.03484C15.0826 7.92444 15.2136 7.83685 15.3578 7.77709C15.5019 7.71733 15.6564 7.68657 15.8125 7.68657C15.9686 7.68657 16.1231 7.71733 16.2672 7.77709C16.4114 7.83685 16.5424 7.92444 16.6527 8.03484L21.0538 12.4375H26.5C26.8149 12.4375 27.117 12.5626 27.3397 12.7853C27.5624 13.008 27.6875 13.3101 27.6875 13.625C27.6875 13.9399 27.5624 14.242 27.3397 14.4647C27.117 14.6874 26.8149 14.8125 26.5 14.8125Z" fill="white"/>
</svg>
