<svg width="19" height="20" viewBox="0 0 19 20" fill="none" xmlns="http://www.w3.org/2000/svg">
<path d="M17.75 3.5H14V2.75C14 2.15326 13.7629 1.58097 13.341 1.15901C12.919 0.737053 12.3467 0.5 11.75 0.5H7.25C6.65326 0.5 6.08097 0.737053 5.65901 1.15901C5.23705 1.58097 5 2.15326 5 2.75V3.5H1.25C1.05109 3.5 0.860322 3.57902 0.71967 3.71967C0.579018 3.86032 0.5 4.05109 0.5 4.25C0.5 4.44891 0.579018 4.63968 0.71967 4.78033C0.860322 4.92098 1.05109 5 1.25 5H2V18.5C2 18.8978 2.15804 19.2794 2.43934 19.5607C2.72064 19.842 3.10218 20 3.5 20H15.5C15.8978 20 16.2794 19.842 16.5607 19.5607C16.842 19.2794 17 18.8978 17 18.5V5H17.75C17.9489 5 18.1397 4.92098 18.2803 4.78033C18.421 4.63968 18.5 4.44891 18.5 4.25C18.5 4.05109 18.421 3.86032 18.2803 3.71967C18.1397 3.57902 17.9489 3.5 17.75 3.5ZM6.5 2.75C6.5 2.55109 6.57902 2.36032 6.71967 2.21967C6.86032 2.07902 7.05109 2 7.25 2H11.75C11.9489 2 12.1397 2.07902 12.2803 2.21967C12.421 2.36032 12.5 2.55109 12.5 2.75V3.5H6.5V2.75ZM15.5 18.5H3.5V5H15.5V18.5ZM8 8.75V14.75C8 14.9489 7.92098 15.1397 7.78033 15.2803C7.63968 15.421 7.44891 15.5 7.25 15.5C7.05109 15.5 6.86032 15.421 6.71967 15.2803C6.57902 15.1397 6.5 14.9489 6.5 14.75V8.75C6.5 8.55109 6.57902 8.36032 6.71967 8.21967C6.86032 8.07902 7.05109 8 7.25 8C7.44891 8 7.63968 8.07902 7.78033 8.21967C7.92098 8.36032 8 8.55109 8 8.75ZM12.5 8.75V14.75C12.5 14.9489 12.421 15.1397 12.2803 15.2803C12.1397 15.421 11.9489 15.5 11.75 15.5C11.5511 15.5 11.3603 15.421 11.2197 15.2803C11.079 15.1397 11 14.9489 11 14.75V8.75C11 8.55109 11.079 8.36032 11.2197 8.21967C11.3603 8.07902 11.5511 8 11.75 8C11.9489 8 12.1397 8.07902 12.2803 8.21967C12.421 8.36032 12.5 8.55109 12.5 8.75Z" fill="#FF0000"/>
</svg>
