<svg width="10" height="5" viewBox="0 0 10 5" fill="none" xmlns="http://www.w3.org/2000/svg">
<path d="M9.01528 0.765277L5.26528 4.51528C5.23045 4.55014 5.18909 4.5778 5.14357 4.59667C5.09804 4.61555 5.04925 4.62526 4.99996 4.62526C4.95068 4.62526 4.90189 4.61555 4.85636 4.59667C4.81084 4.5778 4.76948 4.55014 4.73465 4.51528L0.984652 0.765277C0.914287 0.694912 0.874756 0.599476 0.874756 0.499964C0.874756 0.400453 0.914287 0.305017 0.984652 0.234652C1.05502 0.164286 1.15045 0.124756 1.24996 0.124756C1.34948 0.124756 1.44491 0.164286 1.51528 0.234652L4.99996 3.71981L8.48465 0.234652C8.51949 0.19981 8.56086 0.172173 8.60638 0.153317C8.6519 0.134461 8.70069 0.124756 8.74996 0.124756C8.79924 0.124756 8.84803 0.134461 8.89355 0.153317C8.93907 0.172173 8.98044 0.19981 9.01528 0.234652C9.05012 0.269493 9.07776 0.310856 9.09661 0.356378C9.11547 0.401901 9.12517 0.450691 9.12517 0.499964C9.12517 0.549237 9.11547 0.598028 9.09661 0.643551C9.07776 0.689073 9.05012 0.730436 9.01528 0.765277Z" fill="black"/>
</svg>
