<svg width="35" height="35" viewBox="0 0 35 35" fill="none" xmlns="http://www.w3.org/2000/svg">
<rect x="0.15" y="0.15" width="34.7" height="34.7" rx="6.85" stroke="#E2E2E2" stroke-width="0.3"/>
<path d="M24.2075 14.5855L21.4144 11.793C21.3215 11.7001 21.2113 11.6264 21.0899 11.5761C20.9686 11.5259 20.8385 11.5 20.7072 11.5C20.5759 11.5 20.4458 11.5259 20.3245 11.5761C20.2031 11.6264 20.0929 11.7001 20 11.793L12.2931 19.4998C12.1999 19.5924 12.1259 19.7025 12.0756 19.8239C12.0253 19.9452 11.9996 20.0754 12 20.2067V22.9999C12 23.2651 12.1054 23.5194 12.2929 23.707C12.4804 23.8945 12.7348 23.9999 13 23.9999H23.5C23.6326 23.9999 23.7598 23.9472 23.8536 23.8534C23.9473 23.7596 24 23.6325 24 23.4999C24 23.3672 23.9473 23.2401 23.8536 23.1463C23.7598 23.0525 23.6326 22.9999 23.5 22.9999H17.2075L24.2075 15.9998C24.3004 15.907 24.3741 15.7967 24.4243 15.6754C24.4746 15.5541 24.5005 15.424 24.5005 15.2927C24.5005 15.1613 24.4746 15.0313 24.4243 14.9099C24.3741 14.7886 24.3004 14.6783 24.2075 14.5855ZM15.7931 22.9999H13V20.2067L18.5 14.7067L21.2931 17.4998L15.7931 22.9999ZM22 16.793L19.2075 13.9998L20.7075 12.4998L23.5 15.293L22 16.793Z" fill="white"/>
</svg>
