<svg width="44" height="40" viewBox="0 0 44 40" fill="none" xmlns="http://www.w3.org/2000/svg">
<path d="M43.2482 32.7365L26.1681 3.07435C25.7413 2.34764 25.132 1.74509 24.4005 1.32642C23.6691 0.90775 22.841 0.6875 21.9982 0.6875C21.1554 0.6875 20.3273 0.90775 19.5958 1.32642C18.8644 1.74509 18.2551 2.34764 17.8283 3.07435L0.748189 32.7365C0.337517 33.4394 0.121094 34.2388 0.121094 35.0529C0.121094 35.8669 0.337517 36.6664 0.748189 37.3693C1.16954 38.1004 1.77782 38.7062 2.51061 39.1246C3.24341 39.543 4.07433 39.7589 4.91811 39.7501H39.0783C39.9214 39.7582 40.7515 39.542 41.4836 39.1236C42.2156 38.7052 42.8233 38.0998 43.2443 37.3693C43.6556 36.6667 43.8727 35.8675 43.8733 35.0534C43.874 34.2393 43.6583 33.4397 43.2482 32.7365ZM40.5392 35.8048C40.3903 36.0588 40.1765 36.2686 39.9198 36.4128C39.6631 36.5569 39.3727 36.6302 39.0783 36.6251H4.91811C4.62373 36.6302 4.33329 36.5569 4.07657 36.4128C3.81984 36.2686 3.60607 36.0588 3.45717 35.8048C3.3223 35.5765 3.25115 35.3161 3.25115 35.0509C3.25115 34.7857 3.3223 34.5254 3.45717 34.297L20.5373 4.63489C20.6892 4.38211 20.9039 4.17293 21.1606 4.02771C21.4173 3.88249 21.7072 3.80617 22.0021 3.80617C22.297 3.80617 22.5869 3.88249 22.8436 4.02771C23.1003 4.17293 23.315 4.38211 23.4669 4.63489L40.547 34.297C40.6807 34.5261 40.7505 34.7868 40.7491 35.052C40.7478 35.3172 40.6753 35.5772 40.5392 35.8048ZM20.4357 24.1251V16.3126C20.4357 15.8982 20.6003 15.5008 20.8933 15.2078C21.1864 14.9147 21.5838 14.7501 21.9982 14.7501C22.4126 14.7501 22.81 14.9147 23.103 15.2078C23.3961 15.5008 23.5607 15.8982 23.5607 16.3126V24.1251C23.5607 24.5395 23.3961 24.937 23.103 25.23C22.81 25.523 22.4126 25.6876 21.9982 25.6876C21.5838 25.6876 21.1864 25.523 20.8933 25.23C20.6003 24.937 20.4357 24.5395 20.4357 24.1251ZM24.3419 31.1564C24.3419 31.6199 24.2045 32.0731 23.9469 32.4585C23.6894 32.8439 23.3234 33.1443 22.8951 33.3217C22.4668 33.4991 21.9956 33.5455 21.5409 33.4551C21.0863 33.3647 20.6687 33.1414 20.3409 32.8137C20.0131 32.4859 19.7899 32.0683 19.6995 31.6136C19.609 31.159 19.6555 30.6877 19.8328 30.2595C20.0102 29.8312 20.3106 29.4652 20.6961 29.2076C21.0815 28.9501 21.5346 28.8126 21.9982 28.8126C22.6198 28.8126 23.2159 29.0596 23.6555 29.4991C24.095 29.9386 24.3419 30.5348 24.3419 31.1564Z" fill="#FFA500"/>
</svg>
