<svg width="35" height="35" viewBox="0 0 35 35" fill="none" xmlns="http://www.w3.org/2000/svg">
<rect x="0.15" y="0.15" width="34.7" height="34.7" rx="6.85" stroke="#989898" stroke-width="0.3"/>
<path d="M24.4569 17.7975C24.435 17.7481 23.9056 16.5738 22.7287 15.3969C21.1606 13.8287 19.18 13 17 13C14.82 13 12.8394 13.8287 11.2712 15.3969C10.0944 16.5738 9.56249 17.75 9.54312 17.7975C9.51469 17.8614 9.5 17.9306 9.5 18.0006C9.5 18.0706 9.51469 18.1398 9.54312 18.2037C9.56499 18.2531 10.0944 19.4269 11.2712 20.6038C12.8394 22.1713 14.82 23 17 23C19.18 23 21.1606 22.1713 22.7287 20.6038C23.9056 19.4269 24.435 18.2531 24.4569 18.2037C24.4853 18.1398 24.5 18.0706 24.5 18.0006C24.5 17.9306 24.4853 17.8614 24.4569 17.7975ZM17 22C15.0762 22 13.3956 21.3006 12.0044 19.9219C11.4335 19.3542 10.9479 18.7068 10.5625 18C10.9478 17.2931 11.4334 16.6457 12.0044 16.0781C13.3956 14.6994 15.0762 14 17 14C18.9237 14 20.6044 14.6994 21.9956 16.0781C22.5676 16.6456 23.0543 17.2929 23.4406 18C22.99 18.8412 21.0269 22 17 22ZM17 15C16.4067 15 15.8266 15.1759 15.3333 15.5056C14.8399 15.8352 14.4554 16.3038 14.2284 16.8519C14.0013 17.4001 13.9419 18.0033 14.0576 18.5853C14.1734 19.1672 14.4591 19.7018 14.8787 20.1213C15.2982 20.5409 15.8328 20.8266 16.4147 20.9424C16.9967 21.0581 17.5999 20.9987 18.148 20.7716C18.6962 20.5446 19.1648 20.1601 19.4944 19.6667C19.824 19.1734 20 18.5933 20 18C19.9992 17.2046 19.6828 16.442 19.1204 15.8796C18.558 15.3172 17.7954 15.0008 17 15ZM17 20C16.6044 20 16.2178 19.8827 15.8889 19.6629C15.56 19.4432 15.3036 19.1308 15.1522 18.7654C15.0009 18.3999 14.9613 17.9978 15.0384 17.6098C15.1156 17.2219 15.3061 16.8655 15.5858 16.5858C15.8655 16.3061 16.2219 16.1156 16.6098 16.0384C16.9978 15.9613 17.3999 16.0009 17.7654 16.1522C18.1308 16.3036 18.4432 16.56 18.6629 16.8889C18.8827 17.2178 19 17.6044 19 18C19 18.5304 18.7893 19.0391 18.4142 19.4142C18.0391 19.7893 17.5304 20 17 20Z" fill="black"/>
</svg>
