<svg width="31" height="31" viewBox="0 0 31 31" fill="none" xmlns="http://www.w3.org/2000/svg">
<path d="M30.0902 5.66078L25.3402 0.910778C25.2299 0.800368 25.0989 0.712779 24.9547 0.653019C24.8106 0.593259 24.6561 0.5625 24.5 0.5625C24.3439 0.5625 24.1894 0.593259 24.0453 0.653019C23.9011 0.712779 23.7701 0.800368 23.6598 0.910778L9.40984 15.1608C9.2996 15.2711 9.21219 15.4021 9.15259 15.5463C9.09299 15.6905 9.06238 15.8449 9.0625 16.0009V20.7509C9.0625 21.0659 9.18761 21.3679 9.41031 21.5906C9.63301 21.8133 9.93506 21.9384 10.25 21.9384H15C15.156 21.9386 15.3105 21.9079 15.4546 21.8483C15.5988 21.7887 15.7298 21.7013 15.8402 21.5911L30.0902 7.34109C30.2006 7.2308 30.2882 7.09984 30.3479 6.95568C30.4077 6.81152 30.4384 6.65699 30.4384 6.50093C30.4384 6.34488 30.4077 6.19035 30.3479 6.04619C30.2882 5.90203 30.2006 5.77106 30.0902 5.66078ZM14.5087 19.5634H11.4375V16.4923L20.9375 6.99226L24.0087 10.0634L14.5087 19.5634ZM25.6875 8.38461L22.6163 5.31343L24.5 3.42976L27.5712 6.50093L25.6875 8.38461ZM29.25 16.0009V27.8759C29.25 28.5058 28.9998 29.1099 28.5544 29.5553C28.109 30.0007 27.5049 30.2509 26.875 30.2509H3.125C2.49511 30.2509 1.89102 30.0007 1.44562 29.5553C1.00022 29.1099 0.75 28.5058 0.75 27.8759V4.12593C0.75 3.49604 1.00022 2.89195 1.44562 2.44656C1.89102 2.00116 2.49511 1.75093 3.125 1.75093H15C15.3149 1.75093 15.617 1.87605 15.8397 2.09874C16.0624 2.32144 16.1875 2.62349 16.1875 2.93843C16.1875 3.25338 16.0624 3.55542 15.8397 3.77812C15.617 4.00082 15.3149 4.12593 15 4.12593H3.125V27.8759H26.875V16.0009C26.875 15.686 27.0001 15.3839 27.2228 15.1612C27.4455 14.9385 27.7476 14.8134 28.0625 14.8134C28.3774 14.8134 28.6795 14.9385 28.9022 15.1612C29.1249 15.3839 29.25 15.686 29.25 16.0009Z" fill="white"/>
</svg>
