<svg width="28" height="24" viewBox="0 0 28 24" fill="none" xmlns="http://www.w3.org/2000/svg">
<path d="M19.8594 0.6875C17.4395 0.6875 15.3207 1.72812 14 3.48711C12.6793 1.72812 10.5605 0.6875 8.14062 0.6875C6.21433 0.689671 4.36755 1.45585 3.00545 2.81795C1.64335 4.18005 0.877171 6.02683 0.875 7.95313C0.875 16.1563 13.0379 22.7961 13.5559 23.0703C13.6924 23.1438 13.845 23.1822 14 23.1822C14.155 23.1822 14.3076 23.1438 14.4441 23.0703C14.9621 22.7961 27.125 16.1563 27.125 7.95313C27.1228 6.02683 26.3566 4.18005 24.9946 2.81795C23.6325 1.45585 21.7857 0.689671 19.8594 0.6875ZM14 21.1719C11.8602 19.925 2.75 14.2449 2.75 7.95313C2.75186 6.52401 3.3204 5.15397 4.33093 4.14343C5.34147 3.1329 6.71151 2.56436 8.14062 2.5625C10.4199 2.5625 12.3336 3.77656 13.1328 5.72656C13.2034 5.89851 13.3236 6.04558 13.478 6.14908C13.6324 6.25258 13.8141 6.30784 14 6.30784C14.1859 6.30784 14.3676 6.25258 14.522 6.14908C14.6764 6.04558 14.7966 5.89851 14.8672 5.72656C15.6664 3.77305 17.5801 2.5625 19.8594 2.5625C21.2885 2.56436 22.6585 3.1329 23.6691 4.14343C24.6796 5.15397 25.2481 6.52401 25.25 7.95313C25.25 14.2355 16.1375 19.9238 14 21.1719Z" fill="black"/>
</svg>
