<svg width="35" height="29" viewBox="0 0 35 29" fill="none" xmlns="http://www.w3.org/2000/svg">
<path d="M31.5938 0.40625H3.40625C2.72663 0.40625 2.07485 0.676227 1.59429 1.15679C1.11373 1.63735 0.84375 2.28913 0.84375 2.96875V26.0312C0.84375 26.7109 1.11373 27.3626 1.59429 27.8432C2.07485 28.3238 2.72663 28.5938 3.40625 28.5938H31.5938C32.2734 28.5938 32.9251 28.3238 33.4057 27.8432C33.8863 27.3626 34.1562 26.7109 34.1562 26.0312V2.96875C34.1562 2.28913 33.8863 1.63735 33.4057 1.15679C32.9251 0.676227 32.2734 0.40625 31.5938 0.40625ZM31.5938 2.96875V19.4248L27.4185 15.2511C27.1805 15.0131 26.898 14.8243 26.5871 14.6955C26.2761 14.5667 25.9429 14.5004 25.6063 14.5004C25.2697 14.5004 24.9365 14.5667 24.6255 14.6955C24.3146 14.8243 24.0321 15.0131 23.7941 15.2511L20.591 18.4543L13.5441 11.4074C13.0636 10.9272 12.4121 10.6574 11.7328 10.6574C11.0534 10.6574 10.4019 10.9272 9.92141 11.4074L3.40625 17.9225V2.96875H31.5938ZM3.40625 21.5469L11.7344 13.2188L24.5469 26.0312H3.40625V21.5469ZM31.5938 26.0312H28.1712L22.4056 20.2656L25.6087 17.0625L31.5938 23.0491V26.0312ZM20.0625 10.0156C20.0625 9.63551 20.1752 9.26394 20.3864 8.94789C20.5976 8.63184 20.8977 8.38551 21.2489 8.24004C21.6001 8.09458 21.9865 8.05652 22.3593 8.13068C22.7321 8.20483 23.0746 8.38788 23.3433 8.65665C23.6121 8.92543 23.7952 9.26788 23.8693 9.64069C23.9435 10.0135 23.9054 10.3999 23.76 10.7511C23.6145 11.1023 23.3682 11.4024 23.0521 11.6136C22.7361 11.8248 22.3645 11.9375 21.9844 11.9375C21.4747 11.9375 20.9858 11.735 20.6254 11.3746C20.265 11.0142 20.0625 10.5253 20.0625 10.0156Z" fill="black" fill-opacity="0.5"/>
</svg>
