<svg width="31" height="27" viewBox="0 0 31 27" fill="none" xmlns="http://www.w3.org/2000/svg">
<path d="M28.2188 0.78125H2.78125C2.16794 0.78125 1.57974 1.02489 1.14607 1.45857C0.712388 1.89224 0.46875 2.48044 0.46875 3.09375V23.9062C0.46875 24.5196 0.712388 25.1078 1.14607 25.5414C1.57974 25.9751 2.16794 26.2188 2.78125 26.2188H28.2188C28.8321 26.2188 29.4203 25.9751 29.8539 25.5414C30.2876 25.1078 30.5312 24.5196 30.5312 23.9062V3.09375C30.5312 2.48044 30.2876 1.89224 29.8539 1.45857C29.4203 1.02489 28.8321 0.78125 28.2188 0.78125ZM28.2188 3.09375V17.9443L24.4508 14.1779C24.2361 13.9631 23.9811 13.7927 23.7005 13.6764C23.4199 13.5602 23.1192 13.5003 22.8155 13.5003C22.5117 13.5003 22.211 13.5602 21.9304 13.6764C21.6498 13.7927 21.3948 13.9631 21.1801 14.1779L18.2895 17.0685L11.9301 10.7091C11.4964 10.2758 10.9085 10.0323 10.2954 10.0323C9.68238 10.0323 9.09442 10.2758 8.66078 10.7091L2.78125 16.5886V3.09375H28.2188ZM2.78125 19.8594L10.2969 12.3438L21.8594 23.9062H2.78125V19.8594ZM28.2188 23.9062H25.1301L19.927 18.7031L22.8176 15.8125L28.2188 21.2151V23.9062ZM17.8125 9.45312C17.8125 9.1101 17.9142 8.77478 18.1048 8.48956C18.2954 8.20434 18.5662 7.98204 18.8832 7.85077C19.2001 7.7195 19.5488 7.68515 19.8852 7.75208C20.2217 7.819 20.5307 7.98418 20.7733 8.22674C21.0158 8.46929 21.181 8.77833 21.2479 9.11477C21.3148 9.4512 21.2805 9.79993 21.1492 10.1168C21.018 10.4338 20.7957 10.7046 20.5104 10.8952C20.2252 11.0858 19.8899 11.1875 19.5469 11.1875C19.0869 11.1875 18.6457 11.0048 18.3205 10.6795C17.9952 10.3543 17.8125 9.91311 17.8125 9.45312Z" fill="black" fill-opacity="0.5"/>
</svg>
