<svg width="51" height="51" viewBox="0 0 51 51" fill="none" xmlns="http://www.w3.org/2000/svg">
<g filter="url(#filter0_d_36_1582)">
<rect x="4" y="4" width="43" height="43" rx="7" fill="white"/>
<g clip-path="url(#clip0_36_1582)">
<path d="M31.6094 14H19.3906C16.4135 14 14 16.4135 14 19.3906V31.6094C14 34.5865 16.4135 37 19.3906 37H31.6094C34.5865 37 37 34.5865 37 31.6094V19.3906C37 16.4135 34.5865 14 31.6094 14Z" fill="url(#paint0_radial_36_1582)"/>
<path d="M31.6094 14H19.3906C16.4135 14 14 16.4135 14 19.3906V31.6094C14 34.5865 16.4135 37 19.3906 37H31.6094C34.5865 37 37 34.5865 37 31.6094V19.3906C37 16.4135 34.5865 14 31.6094 14Z" fill="url(#paint1_radial_36_1582)"/>
<path d="M25.5008 16.5156C23.0608 16.5156 22.7546 16.5263 21.7963 16.5699C20.8398 16.6137 20.1869 16.7651 19.6157 16.9873C19.0247 17.2168 18.5235 17.5238 18.0241 18.0233C17.5243 18.5227 17.2173 19.024 16.9871 19.6147C16.7643 20.1861 16.6127 20.8393 16.5697 21.7953C16.5269 22.7537 16.5156 23.06 16.5156 25.5001C16.5156 27.9402 16.5264 28.2454 16.5699 29.2037C16.6139 30.1602 16.7653 30.8131 16.9873 31.3843C17.2169 31.9753 17.5239 32.4765 18.0235 32.9759C18.5227 33.4757 19.024 33.7834 19.6145 34.0129C20.1862 34.2351 20.8392 34.3864 21.7955 34.4303C22.7538 34.4739 23.0598 34.4846 25.4997 34.4846C27.94 34.4846 28.2453 34.4739 29.2035 34.4303C30.16 34.3864 30.8136 34.2351 31.3853 34.0129C31.976 33.7834 32.4765 33.4757 32.9757 32.9759C33.4755 32.4765 33.7824 31.9753 34.0127 31.3846C34.2335 30.8131 34.3852 30.16 34.4301 29.2039C34.4731 28.2456 34.4844 27.9402 34.4844 25.5001C34.4844 23.06 34.4731 22.7538 34.4301 21.7955C34.3852 20.839 34.2335 20.1862 34.0127 19.615C33.7824 19.024 33.4755 18.5227 32.9757 18.0233C32.476 17.5236 31.9762 17.2166 31.3848 16.9874C30.812 16.7651 30.1588 16.6136 29.2023 16.5699C28.2439 16.5263 27.9388 16.5156 25.498 16.5156H25.5008ZM24.6948 18.1347C24.9341 18.1343 25.201 18.1347 25.5008 18.1347C27.8997 18.1347 28.184 18.1433 29.1313 18.1864C30.0073 18.2264 30.4827 18.3728 30.7994 18.4958C31.2187 18.6586 31.5176 18.8533 31.8319 19.1678C32.1464 19.4823 32.341 19.7817 32.5042 20.201C32.6272 20.5173 32.7738 20.9927 32.8136 21.8687C32.8567 22.8158 32.866 23.1003 32.866 25.498C32.866 27.8958 32.8567 28.1803 32.8136 29.1274C32.7736 30.0033 32.6272 30.4788 32.5042 30.7951C32.3414 31.2144 32.1464 31.513 31.8319 31.8272C31.5175 32.1417 31.2189 32.3363 30.7994 32.4992C30.4831 32.6227 30.0073 32.7687 29.1313 32.8088C28.1842 32.8518 27.8997 32.8612 25.5008 32.8612C23.1018 32.8612 22.8174 32.8518 21.8704 32.8088C20.9944 32.7684 20.519 32.622 20.202 32.499C19.7828 32.3361 19.4833 32.1415 19.1688 31.8271C18.8543 31.5126 18.6597 31.2139 18.4965 30.7944C18.3735 30.4781 18.227 30.0026 18.1871 29.1266C18.144 28.1795 18.1354 27.8951 18.1354 25.4958C18.1354 23.0965 18.144 22.8136 18.1871 21.8664C18.2271 20.9905 18.3735 20.515 18.4965 20.1983C18.6594 19.779 18.8543 19.4796 19.1689 19.1651C19.4834 18.8507 19.7828 18.656 20.2021 18.4928C20.5188 18.3693 20.9944 18.2233 21.8704 18.183C22.6992 18.1456 23.0204 18.1343 24.6948 18.1325V18.1347ZM30.2967 19.6265C29.7015 19.6265 29.2185 20.1089 29.2185 20.7042C29.2185 21.2994 29.7015 21.7824 30.2967 21.7824C30.8919 21.7824 31.3748 21.2994 31.3748 20.7042C31.3748 20.109 30.8919 19.6261 30.2967 19.6261V19.6265ZM25.5008 20.8862C22.9528 20.8862 20.887 22.952 20.887 25.5001C20.887 28.0481 22.9528 30.113 25.5008 30.113C28.0489 30.113 30.114 28.0481 30.114 25.5001C30.114 22.9521 28.0487 20.8862 25.5006 20.8862H25.5008ZM25.5008 22.5052C27.1547 22.5052 28.4957 23.846 28.4957 25.5001C28.4957 27.154 27.1547 28.4949 25.5008 28.4949C23.8469 28.4949 22.506 27.154 22.506 25.5001C22.506 23.846 23.8468 22.5052 25.5008 22.5052Z" fill="white"/>
</g>
</g>
<defs>
<filter id="filter0_d_36_1582" x="0" y="0" width="51" height="51" filterUnits="userSpaceOnUse" color-interpolation-filters="sRGB">
<feFlood flood-opacity="0" result="BackgroundImageFix"/>
<feColorMatrix in="SourceAlpha" type="matrix" values="0 0 0 0 0 0 0 0 0 0 0 0 0 0 0 0 0 0 127 0" result="hardAlpha"/>
<feOffset/>
<feGaussianBlur stdDeviation="2"/>
<feComposite in2="hardAlpha" operator="out"/>
<feColorMatrix type="matrix" values="0 0 0 0 0 0 0 0 0 0 0 0 0 0 0 0 0 0 0.25 0"/>
<feBlend mode="normal" in2="BackgroundImageFix" result="effect1_dropShadow_36_1582"/>
<feBlend mode="normal" in="SourceGraphic" in2="effect1_dropShadow_36_1582" result="shape"/>
</filter>
<radialGradient id="paint0_radial_36_1582" cx="0" cy="0" r="1" gradientUnits="userSpaceOnUse" gradientTransform="translate(20.1094 38.7714) rotate(-90) scale(22.7947 21.2009)">
<stop stop-color="#FFDD55"/>
<stop offset="0.1" stop-color="#FFDD55"/>
<stop offset="0.5" stop-color="#FF543E"/>
<stop offset="1" stop-color="#C837AB"/>
</radialGradient>
<radialGradient id="paint1_radial_36_1582" cx="0" cy="0" r="1" gradientUnits="userSpaceOnUse" gradientTransform="translate(10.1474 15.6568) rotate(78.681) scale(10.1894 42.0009)">
<stop stop-color="#3771C8"/>
<stop offset="0.128" stop-color="#3771C8"/>
<stop offset="1" stop-color="#6600FF" stop-opacity="0"/>
</radialGradient>
<clipPath id="clip0_36_1582">
<rect width="23" height="23" fill="white" transform="translate(14 14)"/>
</clipPath>
</defs>
</svg>
