<svg width="34" height="34" viewBox="0 0 34 34" fill="none" xmlns="http://www.w3.org/2000/svg">
<path d="M31.5261 13.2623C30.9665 12.6775 30.3876 12.0748 30.1694 11.5449C29.9675 11.0595 29.9556 10.255 29.9438 9.4757C29.9215 8.02695 29.8977 6.38523 28.7563 5.24375C27.6148 4.10227 25.973 4.07852 24.5243 4.05625C23.745 4.04437 22.9405 4.0325 22.4551 3.83062C21.9266 3.61242 21.3225 3.03352 20.7377 2.47391C19.7134 1.48977 18.5497 0.375 17 0.375C15.4503 0.375 14.288 1.48977 13.2623 2.47391C12.6775 3.03352 12.0748 3.61242 11.5449 3.83062C11.0625 4.0325 10.255 4.04437 9.4757 4.05625C8.02695 4.07852 6.38523 4.10227 5.24375 5.24375C4.10227 6.38523 4.08594 8.02695 4.05625 9.4757C4.04437 10.255 4.0325 11.0595 3.83062 11.5449C3.61242 12.0734 3.03352 12.6775 2.47391 13.2623C1.48977 14.2866 0.375 15.4503 0.375 17C0.375 18.5497 1.48977 19.712 2.47391 20.7377C3.03352 21.3225 3.61242 21.9252 3.83062 22.4551C4.0325 22.9405 4.04437 23.745 4.05625 24.5243C4.07852 25.973 4.10227 27.6148 5.24375 28.7563C6.38523 29.8977 8.02695 29.9215 9.4757 29.9438C10.255 29.9556 11.0595 29.9675 11.5449 30.1694C12.0734 30.3876 12.6775 30.9665 13.2623 31.5261C14.2866 32.5102 15.4503 33.625 17 33.625C18.5497 33.625 19.712 32.5102 20.7377 31.5261C21.3225 30.9665 21.9252 30.3876 22.4551 30.1694C22.9405 29.9675 23.745 29.9556 24.5243 29.9438C25.973 29.9215 27.6148 29.8977 28.7563 28.7563C29.8977 27.6148 29.9215 25.973 29.9438 24.5243C29.9556 23.745 29.9675 22.9405 30.1694 22.4551C30.3876 21.9266 30.9665 21.3225 31.5261 20.7377C32.5102 19.7134 33.625 18.5497 33.625 17C33.625 15.4503 32.5102 14.288 31.5261 13.2623ZM29.8116 19.0945C29.1006 19.8366 28.3644 20.6041 27.974 21.5466C27.5999 22.4521 27.5836 23.4867 27.5688 24.4887C27.5539 25.5277 27.5376 26.6158 27.0759 27.0759C26.6143 27.5361 25.5337 27.5539 24.4887 27.5688C23.4867 27.5836 22.4521 27.5999 21.5466 27.974C20.6041 28.3644 19.8366 29.1006 19.0945 29.8116C18.3523 30.5227 17.5938 31.25 17 31.25C16.4062 31.25 15.6418 30.5197 14.9055 29.8116C14.1693 29.1036 13.3959 28.3644 12.4534 27.974C11.5479 27.5999 10.5133 27.5836 9.51133 27.5688C8.47227 27.5539 7.38422 27.5376 6.92406 27.0759C6.46391 26.6143 6.44609 25.5337 6.43125 24.4887C6.41641 23.4867 6.40008 22.4521 6.02602 21.5466C5.63562 20.6041 4.89937 19.8366 4.18836 19.0945C3.47734 18.3523 2.75 17.5938 2.75 17C2.75 16.4062 3.48031 15.6418 4.18836 14.9055C4.89641 14.1693 5.63562 13.3959 6.02602 12.4534C6.40008 11.5479 6.41641 10.5133 6.43125 9.51133C6.44609 8.47227 6.46242 7.38422 6.92406 6.92406C7.3857 6.46391 8.46633 6.44609 9.51133 6.43125C10.5133 6.41641 11.5479 6.40008 12.4534 6.02602C13.3959 5.63562 14.1634 4.89937 14.9055 4.18836C15.6477 3.47734 16.4062 2.75 17 2.75C17.5938 2.75 18.3582 3.48031 19.0945 4.18836C19.8307 4.89641 20.6041 5.63562 21.5466 6.02602C22.4521 6.40008 23.4867 6.41641 24.4887 6.43125C25.5277 6.44609 26.6158 6.46242 27.0759 6.92406C27.5361 7.3857 27.5539 8.46633 27.5688 9.51133C27.5836 10.5133 27.5999 11.5479 27.974 12.4534C28.3644 13.3959 29.1006 14.1634 29.8116 14.9055C30.5227 15.6477 31.25 16.4062 31.25 17C31.25 17.5938 30.5197 18.3582 29.8116 19.0945ZM23.7777 12.5973C23.8881 12.7076 23.9757 12.8386 24.0354 12.9828C24.0952 13.1269 24.1259 13.2814 24.1259 13.4375C24.1259 13.5936 24.0952 13.7481 24.0354 13.8922C23.9757 14.0364 23.8881 14.1674 23.7777 14.2777L15.4652 22.5902C15.3549 22.7006 15.2239 22.7882 15.0797 22.8479C14.9356 22.9077 14.7811 22.9384 14.625 22.9384C14.4689 22.9384 14.3144 22.9077 14.1703 22.8479C14.0261 22.7882 13.8951 22.7006 13.7848 22.5902L10.2223 19.0277C9.99952 18.8048 9.87434 18.5026 9.87434 18.1875C9.87434 17.8724 9.99952 17.5702 10.2223 17.3473C10.4452 17.1245 10.7474 16.9993 11.0625 16.9993C11.3776 16.9993 11.6798 17.1245 11.9027 17.3473L14.625 20.0712L22.0973 12.5973C22.2076 12.4869 22.3386 12.3993 22.4828 12.3396C22.6269 12.2798 22.7814 12.2491 22.9375 12.2491C23.0936 12.2491 23.2481 12.2798 23.3922 12.3396C23.5364 12.3993 23.6674 12.4869 23.7777 12.5973Z" fill="white"/>
</svg>
