<svg width="36" height="22" viewBox="0 0 36 22" fill="none" xmlns="http://www.w3.org/2000/svg">
<path d="M18 5.0625C16.8257 5.0625 15.6777 5.41073 14.7013 6.06315C13.7249 6.71557 12.9639 7.64288 12.5145 8.72782C12.0651 9.81275 11.9475 11.0066 12.1766 12.1583C12.4057 13.3101 12.9712 14.3681 13.8016 15.1984C14.6319 16.0288 15.6899 16.5943 16.8417 16.8234C17.9934 17.0525 19.1872 16.9349 20.2722 16.4855C21.3571 16.0361 22.2844 15.2751 22.9369 14.2987C23.5893 13.3223 23.9375 12.1743 23.9375 11C23.9375 9.42528 23.3119 7.91505 22.1984 6.80155C21.0849 5.68806 19.5747 5.0625 18 5.0625ZM18 14.5625C17.2954 14.5625 16.6066 14.3536 16.0208 13.9621C15.4349 13.5707 14.9783 13.0143 14.7087 12.3633C14.439 11.7123 14.3685 10.996 14.506 10.305C14.6434 9.61393 14.9827 8.97916 15.4809 8.48093C15.9792 7.98271 16.6139 7.64341 17.305 7.50595C17.996 7.36849 18.7123 7.43904 19.3633 7.70868C20.0143 7.97832 20.5707 8.43493 20.9621 9.02078C21.3536 9.60663 21.5625 10.2954 21.5625 11C21.5625 11.9448 21.1872 12.851 20.5191 13.5191C19.851 14.1872 18.9448 14.5625 18 14.5625ZM34.625 0.3125H1.375C1.06006 0.3125 0.75801 0.437611 0.535311 0.660311C0.312611 0.88301 0.1875 1.18506 0.1875 1.5V20.5C0.1875 20.8149 0.312611 21.117 0.535311 21.3397C0.75801 21.5624 1.06006 21.6875 1.375 21.6875H34.625C34.9399 21.6875 35.242 21.5624 35.4647 21.3397C35.6874 21.117 35.8125 20.8149 35.8125 20.5V1.5C35.8125 1.18506 35.6874 0.88301 35.4647 0.660311C35.242 0.437611 34.9399 0.3125 34.625 0.3125ZM27.7449 19.3125H8.25508C7.85638 17.9641 7.12667 16.7369 6.1324 15.7426C5.13813 14.7483 3.9109 14.0186 2.5625 13.6199V8.38008C3.9109 7.98138 5.13813 7.25167 6.1324 6.2574C7.12667 5.26313 7.85638 4.0359 8.25508 2.6875H27.7449C28.1436 4.0359 28.8733 5.26313 29.8676 6.2574C30.8619 7.25167 32.0891 7.98138 33.4375 8.38008V13.6199C32.0891 14.0186 30.8619 14.7483 29.8676 15.7426C28.8733 16.7369 28.1436 17.9641 27.7449 19.3125ZM33.4375 5.85961C32.0131 5.24715 30.8779 4.11185 30.2654 2.6875H33.4375V5.85961ZM5.73461 2.6875C5.12214 4.11185 3.98685 5.24715 2.5625 5.85961V2.6875H5.73461ZM2.5625 16.1404C3.98685 16.7529 5.12214 17.8881 5.73461 19.3125H2.5625V16.1404ZM30.2654 19.3125C30.8779 17.8881 32.0131 16.7529 33.4375 16.1404V19.3125H30.2654Z" fill="white"/>
</svg>
