<svg width="17" height="17" viewBox="0 0 17 17" fill="none" xmlns="http://www.w3.org/2000/svg">
<path d="M14.2317 5.39016L11.4385 2.59766C11.3457 2.50478 11.2354 2.4311 11.1141 2.38083C10.9928 2.33056 10.8627 2.30469 10.7314 2.30469C10.6 2.30469 10.47 2.33056 10.3486 2.38083C10.2273 2.4311 10.117 2.50478 10.0242 2.59766L2.3173 10.3045C2.22404 10.3971 2.1501 10.5072 2.09977 10.6285C2.04945 10.7499 2.02376 10.88 2.02417 11.0114V13.8045C2.02417 14.0698 2.12953 14.3241 2.31707 14.5116C2.5046 14.6992 2.75896 14.8045 3.02417 14.8045H13.5242C13.6568 14.8045 13.784 14.7519 13.8777 14.6581C13.9715 14.5643 14.0242 14.4371 14.0242 14.3045C14.0242 14.1719 13.9715 14.0448 13.8777 13.951C13.784 13.8572 13.6568 13.8045 13.5242 13.8045H7.23167L14.2317 6.80454C14.3246 6.71168 14.3982 6.60143 14.4485 6.48009C14.4988 6.35875 14.5246 6.22869 14.5246 6.09735C14.5246 5.96601 14.4988 5.83595 14.4485 5.71461C14.3982 5.59327 14.3246 5.48302 14.2317 5.39016ZM5.8173 13.8045H3.02417V11.0114L8.52417 5.51141L11.3173 8.30454L5.8173 13.8045ZM12.0242 7.59766L9.23168 4.80454L10.7317 3.30454L13.5242 6.09766L12.0242 7.59766Z" fill="black"/>
</svg>
