<svg width="18" height="20" viewBox="0 0 18 20" fill="none" xmlns="http://www.w3.org/2000/svg">
<path d="M16.6558 9.46967C16.7255 9.53932 16.7808 9.62204 16.8186 9.71309C16.8563 9.80413 16.8757 9.90173 16.8757 10.0003C16.8757 10.0989 16.8563 10.1964 16.8186 10.2875C16.7808 10.3785 16.7255 10.4613 16.6558 10.5309L8.96359 18.2184C7.97885 19.203 6.6433 19.7561 5.25076 19.756C3.85821 19.756 2.52274 19.2027 1.53812 18.2179C0.553503 17.2332 0.000400399 15.8977 0.000488292 14.5051C0.000576185 13.1126 0.553847 11.7771 1.53859 10.7925L10.8442 1.34998C11.5472 0.646202 12.5011 0.250528 13.4958 0.250001C14.4906 0.249473 15.4448 0.644135 16.1486 1.34717C16.8524 2.0502 17.248 3.00401 17.2486 3.99877C17.2491 4.99353 16.8544 5.94776 16.1514 6.65154L6.8439 16.094C6.42121 16.5167 5.84792 16.7542 5.25015 16.7542C4.65238 16.7542 4.07909 16.5167 3.6564 16.094C3.23371 15.6714 2.99625 15.0981 2.99625 14.5003C2.99625 13.9025 3.23371 13.3292 3.6564 12.9065L11.4658 4.97342C11.5342 4.90044 11.6165 4.84188 11.7079 4.8012C11.7993 4.76051 11.8979 4.73851 11.9979 4.7365C12.0979 4.73448 12.1973 4.7525 12.2902 4.78947C12.3832 4.82645 12.4678 4.88165 12.539 4.95181C12.6103 5.02198 12.6669 5.10569 12.7053 5.19804C12.7438 5.29038 12.7634 5.38948 12.7629 5.4895C12.7625 5.58953 12.7421 5.68846 12.7029 5.78048C12.6636 5.87249 12.6064 5.95573 12.5345 6.02529L4.72421 13.9669C4.65428 14.0362 4.5987 14.1187 4.56065 14.2096C4.52259 14.3004 4.5028 14.3979 4.50241 14.4964C4.50202 14.5949 4.52103 14.6925 4.55836 14.7836C4.5957 14.8748 4.65062 14.9577 4.71999 15.0276C4.78937 15.0976 4.87184 15.1531 4.96269 15.1912C5.05355 15.2293 5.15101 15.249 5.24951 15.2494C5.34801 15.2498 5.44563 15.2308 5.53678 15.1935C5.62794 15.1562 5.71085 15.1012 5.78078 15.0319L15.0873 5.59404C15.51 5.17222 15.7478 4.59977 15.7485 4.00261C15.7491 3.40545 15.5124 2.83251 15.0906 2.40982C14.6688 1.98713 14.0963 1.74932 13.4992 1.74871C12.902 1.74809 12.3291 1.98472 11.9064 2.40654L2.60265 11.8453C2.25411 12.1933 1.97753 12.6065 1.78869 13.0614C1.59985 13.5162 1.50246 14.0039 1.50207 14.4964C1.50167 14.9889 1.59829 15.4767 1.78641 15.9318C1.97452 16.387 2.25045 16.8007 2.59843 17.1492C2.94641 17.4977 3.35964 17.7743 3.81451 17.9632C4.26938 18.152 4.757 18.2494 5.24951 18.2498C5.74202 18.2502 6.22979 18.1536 6.68496 17.9654C7.14014 17.7773 7.5538 17.5014 7.90234 17.1534L15.5955 9.46592C15.7366 9.32587 15.9276 9.24759 16.1264 9.24829C16.3252 9.249 16.5156 9.32862 16.6558 9.46967Z" fill="black" fill-opacity="0.5"/>
</svg>
