<svg width="33" height="32" viewBox="0 0 33 32" fill="none" xmlns="http://www.w3.org/2000/svg">
<g filter="url(#filter0_d_20_8959)">
<rect x="4.5" y="4" width="24" height="24" rx="7" fill="#E53E3E"/>
<path d="M21.75 16C21.75 16.116 21.7039 16.2273 21.6219 16.3094C21.5398 16.3914 21.4285 16.4375 21.3125 16.4375H16.9375V20.8125C16.9375 20.9285 16.8914 21.0398 16.8094 21.1219C16.7273 21.2039 16.616 21.25 16.5 21.25C16.384 21.25 16.2727 21.2039 16.1906 21.1219C16.1086 21.0398 16.0625 20.9285 16.0625 20.8125V16.4375H11.6875C11.5715 16.4375 11.4602 16.3914 11.3781 16.3094C11.2961 16.2273 11.25 16.116 11.25 16C11.25 15.884 11.2961 15.7727 11.3781 15.6906C11.4602 15.6086 11.5715 15.5625 11.6875 15.5625H16.0625V11.1875C16.0625 11.0715 16.1086 10.9602 16.1906 10.8781C16.2727 10.7961 16.384 10.75 16.5 10.75C16.616 10.75 16.7273 10.7961 16.8094 10.8781C16.8914 10.9602 16.9375 11.0715 16.9375 11.1875V15.5625H21.3125C21.4285 15.5625 21.5398 15.6086 21.6219 15.6906C21.7039 15.7727 21.75 15.884 21.75 16Z" fill="white"/>
</g>
<defs>
<filter id="filter0_d_20_8959" x="0.5" y="0" width="32" height="32" filterUnits="userSpaceOnUse" color-interpolation-filters="sRGB">
<feFlood flood-opacity="0" result="BackgroundImageFix"/>
<feColorMatrix in="SourceAlpha" type="matrix" values="0 0 0 0 0 0 0 0 0 0 0 0 0 0 0 0 0 0 127 0" result="hardAlpha"/>
<feOffset/>
<feGaussianBlur stdDeviation="2"/>
<feComposite in2="hardAlpha" operator="out"/>
<feColorMatrix type="matrix" values="0 0 0 0 0 0 0 0 0 0 0 0 0 0 0 0 0 0 0.25 0"/>
<feBlend mode="normal" in2="BackgroundImageFix" result="effect1_dropShadow_20_8959"/>
<feBlend mode="normal" in="SourceGraphic" in2="effect1_dropShadow_20_8959" result="shape"/>
</filter>
</defs>
</svg>
