<svg width="32" height="32" viewBox="0 0 32 32" fill="none" xmlns="http://www.w3.org/2000/svg">
<path d="M31.1688 28.9569C31.314 29.1021 31.4292 29.2744 31.5077 29.4641C31.5863 29.6538 31.6267 29.8571 31.6267 30.0624C31.6267 30.2677 31.5863 30.471 31.5077 30.6607C31.4292 30.8503 31.314 31.0227 31.1688 31.1679C31.0237 31.313 30.8513 31.4282 30.6616 31.5068C30.472 31.5853 30.2687 31.6258 30.0634 31.6258C29.8581 31.6258 29.6548 31.5853 29.4651 31.5068C29.2754 31.4282 29.1031 31.313 28.9579 31.1679L16.0009 18.2089L3.04384 31.1679C2.75065 31.4611 2.353 31.6258 1.93837 31.6258C1.52374 31.6258 1.12609 31.4611 0.8329 31.1679C0.539711 30.8747 0.375 30.477 0.375 30.0624C0.375 29.6478 0.539712 29.2501 0.8329 28.9569L13.7919 15.9999L0.8329 3.04286C0.539711 2.74967 0.375 2.35202 0.375 1.93739C0.375 1.52276 0.539711 1.12511 0.8329 0.831923C1.12609 0.538735 1.52374 0.374023 1.93837 0.374023C2.353 0.374023 2.75065 0.538735 3.04384 0.831923L16.0009 13.7909L28.9579 0.831923C29.2511 0.538735 29.6487 0.374023 30.0634 0.374023C30.478 0.374023 30.8757 0.538735 31.1688 0.831923C31.462 1.12511 31.6267 1.52276 31.6267 1.93739C31.6267 2.35202 31.462 2.74967 31.1688 3.04286L18.2099 15.9999L31.1688 28.9569Z" fill="#FF0000"/>
</svg>
