<svg width="36" height="27" viewBox="0 0 36 27" fill="none" xmlns="http://www.w3.org/2000/svg">
<path d="M35.3375 15.3237C35.2128 15.4173 35.0708 15.4854 34.9197 15.5241C34.7687 15.5628 34.6115 15.5713 34.4571 15.5493C34.3027 15.5272 34.1542 15.475 34.02 15.3955C33.8858 15.3161 33.7686 15.211 33.675 15.0862C32.9593 14.1241 32.0276 13.3435 30.9551 12.8073C29.8826 12.271 28.6991 11.9941 27.5 11.9987C27.2665 11.9987 27.0382 11.9298 26.8436 11.8007C26.649 11.6716 26.4968 11.488 26.406 11.2729C26.3444 11.1268 26.3126 10.9698 26.3126 10.8112C26.3126 10.6526 26.3444 10.4957 26.406 10.3496C26.4968 10.1344 26.649 9.95082 26.8436 9.82172C27.0382 9.69261 27.2665 9.62374 27.5 9.62372C28.1663 9.62366 28.8192 9.43675 29.3846 9.08421C29.95 8.73167 30.4052 8.22764 30.6985 7.62937C30.9918 7.0311 31.1114 6.36257 31.0438 5.69972C30.9762 5.03686 30.7241 4.40625 30.316 3.87952C29.908 3.35278 29.3604 2.95104 28.7355 2.71992C28.1105 2.48879 27.4333 2.43755 26.7807 2.57202C26.1282 2.70649 25.5264 3.02127 25.0437 3.48062C24.5611 3.93996 24.2169 4.52546 24.0503 5.17059C24.0113 5.32166 23.943 5.46358 23.8492 5.58823C23.7553 5.71288 23.6379 5.81783 23.5035 5.89709C23.3691 5.97635 23.2204 6.02836 23.0659 6.05015C22.9114 6.07194 22.7541 6.0631 22.6031 6.02411C22.452 5.98512 22.3101 5.91676 22.1854 5.82293C22.0608 5.7291 21.9558 5.61164 21.8766 5.47725C21.7973 5.34285 21.7453 5.19417 21.7235 5.03968C21.7017 4.88519 21.7106 4.72791 21.7496 4.57684C21.9808 3.68223 22.4176 2.85393 23.0252 2.15783C23.6329 1.46174 24.3946 0.917077 25.2498 0.567176C26.105 0.217276 27.03 0.0717982 27.9513 0.142319C28.8726 0.212839 29.7648 0.497411 30.5568 0.973392C31.3487 1.44937 32.0187 2.10362 32.5133 2.88409C33.0079 3.66455 33.3136 4.54969 33.406 5.46907C33.4983 6.38845 33.3748 7.31669 33.0453 8.17994C32.7158 9.04319 32.1893 9.81762 31.5078 10.4416C33.1226 11.1407 34.5262 12.2502 35.5795 13.6597C35.673 13.7848 35.741 13.9271 35.7795 14.0785C35.818 14.2299 35.8262 14.3874 35.8037 14.5419C35.7813 14.6965 35.7285 14.8451 35.6485 14.9793C35.5685 15.1134 35.4628 15.2305 35.3375 15.3237ZM27.3397 24.4675C27.4256 24.6026 27.4833 24.7538 27.5093 24.9118C27.5353 25.0698 27.5291 25.2315 27.491 25.3871C27.4529 25.5426 27.3837 25.6889 27.2876 25.817C27.1915 25.9451 27.0705 26.0525 26.9318 26.1326C26.7932 26.2128 26.6397 26.2641 26.4808 26.2834C26.3218 26.3027 26.1605 26.2896 26.0067 26.245C25.8529 26.2004 25.7097 26.1251 25.5857 26.0237C25.4618 25.9223 25.3596 25.7969 25.2853 25.655C24.5373 24.3883 23.4719 23.3386 22.1943 22.6093C20.9167 21.8801 19.4711 21.4965 18 21.4965C16.529 21.4965 15.0833 21.8801 13.8057 22.6093C12.5281 23.3386 11.4628 24.3883 10.7147 25.655C10.6405 25.7969 10.5383 25.9223 10.4143 26.0237C10.2904 26.1251 10.1472 26.2004 9.99335 26.245C9.83953 26.2896 9.67828 26.3027 9.51929 26.2834C9.3603 26.2641 9.20687 26.2128 9.06821 26.1326C8.92955 26.0525 8.80854 25.9451 8.71245 25.817C8.61636 25.6889 8.54719 25.5426 8.50908 25.3871C8.47098 25.2315 8.46474 25.0698 8.49073 24.9118C8.51672 24.7538 8.57442 24.6026 8.66034 24.4675C9.81161 22.4894 11.567 20.9327 13.6686 20.0262C12.4861 19.1208 11.617 17.8676 11.1835 16.4427C10.75 15.0178 10.7739 13.4929 11.2519 12.0823C11.7299 10.6717 12.6379 9.44638 13.8483 8.57854C15.0587 7.71069 16.5107 7.24396 18 7.24396C19.4894 7.24396 20.9413 7.71069 22.1517 8.57854C23.3621 9.44638 24.2701 10.6717 24.7481 12.0823C25.2261 13.4929 25.25 15.0178 24.8166 16.4427C24.3831 17.8676 23.514 19.1208 22.3314 20.0262C24.433 20.9327 26.1884 22.4894 27.3397 24.4675ZM18 19.1237C18.9395 19.1237 19.8578 18.8451 20.639 18.3232C21.4201 17.8013 22.0289 17.0594 22.3885 16.1915C22.748 15.3235 22.842 14.3685 22.6588 13.447C22.4755 12.5256 22.0231 11.6793 21.3588 11.015C20.6945 10.3507 19.8481 9.89827 18.9267 9.71499C18.0053 9.53171 17.0502 9.62577 16.1823 9.98529C15.3143 10.3448 14.5725 10.9536 14.0505 11.7348C13.5286 12.5159 13.25 13.4343 13.25 14.3737C13.25 15.6335 13.7505 16.8417 14.6413 17.7325C15.5321 18.6233 16.7402 19.1237 18 19.1237ZM9.68752 10.8112C9.68752 10.4963 9.56241 10.1942 9.33971 9.97153C9.11701 9.74883 8.81497 9.62372 8.50002 9.62372C7.83373 9.62366 7.1808 9.43675 6.61541 9.08421C6.05002 8.73167 5.59483 8.22764 5.30154 7.62937C5.00825 7.0311 4.88861 6.36257 4.95622 5.69972C5.02384 5.03686 5.27598 4.40625 5.68403 3.87952C6.09207 3.35278 6.63965 2.95104 7.26458 2.71992C7.8895 2.48879 8.56672 2.43755 9.2193 2.57202C9.87189 2.70649 10.4737 3.02127 10.9563 3.48062C11.439 3.93996 11.7831 4.52546 11.9497 5.17059C12.0284 5.4757 12.2252 5.73703 12.4966 5.89709C12.768 6.05716 13.0919 6.10285 13.397 6.02411C13.7021 5.94537 13.9634 5.74866 14.1235 5.47725C14.2835 5.20583 14.3292 4.88195 14.2505 4.57684C14.0193 3.68223 13.5825 2.85393 12.9748 2.15783C12.3672 1.46174 11.6055 0.917077 10.7503 0.567176C9.89507 0.217276 8.97002 0.0717982 8.04871 0.142319C7.1274 0.212839 6.23527 0.497411 5.44329 0.973392C4.65131 1.44937 3.98136 2.10362 3.48673 2.88409C2.9921 3.66455 2.68644 4.54969 2.59409 5.46907C2.50174 6.38845 2.62524 7.31669 2.95476 8.17994C3.28428 9.04319 3.81073 9.81762 4.49221 10.4416C2.87912 11.1414 1.47702 12.2508 0.425023 13.6597C0.23586 13.9117 0.154533 14.2285 0.198933 14.5404C0.243334 14.8523 0.409825 15.1338 0.661781 15.323C0.913737 15.5121 1.23052 15.5935 1.54244 15.5491C1.85435 15.5047 2.13586 15.3382 2.32502 15.0862C3.04077 14.1241 3.9724 13.3435 5.04493 12.8073C6.11746 12.271 7.30091 11.9941 8.50002 11.9987C8.81497 11.9987 9.11701 11.8736 9.33971 11.6509C9.56241 11.4282 9.68752 11.1262 9.68752 10.8112Z" fill="white"/>
</svg>
