<svg width="32" height="27" viewBox="0 0 32 27" fill="none" xmlns="http://www.w3.org/2000/svg">
<path d="M31.0902 9.27832L23.9652 16.4033C23.7423 16.6261 23.4401 16.7513 23.125 16.7513C22.8099 16.7513 22.5077 16.6261 22.2848 16.4033C22.062 16.1805 21.9368 15.8783 21.9368 15.5632C21.9368 15.248 22.062 14.9458 22.2848 14.723L27.3837 9.62566H21.4922C18.5957 9.62486 15.781 10.5868 13.4909 12.3602C11.2007 14.1337 9.56499 16.618 8.84086 19.4225C8.76212 19.7276 8.56541 19.989 8.29399 20.149C8.02258 20.3091 7.6987 20.3548 7.39359 20.2761C7.08849 20.1973 6.82716 20.0006 6.6671 19.7292C6.50703 19.4578 6.46134 19.1339 6.54008 18.8288C7.39451 15.5135 9.32738 12.5765 12.0343 10.4804C14.7413 8.38428 18.0685 7.24806 21.4922 7.25066H27.3866L22.2848 2.15332C22.1745 2.04299 22.087 1.912 22.0273 1.76785C21.9676 1.6237 21.9368 1.46919 21.9368 1.31316C21.9368 1.15713 21.9676 1.00262 22.0273 0.858471C22.087 0.714316 22.1745 0.583335 22.2848 0.473004C22.5077 0.250181 22.8099 0.125 23.125 0.125C23.281 0.125 23.4355 0.155733 23.5797 0.215443C23.7238 0.275154 23.8548 0.362673 23.9652 0.473004L31.0902 7.598C31.2006 7.70829 31.2882 7.83926 31.3479 7.98342C31.4077 8.12758 31.4384 8.2821 31.4384 8.43816C31.4384 8.59422 31.4077 8.74874 31.3479 8.8929C31.2882 9.03706 31.2006 9.16803 31.0902 9.27832ZM25.5 23.8757H2.9375V6.06316C2.9375 5.74822 2.81239 5.44617 2.58969 5.22347C2.36699 5.00077 2.06494 4.87566 1.75 4.87566C1.43506 4.87566 1.13301 5.00077 0.910311 5.22347C0.687611 5.44617 0.5625 5.74822 0.5625 6.06316V25.0632C0.5625 25.3781 0.687611 25.6802 0.910311 25.9029C1.13301 26.1256 1.43506 26.2507 1.75 26.2507H25.5C25.8149 26.2507 26.117 26.1256 26.3397 25.9029C26.5624 25.6802 26.6875 25.3781 26.6875 25.0632C26.6875 24.7482 26.5624 24.4462 26.3397 24.2235C26.117 24.0008 25.8149 23.8757 25.5 23.8757Z" fill="white"/>
</svg>
