<svg width="22" height="22" viewBox="0 0 22 22" fill="none" xmlns="http://www.w3.org/2000/svg">
<path d="M21.3112 0.688999C21.1226 0.500498 20.8871 0.365688 20.629 0.298456C20.371 0.231224 20.0997 0.234 19.843 0.306499H19.829L1.83461 5.7665C1.54248 5.85069 1.28283 6.02166 1.09007 6.25676C0.897302 6.49185 0.780525 6.77997 0.75521 7.08294C0.729895 7.3859 0.797238 7.6894 0.948314 7.95323C1.09939 8.21705 1.32707 8.42874 1.60117 8.56025L9.56242 12.4377L13.4343 20.3943C13.5547 20.6513 13.7462 20.8685 13.9861 21.0201C14.226 21.1718 14.5042 21.2517 14.788 21.2502C14.8312 21.2502 14.8743 21.2484 14.9174 21.2446C15.2201 21.2201 15.5081 21.1036 15.7427 20.9107C15.9773 20.7178 16.1473 20.4578 16.2299 20.1656L21.6862 2.17119C21.6862 2.1665 21.6862 2.16181 21.6862 2.15712C21.7596 1.90115 21.7636 1.63024 21.6977 1.37223C21.6318 1.11421 21.4984 0.878396 21.3112 0.688999ZM14.7965 19.7362L14.7918 19.7493V19.7427L11.0362 12.0271L15.5362 7.52712C15.6709 7.38533 15.7449 7.19651 15.7424 7.00094C15.7399 6.80537 15.6611 6.61852 15.5228 6.48022C15.3845 6.34191 15.1976 6.26311 15.002 6.26061C14.8065 6.2581 14.6177 6.3321 14.4759 6.46681L9.97586 10.9668L2.25742 7.21119H2.25086H2.26399L20.2499 1.75025L14.7965 19.7362Z" fill="black"/>
</svg>
