<svg width="38" height="38" viewBox="0 0 38 38" fill="none" xmlns="http://www.w3.org/2000/svg">
<path d="M35.5033 14.4368C35.3548 13.9804 35.0746 13.5782 34.6979 13.2807C34.3212 12.9833 33.865 12.804 33.3866 12.7654L24.6288 12.0589L21.2474 3.88143C21.0645 3.43585 20.7532 3.05471 20.3532 2.78647C19.9532 2.51823 19.4824 2.375 19.0008 2.375C18.5191 2.375 18.0483 2.51823 17.6483 2.78647C17.2483 3.05471 16.937 3.43585 16.7541 3.88143L13.3757 12.0574L4.61345 12.7654C4.13426 12.8059 3.67768 12.987 3.30092 13.2859C2.92417 13.5847 2.64398 13.9881 2.49548 14.4455C2.34698 14.9029 2.33676 15.394 2.4661 15.8571C2.59544 16.3203 2.85859 16.735 3.22259 17.0493L9.90227 22.8132L7.8672 31.4314C7.75338 31.8996 7.78125 32.3911 7.94726 32.8435C8.11327 33.2958 8.40995 33.6886 8.79962 33.9721C9.18929 34.2555 9.65439 34.4167 10.1359 34.4353C10.6174 34.454 11.0935 34.3291 11.5039 34.0766L19 29.4632L26.5006 34.0766C26.9111 34.3261 27.3863 34.4486 27.8663 34.4286C28.3463 34.4086 28.8096 34.247 29.198 33.9642C29.5863 33.6813 29.8823 33.29 30.0486 32.8393C30.215 32.3886 30.2443 31.8987 30.1328 31.4314L28.0903 22.8117L34.77 17.0478C35.137 16.7341 35.4025 16.3185 35.533 15.8537C35.6636 15.3888 35.6532 14.8957 35.5033 14.4368ZM33.2263 15.2488L25.9974 21.4832C25.8325 21.6252 25.7099 21.8099 25.6428 22.017C25.5758 22.2241 25.567 22.4456 25.6174 22.6573L27.8261 31.9792C27.8318 31.992 27.8324 32.0066 27.8277 32.0198C27.823 32.0331 27.8134 32.044 27.8009 32.0504C27.7741 32.0712 27.7667 32.0667 27.7445 32.0504L19.622 27.0555C19.4349 26.9405 19.2196 26.8796 19 26.8796C18.7804 26.8796 18.5651 26.9405 18.3781 27.0555L10.2556 32.0534C10.2333 32.0667 10.2274 32.0712 10.1991 32.0534C10.1866 32.047 10.177 32.0361 10.1723 32.0228C10.1676 32.0095 10.1682 31.995 10.1739 31.9821L12.3827 22.6603C12.433 22.4485 12.4242 22.227 12.3572 22.02C12.2902 21.8129 12.1675 21.6282 12.0027 21.4861L4.77376 15.2517C4.75595 15.2369 4.73962 15.2235 4.75446 15.1775C4.76931 15.1315 4.78118 15.1375 4.80345 15.1345L14.2916 14.3685C14.5092 14.3499 14.7175 14.2716 14.8934 14.1422C15.0694 14.0128 15.2063 13.8374 15.2891 13.6353L18.9436 4.7869C18.9555 4.76167 18.9599 4.74979 18.9956 4.74979C19.0312 4.74979 19.0356 4.76167 19.0475 4.7869L22.7109 13.6353C22.7945 13.8375 22.9322 14.0127 23.109 14.1416C23.2858 14.2704 23.4948 14.348 23.7129 14.3656L33.201 15.1315C33.2233 15.1315 33.2366 15.1315 33.25 15.1746C33.2634 15.2176 33.25 15.2339 33.2263 15.2488Z" fill="white"/>
</svg>
