<svg width="34" height="33" viewBox="0 0 34 33" fill="none" xmlns="http://www.w3.org/2000/svg">
<path d="M33.5033 12.4368C33.3548 11.9804 33.0746 11.5782 32.6979 11.2807C32.3212 10.9833 31.865 10.804 31.3866 10.7654L22.6288 10.0589L19.2474 1.88143C19.0645 1.43585 18.7532 1.05471 18.3532 0.786468C17.9532 0.518226 17.4824 0.375 17.0008 0.375C16.5191 0.375 16.0483 0.518226 15.6483 0.786468C15.2483 1.05471 14.937 1.43585 14.7541 1.88143L11.3757 10.0574L2.61345 10.7654C2.13426 10.8059 1.67768 10.987 1.30092 11.2859C0.924167 11.5847 0.643985 11.9881 0.495481 12.4455C0.346977 12.9029 0.336756 13.394 0.466098 13.8571C0.59544 14.3203 0.858593 14.735 1.22259 15.0493L7.90227 20.8132L5.8672 29.4314C5.75338 29.8996 5.78125 30.3911 5.94726 30.8435C6.11327 31.2958 6.40995 31.6886 6.79962 31.9721C7.18929 32.2555 7.65439 32.4167 8.13588 32.4353C8.61736 32.454 9.09352 32.3291 9.50391 32.0766L17 27.4632L24.5006 32.0766C24.9111 32.3261 25.3863 32.4486 25.8663 32.4286C26.3463 32.4086 26.8096 32.247 27.198 31.9642C27.5863 31.6813 27.8823 31.29 28.0486 30.8393C28.215 30.3886 28.2443 29.8987 28.1328 29.4314L26.0903 20.8117L32.77 15.0478C33.137 14.7341 33.4025 14.3185 33.533 13.8537C33.6636 13.3888 33.6532 12.8957 33.5033 12.4368ZM31.2263 13.2488L23.9974 19.4832C23.8325 19.6252 23.7099 19.8099 23.6428 20.017C23.5758 20.2241 23.567 20.4456 23.6174 20.6573L25.8261 29.9792C25.8318 29.992 25.8324 30.0066 25.8277 30.0198C25.823 30.0331 25.8134 30.044 25.8009 30.0504C25.7741 30.0712 25.7667 30.0667 25.7445 30.0504L17.622 25.0555C17.4349 24.9405 17.2196 24.8796 17 24.8796C16.7804 24.8796 16.5651 24.9405 16.3781 25.0555L8.25556 30.0534C8.23329 30.0667 8.22735 30.0712 8.19915 30.0534C8.18662 30.047 8.17702 30.0361 8.17233 30.0228C8.16763 30.0095 8.1682 29.995 8.17391 29.9821L10.3827 20.6603C10.433 20.4485 10.4242 20.227 10.3572 20.02C10.2902 19.8129 10.1675 19.6282 10.0027 19.4861L2.77376 13.2517C2.75595 13.2369 2.73962 13.2235 2.75446 13.1775C2.76931 13.1315 2.78118 13.1375 2.80345 13.1345L12.2916 12.3685C12.5092 12.3499 12.7175 12.2716 12.8934 12.1422C13.0694 12.0128 13.2063 11.8374 13.2891 11.6353L16.9436 2.7869C16.9555 2.76167 16.9599 2.74979 16.9956 2.74979C17.0312 2.74979 17.0356 2.76167 17.0475 2.7869L20.7109 11.6353C20.7945 11.8375 20.9322 12.0127 21.109 12.1416C21.2858 12.2704 21.4948 12.348 21.7129 12.3656L31.201 13.1315C31.2233 13.1315 31.2366 13.1315 31.25 13.1746C31.2634 13.2176 31.25 13.2339 31.2263 13.2488Z" fill="white"/>
</svg>
