<svg width="11" height="11" viewBox="0 0 11 11" fill="none" xmlns="http://www.w3.org/2000/svg">
<path d="M5.68823 0.820312C4.72405 0.820313 3.78152 1.10623 2.97983 1.6419C2.17814 2.17757 1.5533 2.93894 1.18432 3.82973C0.815345 4.72052 0.718803 5.70072 0.906906 6.64638C1.09501 7.59204 1.55931 8.46068 2.24109 9.14246C2.92287 9.82424 3.79151 10.2885 4.73717 10.4766C5.68283 10.6647 6.66303 10.5682 7.55382 10.1992C8.44461 9.83025 9.20598 9.20541 9.74165 8.40372C10.2773 7.60203 10.5632 6.6595 10.5632 5.69531C10.5619 4.4028 10.0478 3.16362 9.13387 2.24967C8.21993 1.33573 6.98075 0.821677 5.68823 0.820312ZM9.81323 5.69531C9.81419 6.65978 9.47548 7.59378 8.85652 8.33344L3.05011 2.52656C3.65245 2.02546 4.38506 1.70627 5.16219 1.60635C5.93933 1.50643 6.72885 1.62991 7.43836 1.96234C8.14788 2.29477 8.74804 2.8224 9.16862 3.48349C9.58919 4.14458 9.81279 4.91178 9.81323 5.69531ZM1.56323 5.69531C1.56227 4.73084 1.90099 3.79684 2.51995 3.05719L8.32636 8.86406C7.72402 9.36517 6.99141 9.68436 6.21428 9.78428C5.43714 9.8842 4.64762 9.76072 3.93811 9.42828C3.22859 9.09585 2.62843 8.56822 2.20785 7.90713C1.78728 7.24604 1.56368 6.47884 1.56323 5.69531Z" fill="black"/>
</svg>
