<svg width="30" height="31" viewBox="0 0 30 31" fill="none" xmlns="http://www.w3.org/2000/svg">
<path d="M26.875 0.9375H3.125C2.49511 0.9375 1.89102 1.18772 1.44562 1.63312C1.00022 2.07852 0.75 2.68261 0.75 3.3125V11.625C0.75 19.4506 4.53813 24.1932 7.71617 26.7938C11.1391 29.5934 14.5443 30.5434 14.6927 30.5834C14.8968 30.639 15.1121 30.639 15.3162 30.5834C15.4646 30.5434 18.8653 29.5934 22.2927 26.7938C25.4619 24.1932 29.25 19.4506 29.25 11.625V3.3125C29.25 2.68261 28.9998 2.07852 28.5544 1.63312C28.109 1.18772 27.5049 0.9375 26.875 0.9375ZM26.875 11.625C26.875 17.1276 24.8473 21.5941 20.8484 24.8983C19.1077 26.3318 17.1279 27.4473 15 28.1936C12.8999 27.4603 10.9446 26.3645 9.22281 24.9562C5.17641 21.646 3.125 17.1617 3.125 11.625V3.3125H26.875V11.625ZM8.22234 16.0277C7.99952 15.8048 7.87434 15.5026 7.87434 15.1875C7.87434 14.8724 7.99952 14.5702 8.22234 14.3473C8.44517 14.1245 8.74738 13.9993 9.0625 13.9993C9.37762 13.9993 9.67983 14.1245 9.90266 14.3473L12.625 17.0712L20.0973 9.59734C20.2077 9.48701 20.3387 9.39949 20.4828 9.33978C20.627 9.28007 20.7815 9.24934 20.9375 9.24934C21.0935 9.24934 21.248 9.28007 21.3922 9.33978C21.5363 9.39949 21.6673 9.48701 21.7777 9.59734C21.888 9.70767 21.9755 9.83866 22.0352 9.98281C22.0949 10.127 22.1257 10.2815 22.1257 10.4375C22.1257 10.5935 22.0949 10.748 22.0352 10.8922C21.9755 11.0363 21.888 11.1673 21.7777 11.2777L13.4652 19.5902C13.3549 19.7006 13.2239 19.7882 13.0797 19.8479C12.9356 19.9077 12.7811 19.9384 12.625 19.9384C12.4689 19.9384 12.3144 19.9077 12.1703 19.8479C12.0261 19.7882 11.8951 19.7006 11.7848 19.5902L8.22234 16.0277Z" fill="white"/>
</svg>
