<svg width="32" height="34" viewBox="0 0 32 34" fill="none" xmlns="http://www.w3.org/2000/svg">
<path d="M26.9681 5.11359C25.5475 3.67876 23.8579 2.53823 21.996 1.75728C20.134 0.976339 18.1363 0.570329 16.1173 0.5625H16C11.9057 0.5625 7.97913 2.18895 5.08404 5.08404C2.18895 7.97913 0.5625 11.9057 0.5625 16V24.3125C0.5625 25.2573 0.937834 26.1635 1.60593 26.8316C2.27403 27.4997 3.18017 27.875 4.125 27.875H6.5C7.44483 27.875 8.35097 27.4997 9.01907 26.8316C9.68717 26.1635 10.0625 25.2573 10.0625 24.3125V18.375C10.0625 17.4302 9.68717 16.524 9.01907 15.8559C8.35097 15.1878 7.44483 14.8125 6.5 14.8125H2.99094C3.21995 12.3365 4.14999 9.977 5.67205 8.01066C7.19412 6.04431 9.24514 4.55255 11.5847 3.71021C13.9243 2.86788 16.4555 2.70988 18.8817 3.25472C21.3079 3.79957 23.5285 5.02468 25.2833 6.78648C27.428 8.94224 28.7473 11.783 29.0105 14.8125H25.5C24.5552 14.8125 23.649 15.1878 22.9809 15.8559C22.3128 16.524 21.9375 17.4302 21.9375 18.375V24.3125C21.9375 25.2573 22.3128 26.1635 22.9809 26.8316C23.649 27.4997 24.5552 27.875 25.5 27.875H29.0625C29.0625 28.8198 28.6872 29.726 28.0191 30.3941C27.351 31.0622 26.4448 31.4375 25.5 31.4375H17.1875C16.8726 31.4375 16.5705 31.5626 16.3478 31.7853C16.1251 32.008 16 32.3101 16 32.625C16 32.9399 16.1251 33.242 16.3478 33.4647C16.5705 33.6874 16.8726 33.8125 17.1875 33.8125H25.5C27.0747 33.8125 28.585 33.1869 29.6985 32.0734C30.8119 30.9599 31.4375 29.4497 31.4375 27.875V16C31.4452 13.9806 31.0544 11.9796 30.2875 10.1115C29.5205 8.24338 28.3925 6.54499 26.9681 5.11359ZM6.5 17.1875C6.81495 17.1875 7.11699 17.3126 7.33969 17.5353C7.56239 17.758 7.6875 18.0601 7.6875 18.375V24.3125C7.6875 24.6274 7.56239 24.9295 7.33969 25.1522C7.11699 25.3749 6.81495 25.5 6.5 25.5H4.125C3.81006 25.5 3.50801 25.3749 3.28531 25.1522C3.06261 24.9295 2.9375 24.6274 2.9375 24.3125V17.1875H6.5ZM25.5 25.5C25.1851 25.5 24.883 25.3749 24.6603 25.1522C24.4376 24.9295 24.3125 24.6274 24.3125 24.3125V18.375C24.3125 18.0601 24.4376 17.758 24.6603 17.5353C24.883 17.3126 25.1851 17.1875 25.5 17.1875H29.0625V25.5H25.5Z" fill="white"/>
</svg>
