<svg width="35" height="35" viewBox="0 0 35 35" fill="none" xmlns="http://www.w3.org/2000/svg">
<rect x="0.15" y="0.15" width="34.7" height="34.7" rx="6.85" stroke="#E5E5E5" stroke-width="0.3"/>
<path d="M18.5 23C18.5 23.3978 18.342 23.7794 18.0607 24.0607C17.7794 24.342 17.3978 24.5 17 24.5C16.6022 24.5 16.2206 24.342 15.9393 24.0607C15.658 23.7794 15.5 23.3978 15.5 23C15.5 22.6022 15.658 22.2206 15.9393 21.9393C16.2206 21.658 16.6022 21.5 17 21.5C17.3978 21.5 17.7794 21.658 18.0607 21.9393C18.342 22.2206 18.5 22.6022 18.5 23ZM18.5 18C18.5 18.3978 18.342 18.7794 18.0607 19.0607C17.7794 19.342 17.3978 19.5 17 19.5C16.6022 19.5 16.2206 19.342 15.9393 19.0607C15.658 18.7794 15.5 18.3978 15.5 18C15.5 17.6022 15.658 17.2206 15.9393 16.9393C16.2206 16.658 16.6022 16.5 17 16.5C17.3978 16.5 17.7794 16.658 18.0607 16.9393C18.342 17.2206 18.5 17.6022 18.5 18ZM18.5 13C18.5 13.3978 18.342 13.7794 18.0607 14.0607C17.7794 14.342 17.3978 14.5 17 14.5C16.6022 14.5 16.2206 14.342 15.9393 14.0607C15.658 13.7794 15.5 13.3978 15.5 13C15.5 12.6022 15.658 12.2206 15.9393 11.9393C16.2206 11.658 16.6022 11.5 17 11.5C17.3978 11.5 17.7794 11.658 18.0607 11.9393C18.342 12.2206 18.5 12.6022 18.5 13Z" fill="white"/>
</svg>
