<svg width="38" height="38" viewBox="0 0 38 38" fill="none" xmlns="http://www.w3.org/2000/svg">
<path d="M34.7344 11.8928C34.4 11.5139 33.9888 11.2104 33.5281 11.0026C33.0675 10.7948 32.5679 10.6874 32.0625 10.6875H23.75V8.3125C23.75 6.73778 23.1244 5.22755 22.0109 4.11405C20.8974 3.00056 19.3872 2.375 17.8125 2.375C17.5919 2.37484 17.3756 2.43614 17.1879 2.55203C17.0001 2.66791 16.8484 2.8338 16.7497 3.03109L11.1417 14.25H4.75C4.12011 14.25 3.51602 14.5002 3.07062 14.9456C2.62522 15.391 2.375 15.9951 2.375 16.625V29.6875C2.375 30.3174 2.62522 30.9215 3.07062 31.3669C3.51602 31.8123 4.12011 32.0625 4.75 32.0625H30.2812C31.1492 32.0628 31.9873 31.7462 32.6384 31.1723C33.2894 30.5983 33.7085 29.8064 33.817 28.9453L35.5983 14.6953C35.6614 14.1936 35.617 13.6842 35.4681 13.201C35.3191 12.7178 35.069 12.2719 34.7344 11.8928ZM4.75 16.625H10.6875V29.6875H4.75V16.625ZM33.2411 14.3984L31.4598 28.6484C31.4237 28.9355 31.284 29.1994 31.067 29.3908C30.8499 29.5821 30.5706 29.6876 30.2812 29.6875H13.0625V15.718L18.5116 4.81828C19.3193 4.97992 20.0459 5.41642 20.568 6.05349C21.0901 6.69057 21.3752 7.48885 21.375 8.3125V11.875C21.375 12.1899 21.5001 12.492 21.7228 12.7147C21.9455 12.9374 22.2476 13.0625 22.5625 13.0625H32.0625C32.231 13.0624 32.3976 13.0982 32.5512 13.1675C32.7048 13.2368 32.8419 13.338 32.9534 13.4644C33.0649 13.5908 33.1482 13.7394 33.1978 13.9004C33.2474 14.0615 33.2622 14.2312 33.2411 14.3984Z" fill="white"/>
</svg>
