<svg width="21" height="21" viewBox="0 0 21 21" fill="none" xmlns="http://www.w3.org/2000/svg">
<path d="M17.5312 0.34375H3.46875C2.64023 0.344655 1.8459 0.674185 1.26004 1.26004C0.674185 1.8459 0.344655 2.64023 0.34375 3.46875V17.5312C0.344655 18.3598 0.674185 19.1541 1.26004 19.74C1.8459 20.3258 2.64023 20.6553 3.46875 20.6562H17.5312C18.3598 20.6553 19.1541 20.3258 19.74 19.74C20.3258 19.1541 20.6553 18.3598 20.6562 17.5312V3.46875C20.6553 2.64023 20.3258 1.8459 19.74 1.26004C19.1541 0.674185 18.3598 0.344655 17.5312 0.34375ZM15.7856 7.09619L9.22314 14.9087C9.15116 14.9944 9.06158 15.0637 8.96049 15.1118C8.8594 15.1599 8.74915 15.1857 8.63721 15.1875H8.62402C8.51452 15.1875 8.40625 15.1644 8.30623 15.1198C8.20621 15.0752 8.11669 15.0101 8.04346 14.9287L5.23096 11.8037C5.15953 11.728 5.10397 11.6387 5.06753 11.5411C5.0311 11.4436 5.01453 11.3398 5.0188 11.2357C5.02307 11.1317 5.04809 11.0296 5.0924 10.9353C5.1367 10.8411 5.1994 10.7567 5.27679 10.687C5.35419 10.6174 5.44473 10.5639 5.54308 10.5298C5.64144 10.4956 5.74564 10.4814 5.84954 10.4881C5.95345 10.4948 6.05497 10.5222 6.14814 10.5687C6.24131 10.6152 6.32425 10.6798 6.39209 10.7588L8.60352 13.2158L14.5894 6.09131C14.7236 5.93607 14.9136 5.83991 15.1182 5.82361C15.3228 5.8073 15.5256 5.87217 15.6827 6.00418C15.8399 6.1362 15.9388 6.32475 15.958 6.52909C15.9773 6.73343 15.9154 6.93714 15.7856 7.09619Z" fill="#E53E3E"/>
</svg>
