<svg width="28" height="28" viewBox="0 0 28 28" fill="none" xmlns="http://www.w3.org/2000/svg">
<path d="M14 0.1875C11.2682 0.1875 8.59765 0.997589 6.32619 2.51533C4.05474 4.03306 2.28436 6.19028 1.23892 8.71418C0.193485 11.2381 -0.0800488 14.0153 0.45291 16.6947C0.985868 19.374 2.30138 21.8352 4.23309 23.7669C6.16481 25.6986 8.62596 27.0141 11.3053 27.5471C13.9847 28.0801 16.7619 27.8065 19.2858 26.7611C21.8097 25.7157 23.9669 23.9453 25.4847 21.6738C27.0024 19.4024 27.8125 16.7319 27.8125 14C27.8086 10.3379 26.3522 6.82687 23.7626 4.23736C21.1731 1.64785 17.6621 0.191367 14 0.1875ZM20.0642 11.5642L12.6267 19.0017C12.528 19.1005 12.4109 19.1789 12.2819 19.2323C12.1529 19.2858 12.0146 19.3133 11.875 19.3133C11.7354 19.3133 11.5971 19.2858 11.4681 19.2323C11.3391 19.1789 11.222 19.1005 11.1233 19.0017L7.93579 15.8142C7.73642 15.6149 7.62442 15.3444 7.62442 15.0625C7.62442 14.7806 7.73642 14.5101 7.93579 14.3108C8.13516 14.1114 8.40556 13.9994 8.68751 13.9994C8.96946 13.9994 9.23986 14.1114 9.43923 14.3108L11.875 16.7479L18.5608 10.0608C18.6595 9.96206 18.7767 9.88376 18.9057 9.83033C19.0347 9.77691 19.1729 9.74941 19.3125 9.74941C19.4521 9.74941 19.5904 9.77691 19.7193 9.83033C19.8483 9.88376 19.9655 9.96206 20.0642 10.0608C20.1629 10.1595 20.2412 10.2767 20.2947 10.4057C20.3481 10.5347 20.3756 10.6729 20.3756 10.8125C20.3756 10.9521 20.3481 11.0903 20.2947 11.2193C20.2412 11.3483 20.1629 11.4655 20.0642 11.5642Z" fill="#E53E3E"/>
</svg>
