<svg width="38" height="38" viewBox="0 0 38 38" fill="none" xmlns="http://www.w3.org/2000/svg">
<path d="M27.6364 19.7037C27.6364 20.077 27.4544 20.435 27.1305 20.6989C26.8065 20.9628 26.3672 21.1111 25.9091 21.1111H12.0909C11.6328 21.1111 11.1935 20.9628 10.8695 20.6989C10.5456 20.435 10.3636 20.077 10.3636 19.7037C10.3636 19.3304 10.5456 18.9725 10.8695 18.7085C11.1935 18.4446 11.6328 18.2963 12.0909 18.2963H25.9091C26.3672 18.2963 26.8065 18.4446 27.1305 18.7085C27.4544 18.9725 27.6364 19.3304 27.6364 19.7037ZM25.9091 23.9259H12.0909C11.6328 23.9259 11.1935 24.0742 10.8695 24.3381C10.5456 24.6021 10.3636 24.9601 10.3636 25.3333C10.3636 25.7066 10.5456 26.0646 10.8695 26.3285C11.1935 26.5925 11.6328 26.7407 12.0909 26.7407H25.9091C26.3672 26.7407 26.8065 26.5925 27.1305 26.3285C27.4544 26.0646 27.6364 25.7066 27.6364 25.3333C27.6364 24.9601 27.4544 24.6021 27.1305 24.3381C26.8065 24.0742 26.3672 23.9259 25.9091 23.9259ZM38 4.22222V32.3704C38 33.8634 37.2721 35.2954 35.9764 36.3511C34.6807 37.4069 32.9233 38 31.0909 38H6.90909C5.07669 38 3.31933 37.4069 2.02363 36.3511C0.72792 35.2954 0 33.8634 0 32.3704V4.22222C0 3.84895 0.18198 3.49098 0.505907 3.22704C0.829833 2.9631 1.26917 2.81481 1.72727 2.81481H6.90909V1.40741C6.90909 1.03414 7.09107 0.67616 7.415 0.41222C7.73892 0.14828 8.17826 0 8.63636 0C9.09447 0 9.5338 0.14828 9.85773 0.41222C10.1817 0.67616 10.3636 1.03414 10.3636 1.40741V2.81481H17.2727V1.40741C17.2727 1.03414 17.4547 0.67616 17.7786 0.41222C18.1026 0.14828 18.5419 0 19 0C19.4581 0 19.8974 0.14828 20.2214 0.41222C20.5453 0.67616 20.7273 1.03414 20.7273 1.40741V2.81481H27.6364V1.40741C27.6364 1.03414 27.8183 0.67616 28.1423 0.41222C28.4662 0.14828 28.9055 0 29.3636 0C29.8217 0 30.2611 0.14828 30.585 0.41222C30.9089 0.67616 31.0909 1.03414 31.0909 1.40741V2.81481H36.2727C36.7308 2.81481 37.1702 2.9631 37.4941 3.22704C37.818 3.49098 38 3.84895 38 4.22222ZM34.5455 5.62963H31.0909V7.03704C31.0909 7.4103 30.9089 7.76828 30.585 8.03222C30.2611 8.29616 29.8217 8.44444 29.3636 8.44444C28.9055 8.44444 28.4662 8.29616 28.1423 8.03222C27.8183 7.76828 27.6364 7.4103 27.6364 7.03704V5.62963H20.7273V7.03704C20.7273 7.4103 20.5453 7.76828 20.2214 8.03222C19.8974 8.29616 19.4581 8.44444 19 8.44444C18.5419 8.44444 18.1026 8.29616 17.7786 8.03222C17.4547 7.76828 17.2727 7.4103 17.2727 7.03704V5.62963H10.3636V7.03704C10.3636 7.4103 10.1817 7.76828 9.85773 8.03222C9.5338 8.29616 9.09447 8.44444 8.63636 8.44444C8.17826 8.44444 7.73892 8.29616 7.415 8.03222C7.09107 7.76828 6.90909 7.4103 6.90909 7.03704V5.62963H3.45455V32.3704C3.45455 33.1169 3.81851 33.8329 4.46636 34.3607C5.11421 34.8886 5.99289 35.1852 6.90909 35.1852H31.0909C32.0071 35.1852 32.8858 34.8886 33.5336 34.3607C34.1815 33.8329 34.5455 33.1169 34.5455 32.3704V5.62963Z" fill="white"/>
</svg>
