<svg width="17" height="16" viewBox="0 0 17 16" fill="none" xmlns="http://www.w3.org/2000/svg">
<path d="M14.3026 3.00781H3.30261C3.17 3.00781 3.04283 3.06049 2.94906 3.15426C2.85529 3.24803 2.80261 3.3752 2.80261 3.50781C2.80261 3.64042 2.85529 3.7676 2.94906 3.86137C3.04283 3.95513 3.17 4.00781 3.30261 4.00781H3.80261V13.0078C3.80261 13.273 3.90797 13.5274 4.09551 13.7149C4.28304 13.9025 4.5374 14.0078 4.80261 14.0078H12.8026C13.0678 14.0078 13.3222 13.9025 13.5097 13.7149C13.6973 13.5274 13.8026 13.273 13.8026 13.0078V4.00781H14.3026C14.4352 4.00781 14.5624 3.95513 14.6562 3.86137C14.7499 3.7676 14.8026 3.64042 14.8026 3.50781C14.8026 3.3752 14.7499 3.24803 14.6562 3.15426C14.5624 3.06049 14.4352 3.00781 14.3026 3.00781ZM12.8026 13.0078H4.80261V4.00781H12.8026V13.0078ZM5.80261 1.50781C5.80261 1.3752 5.85529 1.24803 5.94906 1.15426C6.04283 1.06049 6.17 1.00781 6.30261 1.00781H11.3026C11.4352 1.00781 11.5624 1.06049 11.6562 1.15426C11.7499 1.24803 11.8026 1.3752 11.8026 1.50781C11.8026 1.64042 11.7499 1.7676 11.6562 1.86137C11.5624 1.95513 11.4352 2.00781 11.3026 2.00781H6.30261C6.17 2.00781 6.04283 1.95513 5.94906 1.86137C5.85529 1.7676 5.80261 1.64042 5.80261 1.50781Z" fill="black"/>
</svg>
