<svg width="35" height="35" viewBox="0 0 35 35" fill="none" xmlns="http://www.w3.org/2000/svg">
<rect x="0.15" y="0.15" width="34.7" height="34.7" rx="6.85" stroke="#989898" stroke-width="0.3"/>
<path d="M22.3027 13.0078H11.3027C11.1701 13.0078 11.0429 13.0605 10.9492 13.1543C10.8554 13.248 10.8027 13.3752 10.8027 13.5078C10.8027 13.6404 10.8554 13.7676 10.9492 13.8614C11.0429 13.9551 11.1701 14.0078 11.3027 14.0078H11.8027V23.0078C11.8027 23.273 11.9081 23.5274 12.0956 23.7149C12.2832 23.9025 12.5375 24.0078 12.8027 24.0078H20.8027C21.068 24.0078 21.3223 23.9025 21.5098 23.7149C21.6974 23.5274 21.8027 23.273 21.8027 23.0078V14.0078H22.3027C22.4353 14.0078 22.5625 13.9551 22.6563 13.8614C22.7501 13.7676 22.8027 13.6404 22.8027 13.5078C22.8027 13.3752 22.7501 13.248 22.6563 13.1543C22.5625 13.0605 22.4353 13.0078 22.3027 13.0078ZM20.8027 23.0078H12.8027V14.0078H20.8027V23.0078ZM13.8027 11.5078C13.8027 11.3752 13.8554 11.248 13.9492 11.1543C14.0429 11.0605 14.1701 11.0078 14.3027 11.0078H19.3027C19.4353 11.0078 19.5625 11.0605 19.6563 11.1543C19.7501 11.248 19.8027 11.3752 19.8027 11.5078C19.8027 11.6404 19.7501 11.7676 19.6563 11.8614C19.5625 11.9551 19.4353 12.0078 19.3027 12.0078H14.3027C14.1701 12.0078 14.0429 11.9551 13.9492 11.8614C13.8554 11.7676 13.8027 11.6404 13.8027 11.5078Z" fill="#E53E3E"/>
</svg>
