<svg width="37" height="23" viewBox="0 0 37 23" fill="none" xmlns="http://www.w3.org/2000/svg">
<path d="M27.25 2.96875V20.0312C27.25 20.6777 26.9932 21.2977 26.5361 21.7548C26.079 22.2119 25.459 22.4688 24.8125 22.4688H2.875C2.22853 22.4688 1.60855 22.2119 1.15143 21.7548C0.694307 21.2977 0.4375 20.6777 0.4375 20.0312V2.96875C0.4375 2.32228 0.694307 1.7023 1.15143 1.24518C1.60855 0.788057 2.22853 0.53125 2.875 0.53125H24.8125C25.459 0.53125 26.079 0.788057 26.5361 1.24518C26.9932 1.7023 27.25 2.32228 27.25 2.96875ZM36.0859 3.00684C35.914 2.96476 35.7351 2.95957 35.561 2.99161C35.3869 3.02364 35.2216 3.09217 35.0759 3.1927L29.9587 6.60367C29.8752 6.65937 29.8068 6.73481 29.7595 6.82331C29.7122 6.91181 29.6874 7.01063 29.6875 7.11098V15.889C29.6874 15.9894 29.7122 16.0882 29.7595 16.1767C29.8068 16.2652 29.8752 16.3406 29.9587 16.3963L35.1048 19.8271C35.2975 19.9556 35.5227 20.0266 35.7542 20.0317C35.9857 20.0368 36.2138 19.9759 36.412 19.8561C36.5953 19.7395 36.7456 19.5779 36.8485 19.3867C36.9515 19.1954 37.0037 18.9809 37 18.7637V4.1875C37.0001 3.9172 36.9104 3.65453 36.7449 3.4408C36.5795 3.22707 36.3477 3.07441 36.0859 3.00684Z" fill="white"/>
</svg>
