<svg width="35" height="35" viewBox="0 0 35 35" fill="none" xmlns="http://www.w3.org/2000/svg">
<path d="M32.375 25.7155L20.4189 4.95204C20.1202 4.44335 19.6937 4.02156 19.1817 3.72849C18.6696 3.43542 18.0899 3.28125 17.5 3.28125C16.9101 3.28125 16.3304 3.43542 15.8184 3.72849C15.3063 4.02156 14.8798 4.44335 14.5811 4.95204L2.625 25.7155C2.33753 26.2075 2.18604 26.7672 2.18604 27.337C2.18604 27.9069 2.33753 28.4665 2.625 28.9585C2.91995 29.4703 3.34574 29.8943 3.8587 30.1872C4.37166 30.4801 4.9533 30.6312 5.54395 30.6251H29.4561C30.0462 30.6307 30.6273 30.4794 31.1398 30.1865C31.6522 29.8937 32.0776 29.4699 32.3723 28.9585C32.6602 28.4667 32.8121 27.9072 32.8126 27.3374C32.8131 26.7675 32.6621 26.2078 32.375 25.7155ZM30.4787 27.8634C30.3745 28.0412 30.2248 28.1881 30.0451 28.289C29.8654 28.3899 29.6621 28.4412 29.4561 28.4376H5.54395C5.33788 28.4412 5.13457 28.3899 4.95487 28.289C4.77516 28.1881 4.62552 28.0412 4.52129 27.8634C4.42688 27.7035 4.37708 27.5213 4.37708 27.3356C4.37708 27.15 4.42688 26.9677 4.52129 26.8079L16.4773 6.04443C16.5837 5.86747 16.734 5.72105 16.9137 5.6194C17.0934 5.51774 17.2963 5.46432 17.5027 5.46432C17.7092 5.46432 17.9121 5.51774 18.0918 5.6194C18.2715 5.72105 18.4218 5.86747 18.5281 6.04443L30.4842 26.8079C30.5778 26.9682 30.6266 27.1507 30.6257 27.3364C30.6247 27.522 30.574 27.704 30.4787 27.8634ZM16.4063 19.6876V14.2188C16.4063 13.9288 16.5215 13.6506 16.7266 13.4454C16.9317 13.2403 17.2099 13.1251 17.5 13.1251C17.7901 13.1251 18.0683 13.2403 18.2734 13.4454C18.4785 13.6506 18.5938 13.9288 18.5938 14.2188V19.6876C18.5938 19.9777 18.4785 20.2559 18.2734 20.461C18.0683 20.6661 17.7901 20.7813 17.5 20.7813C17.2099 20.7813 16.9317 20.6661 16.7266 20.461C16.5215 20.2559 16.4063 19.9777 16.4063 19.6876ZM19.1406 24.6095C19.1406 24.934 19.0444 25.2512 18.8641 25.5209C18.6839 25.7907 18.4276 26.001 18.1278 26.1252C17.8281 26.2494 17.4982 26.2819 17.1799 26.2186C16.8617 26.1553 16.5694 25.999 16.3399 25.7696C16.1105 25.5401 15.9542 25.2478 15.8909 24.9295C15.8276 24.6113 15.8601 24.2814 15.9843 23.9816C16.1084 23.6818 16.3187 23.4256 16.5885 23.2453C16.8583 23.0651 17.1755 22.9688 17.5 22.9688C17.9351 22.9688 18.3524 23.1417 18.6601 23.4494C18.9678 23.757 19.1406 24.1743 19.1406 24.6095Z" fill="#FF0000"/>
</svg>
