<svg width="26" height="26" viewBox="0 0 26 26" fill="none" xmlns="http://www.w3.org/2000/svg">
<path d="M19.9827 14.9734L16.2327 13.0984C16.0851 13.0249 15.9207 12.9916 15.7561 13.0019C15.5915 13.0121 15.4325 13.0657 15.2952 13.157L13.5738 14.3055C12.7835 13.871 12.1332 13.2207 11.6988 12.4305L12.8472 10.709C12.9386 10.5717 12.9921 10.4127 13.0024 10.2481C13.0127 10.0835 12.9793 9.9191 12.9058 9.77148L11.0308 6.02148C10.9531 5.86454 10.8329 5.7325 10.684 5.64033C10.5351 5.54816 10.3633 5.49955 10.1882 5.5C8.945 5.5 7.75272 5.99386 6.87364 6.87294C5.99457 7.75201 5.50071 8.9443 5.50071 10.1875C5.50381 12.9216 6.5913 15.5428 8.52459 17.4761C10.4579 19.4094 13.0791 20.4969 15.8132 20.5C16.4288 20.5 17.0383 20.3788 17.607 20.1432C18.1758 19.9076 18.6925 19.5623 19.1278 19.1271C19.563 18.6918 19.9083 18.175 20.1439 17.6063C20.3795 17.0376 20.5007 16.4281 20.5007 15.8125C20.5008 15.6383 20.4524 15.4676 20.3609 15.3194C20.2695 15.1712 20.1385 15.0514 19.9827 14.9734ZM15.8132 18.625C13.5762 18.6225 11.4315 17.7328 9.84973 16.151C8.26793 14.5692 7.37819 12.4245 7.37571 10.1875C7.37553 9.53725 7.60066 8.90702 8.01281 8.40407C8.42496 7.90112 8.99865 7.55652 9.63625 7.42891L10.9816 10.1242L9.83664 11.8281C9.75109 11.9565 9.69852 12.1039 9.6836 12.2574C9.66867 12.411 9.69186 12.5658 9.7511 12.7082C10.4219 14.3024 11.6901 15.5706 13.2843 16.2414C13.4271 16.3033 13.5831 16.3286 13.7382 16.3151C13.8933 16.3016 14.0426 16.2497 14.1726 16.1641L15.8847 15.0227L18.58 16.368C18.4514 17.0063 18.1053 17.5803 17.6007 17.9919C17.0961 18.4035 16.4644 18.6272 15.8132 18.625ZM13.0007 0.8125C10.8966 0.812041 8.82815 1.35635 6.99678 2.39246C5.16542 3.42856 3.6335 4.92115 2.55013 6.72496C1.46676 8.52877 0.86885 10.5823 0.814599 12.6858C0.760349 14.7892 1.2516 16.8709 2.24055 18.7281L0.910473 22.7184C0.800298 23.0487 0.78431 23.4033 0.864298 23.7422C0.944287 24.0811 1.11709 24.3911 1.36335 24.6374C1.6096 24.8836 1.91957 25.0564 2.25851 25.1364C2.59746 25.2164 2.95198 25.2004 3.28235 25.0902L7.27258 23.7602C8.90708 24.6295 10.7181 25.1151 12.5683 25.18C14.4185 25.2449 16.2591 24.8875 17.9506 24.1348C19.642 23.3822 21.1397 22.2541 22.33 20.8362C23.5204 19.4183 24.372 17.7478 24.8204 15.9516C25.2687 14.1554 25.302 12.2807 24.9177 10.4697C24.5333 8.65876 23.7414 6.95914 22.6021 5.4999C21.4629 4.04066 20.0061 2.86014 18.3425 2.04795C16.6788 1.23577 14.852 0.81326 13.0007 0.8125ZM13.0007 23.3125C11.1878 23.3137 9.40668 22.8363 7.83743 21.9285C7.72253 21.8619 7.59479 21.8204 7.46266 21.8069C7.33053 21.7934 7.19704 21.8081 7.07102 21.85L2.68821 23.3125L4.14954 18.9297C4.19166 18.8038 4.20655 18.6703 4.19321 18.5382C4.17988 18.406 4.13863 18.2783 4.07219 18.1633C2.93544 16.1979 2.47904 13.9124 2.77379 11.6612C3.06854 9.41001 4.09797 7.319 5.70237 5.71257C7.30678 4.10613 9.39648 3.07407 11.6473 2.77647C13.8981 2.47888 16.1842 2.93239 18.151 4.06666C20.1178 5.20093 21.6553 6.95255 22.525 9.04979C23.3946 11.147 23.5479 13.4727 22.961 15.6659C22.3741 17.8591 21.0798 19.7974 19.2788 21.1799C17.4779 22.5625 15.2711 23.3121 13.0007 23.3125Z" fill="black"/>
</svg>
