<svg width="51" height="51" viewBox="0 0 51 51" fill="none" xmlns="http://www.w3.org/2000/svg">
<g filter="url(#filter0_d_36_1577)">
<rect x="4" y="4" width="43" height="43" rx="7" fill="white"/>
<g clip-path="url(#clip0_36_1577)">
<path d="M11.6354 25.8204C11.6347 28.341 12.2933 30.8021 13.5456 32.9714L11.5156 40.3833L19.1007 38.3944C21.1987 39.5365 23.5493 40.135 25.938 40.1351H25.9442C33.8297 40.1351 40.2486 33.7185 40.252 25.8316C40.2535 22.0099 38.7666 18.4162 36.0649 15.7125C33.3638 13.009 29.7713 11.5193 25.9436 11.5176C18.0573 11.5176 11.6388 17.9339 11.6355 25.8204" fill="url(#paint0_linear_36_1577)"/>
<path d="M11.1244 25.8158C11.1236 28.4271 11.8058 30.9763 13.1028 33.2233L11 40.9008L18.8571 38.8407C21.022 40.021 23.4594 40.6434 25.9397 40.6443H25.946C34.1144 40.6443 40.764 33.9969 40.7674 25.8277C40.7688 21.8686 39.2284 18.1457 36.4302 15.3451C33.6317 12.5449 29.9108 11.0016 25.946 11C17.7763 11 11.1277 17.6465 11.1244 25.8158ZM15.8036 32.8363L15.5102 32.3706C14.277 30.4097 13.626 28.1436 13.627 25.8167C13.6295 19.0266 19.1556 13.5023 25.9507 13.5023C29.2414 13.5037 32.334 14.7865 34.66 17.114C36.9859 19.4416 38.2658 22.5358 38.265 25.8267C38.262 32.6169 32.7358 38.1419 25.946 38.1419H25.9412C23.7303 38.1407 21.5621 37.547 19.6712 36.425L19.2212 36.1581L14.5586 37.3806L15.8036 32.8363Z" fill="url(#paint1_linear_36_1577)"/>
<path d="M22.2408 19.6221C21.9634 19.0055 21.6714 18.9931 21.4076 18.9822C21.1915 18.9729 20.9445 18.9736 20.6978 18.9736C20.4508 18.9736 20.0495 19.0666 19.7103 19.4369C19.3708 19.8076 18.4141 20.7034 18.4141 22.5254C18.4141 24.3474 19.7412 26.1083 19.9262 26.3556C20.1114 26.6025 22.4881 30.4611 26.2523 31.9455C29.3807 33.1791 30.0173 32.9338 30.6963 32.8719C31.3753 32.8103 32.8874 31.9763 33.1959 31.1116C33.5046 30.2469 33.5046 29.5057 33.4121 29.3509C33.3195 29.1966 33.0725 29.1039 32.7022 28.9188C32.3319 28.7336 30.511 27.8376 30.1716 27.714C29.8321 27.5905 29.5852 27.5289 29.3382 27.8997C29.0913 28.2699 28.3821 29.1039 28.1659 29.3509C27.95 29.5984 27.7338 29.6292 27.3636 29.444C26.993 29.2582 25.8003 28.8676 24.3853 27.6061C23.2844 26.6245 22.5412 25.4122 22.3251 25.0414C22.1091 24.6712 22.302 24.4705 22.4877 24.286C22.6541 24.12 22.8581 23.8535 23.0435 23.6374C23.2281 23.4211 23.2898 23.2668 23.4132 23.0198C23.5369 22.7726 23.475 22.5563 23.3826 22.3711C23.2898 22.1859 22.5701 20.3543 22.2408 19.6221Z" fill="white"/>
</g>
</g>
<defs>
<filter id="filter0_d_36_1577" x="0" y="0" width="51" height="51" filterUnits="userSpaceOnUse" color-interpolation-filters="sRGB">
<feFlood flood-opacity="0" result="BackgroundImageFix"/>
<feColorMatrix in="SourceAlpha" type="matrix" values="0 0 0 0 0 0 0 0 0 0 0 0 0 0 0 0 0 0 127 0" result="hardAlpha"/>
<feOffset/>
<feGaussianBlur stdDeviation="2"/>
<feComposite in2="hardAlpha" operator="out"/>
<feColorMatrix type="matrix" values="0 0 0 0 0 0 0 0 0 0 0 0 0 0 0 0 0 0 0.25 0"/>
<feBlend mode="normal" in2="BackgroundImageFix" result="effect1_dropShadow_36_1577"/>
<feBlend mode="normal" in="SourceGraphic" in2="effect1_dropShadow_36_1577" result="shape"/>
</filter>
<linearGradient id="paint0_linear_36_1577" x1="1448.34" y1="2898.09" x2="1448.34" y2="11.5176" gradientUnits="userSpaceOnUse">
<stop stop-color="#1FAF38"/>
<stop offset="1" stop-color="#60D669"/>
</linearGradient>
<linearGradient id="paint1_linear_36_1577" x1="1499.37" y1="3001.08" x2="1499.37" y2="11" gradientUnits="userSpaceOnUse">
<stop stop-color="#F9F9F9"/>
<stop offset="1" stop-color="white"/>
</linearGradient>
<clipPath id="clip0_36_1577">
<rect width="29.7674" height="30" fill="white" transform="translate(11 11)"/>
</clipPath>
</defs>
</svg>
